{"glyphs":{"0":{"ha":890,"x_min":83,"x_max":806,"o":"m 444 -10 q 237 60 317 -10 q 120 249 157 131 q 83 514 83 368 q 120 776 83 658 q 237 962 157 893 q 444 1031 317 1031 q 652 962 572 1031 q 769 776 732 893 q 806 514 806 658 q 769 249 806 368 q 652 60 732 131 q 444 -10 572 -10 m 444 135 q 568 188 524 135 q 631 328 613 242 q 650 514 650 415 q 640 651 650 585 q 606 771 629 718 q 542 855 582 824 q 444 886 503 886 q 347 855 386 886 q 283 771 307 824 q 249 651 260 718 q 239 514 239 585 q 258 328 239 415 q 322 188 276 242 q 444 135 367 135 z "},"1":{"ha":596,"x_min":22,"x_max":574,"o":"m 22 0 l 22 132 l 228 132 l 228 815 q 174 758 210 783 q 99 717 139 732 q 22 703 58 703 l 22 857 q 116 878 71 857 q 194 934 161 899 q 239 1014 228 969 l 385 1014 l 385 132 l 574 132 l 574 0 l 22 0 z "},"2":{"ha":800,"x_min":69,"x_max":744,"o":"m 69 0 l 69 115 q 157 192 119 158 q 226 253 194 225 q 291 313 258 282 q 364 382 324 343 q 442 464 406 422 q 504 548 478 506 q 546 633 531 590 q 561 718 561 676 q 522 851 561 801 q 396 899 482 900 q 298 869 338 899 q 238 792 258 840 q 211 682 217 743 l 69 704 q 116 874 72 800 q 233 989 160 947 q 394 1031 306 1031 q 568 993 496 1031 q 678 887 640 956 q 717 725 717 818 q 692 588 717 654 q 626 462 668 522 q 532 344 585 401 q 420 235 479 288 q 304 132 361 182 l 744 132 l 744 0 l 69 0 z "},"3":{"ha":822,"x_min":67,"x_max":739,"o":"m 408 -10 q 241 26 315 -10 q 121 126 167 63 q 67 275 75 190 l 208 301 q 242 206 217 246 q 308 144 267 165 q 407 122 349 122 q 509 144 469 122 q 567 203 549 165 q 586 292 586 242 q 526 427 586 385 q 338 469 465 469 l 301 469 l 301 600 l 339 600 q 509 636 450 600 q 568 750 568 672 q 526 858 568 817 q 404 899 483 899 q 317 880 356 899 q 253 824 278 861 q 219 726 228 786 l 78 756 q 181 957 93 883 q 410 1031 268 1031 q 576 997 507 1031 q 683 903 646 963 q 721 767 721 844 q 675 619 721 681 q 565 538 629 558 l 565 538 q 693 446 647 513 q 739 281 739 379 q 699 136 739 203 q 585 30 658 69 q 408 -10 511 -10 z "},"4":{"ha":899,"x_min":64,"x_max":851,"o":"m 567 0 l 567 224 l 64 224 l 64 343 l 531 1014 l 722 1014 l 722 361 l 851 361 l 851 224 l 722 224 l 722 0 l 567 0 m 246 361 l 574 361 l 574 853 l 246 361 z "},"5":{"ha":876,"x_min":103,"x_max":794,"o":"m 451 -10 q 271 28 344 -10 q 156 129 197 67 q 103 261 115 192 l 244 294 q 276 212 251 251 q 346 147 301 172 q 454 122 390 122 q 552 151 510 122 q 619 229 594 181 q 643 336 643 278 q 619 444 643 396 q 551 523 594 493 q 449 553 508 553 q 336 517 385 553 q 264 422 288 482 l 114 461 l 114 1014 l 725 1014 l 725 875 l 260 875 l 260 551 q 301 606 271 575 q 381 659 332 636 q 493 682 429 682 q 638 644 568 682 q 751 531 707 606 q 794 344 794 456 q 750 163 794 243 q 628 36 706 82 q 451 -10 550 -10 z "},"6":{"ha":892,"x_min":103,"x_max":806,"o":"m 469 -10 q 260 53 342 -10 q 141 227 179 117 q 103 478 103 338 q 126 693 103 593 q 197 869 150 793 q 310 988 243 944 q 467 1031 378 1031 q 626 994 560 1031 q 731 901 692 957 q 781 785 771 844 l 640 747 q 578 856 624 814 q 465 899 532 899 q 374 874 415 899 q 303 800 333 850 q 256 671 272 750 q 239 482 239 592 q 294 574 256 533 q 385 638 333 614 q 492 663 438 663 q 655 623 585 663 q 765 508 725 583 q 806 328 806 433 q 767 156 806 232 q 653 35 728 79 q 469 -10 578 -10 m 472 122 q 569 149 526 122 q 637 220 613 175 q 661 322 661 265 q 639 428 661 381 q 573 503 617 475 q 467 531 529 531 q 372 507 419 531 q 294 439 325 483 q 264 329 264 394 q 290 223 264 269 q 363 149 315 176 q 472 122 410 122 z "},"7":{"ha":778,"x_min":56,"x_max":725,"o":"m 179 0 l 569 879 l 56 879 l 56 1014 l 725 1014 l 725 896 l 339 0 l 179 0 z "},"8":{"ha":886,"x_min":85,"x_max":803,"o":"m 443 -10 q 253 28 333 -10 q 128 135 172 67 q 85 292 85 203 q 131 447 85 383 q 254 539 176 511 q 146 630 182 575 q 110 763 110 685 q 153 908 110 849 q 272 999 197 968 q 443 1031 347 1031 q 606 1002 531 1031 q 729 915 682 974 q 776 763 776 856 q 737 628 776 685 q 632 539 697 571 q 757 446 711 510 q 803 292 803 382 q 759 135 803 203 q 635 28 715 67 q 443 -10 554 -10 m 443 122 q 593 172 539 122 q 647 297 647 221 q 591 424 647 379 q 443 469 535 469 q 294 425 351 469 q 236 297 236 381 q 292 172 236 221 q 443 122 347 122 m 443 589 q 574 632 522 589 q 625 743 625 675 q 577 860 625 821 q 443 899 529 899 q 311 859 360 899 q 263 742 263 819 q 313 631 263 674 q 443 589 364 589 z "},"9":{"ha":900,"x_min":107,"x_max":810,"o":"m 443 1031 q 652 965 571 1031 q 772 788 733 900 q 810 535 810 675 q 767 258 810 382 q 642 63 724 135 q 442 -10 560 -10 q 277 27 346 -10 q 167 120 208 64 q 115 236 126 176 l 256 274 q 321 165 272 207 q 443 122 369 122 q 535 146 493 122 q 608 219 576 169 q 656 347 639 268 q 674 535 674 425 q 618 439 657 481 q 529 374 579 397 q 428 350 479 350 q 261 391 333 350 q 148 508 189 432 q 107 689 107 583 q 146 863 107 785 q 260 985 185 940 q 443 1031 335 1031 m 440 899 q 343 872 386 899 q 276 798 300 844 q 251 694 251 751 q 274 589 251 638 q 340 511 297 540 q 446 482 383 482 q 541 506 494 482 q 618 577 588 531 q 649 688 649 624 q 634 771 649 732 q 592 838 619 810 q 526 883 564 867 q 440 899 488 899 z "},"A":{"ha":968,"x_min":47,"x_max":922,"o":"m 576 965 l 922 0 l 756 0 l 447 881 l 521 881 l 213 0 l 47 0 l 393 965 l 576 965 m 232 326 l 728 326 l 769 197 l 192 197 l 232 326 z "},"Á":{"ha":968,"x_min":47,"x_max":922,"o":"m 576 965 l 922 0 l 756 0 l 447 881 l 521 881 l 213 0 l 47 0 l 393 965 l 576 965 m 232 326 l 728 326 l 769 197 l 192 197 l 232 326 m 628 1307 l 628 1172 l 321 1021 l 321 1138 l 628 1307 z "},"Ă":{"ha":968,"x_min":47,"x_max":922,"o":"m 576 965 l 922 0 l 756 0 l 447 881 l 521 881 l 213 0 l 47 0 l 393 965 l 576 965 m 232 326 l 728 326 l 769 197 l 192 197 l 232 326 m 485 1031 q 332 1085 388 1031 q 276 1225 276 1139 l 276 1254 l 367 1254 q 392 1181 367 1207 q 485 1154 417 1154 q 578 1181 553 1154 q 603 1254 603 1207 l 694 1254 l 694 1224 q 639 1084 694 1138 q 485 1031 583 1031 z "},"Â":{"ha":968,"x_min":47,"x_max":922,"o":"m 576 965 l 922 0 l 756 0 l 447 881 l 521 881 l 213 0 l 47 0 l 393 965 l 576 965 m 232 326 l 728 326 l 769 197 l 192 197 l 232 326 m 683 1021 l 485 1140 l 286 1021 l 286 1144 l 485 1260 l 683 1144 l 683 1021 z "},"Ä":{"ha":968,"x_min":47,"x_max":922,"o":"m 576 965 l 922 0 l 756 0 l 447 881 l 521 881 l 213 0 l 47 0 l 393 965 l 576 965 m 232 326 l 728 326 l 769 197 l 192 197 l 232 326 m 365 1063 q 306 1087 331 1063 q 282 1146 282 1111 q 306 1205 282 1181 q 365 1229 331 1229 q 424 1205 400 1229 q 449 1146 449 1181 q 424 1087 449 1111 q 365 1063 400 1063 m 604 1063 q 545 1087 569 1063 q 521 1146 521 1111 q 545 1205 521 1181 q 604 1229 569 1229 q 663 1205 639 1229 q 688 1146 688 1181 q 663 1087 688 1111 q 604 1063 639 1063 z "},"À":{"ha":968,"x_min":47,"x_max":922,"o":"m 576 965 l 922 0 l 756 0 l 447 881 l 521 881 l 213 0 l 47 0 l 393 965 l 576 965 m 232 326 l 728 326 l 769 197 l 192 197 l 232 326 m 321 1307 l 628 1138 l 628 1021 l 321 1172 l 321 1307 z "},"Ā":{"ha":968,"x_min":47,"x_max":922,"o":"m 576 965 l 922 0 l 756 0 l 447 881 l 521 881 l 213 0 l 47 0 l 393 965 l 576 965 m 232 326 l 728 326 l 769 197 l 192 197 l 232 326 m 231 1201 l 739 1201 l 739 1083 l 231 1083 l 231 1201 z "},"Ą":{"ha":968,"x_min":47,"x_max":943,"o":"m 881 81 l 922 0 l 854 -35 q 792 -79 810 -57 q 775 -126 775 -101 q 796 -173 775 -156 q 851 -190 817 -190 q 943 -171 893 -190 l 943 -272 q 890 -287 919 -282 q 831 -293 861 -293 q 744 -278 788 -293 q 674 -231 701 -264 q 646 -143 646 -199 q 663 -74 646 -107 q 718 -8 679 -40 q 822 54 757 25 l 881 81 m 576 965 l 922 0 l 756 0 l 447 881 l 521 881 l 213 0 l 47 0 l 393 965 l 576 965 m 232 326 l 728 326 l 769 197 l 192 197 l 232 326 z "},"Å":{"ha":968,"x_min":47,"x_max":922,"o":"m 576 965 l 922 0 l 756 0 l 447 881 l 521 881 l 213 0 l 47 0 l 393 965 l 576 965 m 232 326 l 728 326 l 769 197 l 192 197 l 232 326 m 642 1193 q 596 1083 642 1124 q 485 1042 550 1042 q 375 1083 421 1042 q 329 1193 329 1124 q 375 1305 329 1264 q 485 1346 421 1346 q 596 1305 550 1346 q 642 1193 642 1264 m 553 1194 q 533 1246 553 1226 q 485 1265 513 1265 q 438 1246 458 1265 q 418 1194 418 1226 q 438 1144 418 1164 q 485 1124 458 1124 q 533 1144 513 1124 q 553 1194 553 1164 z "},"Ã":{"ha":968,"x_min":47,"x_max":922,"o":"m 576 965 l 922 0 l 756 0 l 447 881 l 521 881 l 213 0 l 47 0 l 393 965 l 576 965 m 232 326 l 728 326 l 769 197 l 192 197 l 232 326 m 568 1043 q 505 1058 531 1043 q 457 1090 479 1074 q 407 1106 435 1106 q 368 1091 385 1106 q 347 1046 351 1076 l 258 1046 q 313 1168 269 1128 q 415 1208 356 1208 q 478 1193 453 1208 q 526 1163 504 1178 q 576 1147 549 1147 q 616 1161 600 1147 q 636 1206 632 1175 l 725 1206 q 672 1083 714 1124 q 568 1043 629 1043 z "},"Æ":{"ha":1279,"x_min":17,"x_max":1188,"o":"m 17 0 l 549 965 l 1188 965 l 1188 842 l 814 842 l 814 550 l 1146 550 l 1146 428 l 814 428 l 814 124 l 1188 124 l 1188 0 l 656 0 l 656 856 l 189 0 l 17 0 m 211 197 l 281 321 l 729 321 l 729 197 l 211 197 z "},"Ǽ":{"ha":1279,"x_min":17,"x_max":1188,"o":"m 17 0 l 549 965 l 1188 965 l 1188 842 l 814 842 l 814 550 l 1146 550 l 1146 428 l 814 428 l 814 124 l 1188 124 l 1188 0 l 656 0 l 656 856 l 189 0 l 17 0 m 211 197 l 281 321 l 729 321 l 729 197 l 211 197 m 1006 1306 l 1006 1171 l 699 1019 l 699 1136 l 1006 1306 z "},"B":{"ha":875,"x_min":104,"x_max":807,"o":"m 104 0 l 104 965 l 472 965 q 644 931 575 965 q 749 841 714 897 q 785 717 785 785 q 756 600 785 649 q 678 523 726 551 q 571 482 629 494 l 594 499 q 701 463 653 497 q 778 376 749 429 q 807 260 807 322 q 769 127 807 186 q 660 34 731 68 q 490 0 589 0 l 104 0 m 263 129 l 476 129 q 603 168 557 129 q 649 276 649 207 q 599 390 649 349 q 471 431 550 431 l 263 431 l 263 129 m 263 560 l 458 560 q 580 595 536 560 q 624 697 624 631 q 580 799 624 763 q 458 836 536 836 l 263 836 l 263 560 z "},"C":{"ha":1057,"x_min":51,"x_max":994,"o":"m 544 -10 q 353 26 443 -10 q 196 128 264 63 q 90 285 128 194 q 51 483 51 375 q 90 681 51 592 q 196 837 128 771 q 353 939 264 903 q 544 975 443 975 q 737 940 649 975 q 889 836 825 904 q 983 669 953 768 l 836 624 q 726 779 800 722 q 549 836 653 836 q 377 793 453 836 q 258 671 301 750 q 214 483 214 592 q 256 295 214 375 q 374 172 299 215 q 544 128 449 128 q 723 184 640 128 q 844 333 806 240 l 994 299 q 892 130 961 199 q 732 26 822 61 q 544 -10 642 -10 z "},"Ć":{"ha":1057,"x_min":51,"x_max":994,"o":"m 688 1318 l 688 1183 l 381 1032 l 381 1149 l 688 1318 m 544 -10 q 353 26 443 -10 q 196 128 264 63 q 90 285 128 194 q 51 483 51 375 q 90 681 51 592 q 196 837 128 771 q 353 939 264 903 q 544 975 443 975 q 737 940 649 975 q 889 836 825 904 q 983 669 953 768 l 836 624 q 726 779 800 722 q 549 836 653 836 q 377 793 453 836 q 258 671 301 750 q 214 483 214 592 q 256 295 214 375 q 374 172 299 215 q 544 128 449 128 q 723 184 640 128 q 844 333 806 240 l 994 299 q 892 130 961 199 q 732 26 822 61 q 544 -10 642 -10 z "},"Č":{"ha":1057,"x_min":51,"x_max":994,"o":"m 743 1271 l 743 1147 l 544 1032 l 346 1147 l 346 1271 l 544 1151 l 743 1271 m 544 -10 q 353 26 443 -10 q 196 128 264 63 q 90 285 128 194 q 51 483 51 375 q 90 681 51 592 q 196 837 128 771 q 353 939 264 903 q 544 975 443 975 q 737 940 649 975 q 889 836 825 904 q 983 669 953 768 l 836 624 q 726 779 800 722 q 549 836 653 836 q 377 793 453 836 q 258 671 301 750 q 214 483 214 592 q 256 295 214 375 q 374 172 299 215 q 544 128 449 128 q 723 184 640 128 q 844 333 806 240 l 994 299 q 892 130 961 199 q 732 26 822 61 q 544 -10 642 -10 z "},"Ç":{"ha":1057,"x_min":51,"x_max":994,"o":"m 593 -67 q 685 -83 644 -67 q 750 -132 726 -100 q 774 -212 774 -164 q 750 -294 774 -260 q 687 -346 726 -328 q 597 -364 647 -364 l 414 -364 l 414 -264 l 565 -264 q 622 -253 601 -264 q 643 -212 643 -243 q 622 -171 643 -181 q 565 -161 601 -161 l 489 -161 l 489 10 l 593 10 l 593 -67 m 544 -10 q 353 26 443 -10 q 196 128 264 63 q 90 285 128 194 q 51 483 51 375 q 90 681 51 592 q 196 837 128 771 q 353 939 264 903 q 544 975 443 975 q 737 940 649 975 q 889 836 825 904 q 983 669 953 768 l 836 624 q 726 779 800 722 q 549 836 653 836 q 377 793 453 836 q 258 671 301 750 q 214 483 214 592 q 256 295 214 375 q 374 172 299 215 q 544 128 449 128 q 723 184 640 128 q 844 333 806 240 l 994 299 q 892 130 961 199 q 732 26 822 61 q 544 -10 642 -10 z "},"Ċ":{"ha":1057,"x_min":51,"x_max":994,"o":"m 544 -10 q 353 26 443 -10 q 196 128 264 63 q 90 285 128 194 q 51 483 51 375 q 90 681 51 592 q 196 837 128 771 q 353 939 264 903 q 544 975 443 975 q 737 940 649 975 q 889 836 825 904 q 983 669 953 768 l 836 624 q 726 779 800 722 q 549 836 653 836 q 377 793 453 836 q 258 671 301 750 q 214 483 214 592 q 256 295 214 375 q 374 172 299 215 q 544 128 449 128 q 723 184 640 128 q 844 333 806 240 l 994 299 q 892 130 961 199 q 732 26 822 61 q 544 -10 642 -10 m 547 1074 q 488 1098 513 1074 q 464 1157 464 1122 q 488 1216 464 1192 q 547 1240 513 1240 q 606 1216 582 1240 q 631 1157 631 1192 q 606 1098 631 1122 q 547 1074 582 1074 z "},"D":{"ha":985,"x_min":104,"x_max":932,"o":"m 104 0 l 104 965 l 419 965 q 690 906 575 965 q 868 738 804 847 q 932 479 932 629 q 868 223 932 331 q 690 58 804 115 q 419 0 575 0 l 104 0 m 263 129 l 419 129 q 680 222 590 129 q 769 479 769 315 q 680 740 769 644 q 419 836 590 836 l 263 836 l 263 129 z "},"Ď":{"ha":985,"x_min":104,"x_max":932,"o":"m 104 0 l 104 965 l 419 965 q 690 906 575 965 q 868 738 804 847 q 932 479 932 629 q 868 223 932 331 q 690 58 804 115 q 419 0 575 0 l 104 0 m 263 129 l 419 129 q 680 222 590 129 q 769 479 769 315 q 680 740 769 644 q 419 836 590 836 l 263 836 l 263 129 m 692 1260 l 692 1136 l 493 1021 l 294 1136 l 294 1260 l 493 1140 l 692 1260 z "},"Đ":{"ha":1000,"x_min":13,"x_max":947,"o":"m 119 0 l 119 965 l 436 965 q 706 906 592 965 q 884 738 821 847 q 947 479 947 629 q 884 223 947 331 q 706 58 821 115 q 436 0 592 0 l 119 0 m 13 407 l 13 553 l 526 553 l 526 407 l 13 407 m 279 121 l 436 121 q 695 218 606 121 q 785 479 785 315 q 695 741 785 644 q 436 838 606 838 l 279 838 l 279 121 z "},"Ð":{"ha":1000,"x_min":13,"x_max":947,"o":"m 119 0 l 119 965 l 436 965 q 706 906 592 965 q 884 738 821 847 q 947 479 947 629 q 884 223 947 331 q 706 58 821 115 q 436 0 592 0 l 119 0 m 13 407 l 13 553 l 526 553 l 526 407 l 13 407 m 279 121 l 436 121 q 695 218 606 121 q 785 479 785 315 q 695 741 785 644 q 436 838 606 838 l 279 838 l 279 121 z "},"E":{"ha":728,"x_min":104,"x_max":638,"o":"m 638 836 l 263 836 l 263 554 l 596 554 l 596 425 l 263 425 l 263 129 l 638 129 l 638 0 l 104 0 l 104 965 l 638 965 l 638 836 z "},"É":{"ha":728,"x_min":104,"x_max":638,"o":"m 638 836 l 263 836 l 263 554 l 596 554 l 596 425 l 263 425 l 263 129 l 638 129 l 638 0 l 104 0 l 104 965 l 638 965 l 638 836 m 514 1307 l 514 1172 l 207 1021 l 207 1138 l 514 1307 z "},"Ĕ":{"ha":728,"x_min":104,"x_max":638,"o":"m 638 836 l 263 836 l 263 554 l 596 554 l 596 425 l 263 425 l 263 129 l 638 129 l 638 0 l 104 0 l 104 965 l 638 965 l 638 836 m 371 1031 q 218 1085 274 1031 q 163 1225 163 1139 l 163 1254 l 253 1254 q 278 1181 253 1207 q 371 1154 303 1154 q 464 1181 439 1154 q 489 1254 489 1207 l 581 1254 l 581 1224 q 525 1084 581 1138 q 371 1031 469 1031 z "},"Ě":{"ha":728,"x_min":104,"x_max":638,"o":"m 638 836 l 263 836 l 263 554 l 596 554 l 596 425 l 263 425 l 263 129 l 638 129 l 638 0 l 104 0 l 104 965 l 638 965 l 638 836 m 569 1260 l 569 1136 l 371 1021 l 172 1136 l 172 1260 l 371 1140 l 569 1260 z "},"Ê":{"ha":728,"x_min":104,"x_max":638,"o":"m 638 836 l 263 836 l 263 554 l 596 554 l 596 425 l 263 425 l 263 129 l 638 129 l 638 0 l 104 0 l 104 965 l 638 965 l 638 836 m 569 1021 l 371 1140 l 172 1021 l 172 1144 l 371 1260 l 569 1144 l 569 1021 z "},"Ë":{"ha":728,"x_min":104,"x_max":638,"o":"m 638 836 l 263 836 l 263 554 l 596 554 l 596 425 l 263 425 l 263 129 l 638 129 l 638 0 l 104 0 l 104 965 l 638 965 l 638 836 m 251 1063 q 192 1087 217 1063 q 168 1146 168 1111 q 192 1205 168 1181 q 251 1229 217 1229 q 310 1205 286 1229 q 335 1146 335 1181 q 310 1087 335 1111 q 251 1063 286 1063 m 490 1063 q 431 1087 456 1063 q 407 1146 407 1111 q 431 1205 407 1181 q 490 1229 456 1229 q 549 1205 525 1229 q 574 1146 574 1181 q 549 1087 574 1111 q 490 1063 525 1063 z "},"Ė":{"ha":728,"x_min":104,"x_max":638,"o":"m 638 836 l 263 836 l 263 554 l 596 554 l 596 425 l 263 425 l 263 129 l 638 129 l 638 0 l 104 0 l 104 965 l 638 965 l 638 836 m 371 1063 q 312 1087 336 1063 q 288 1146 288 1111 q 312 1205 288 1181 q 371 1229 336 1229 q 430 1205 406 1229 q 454 1146 454 1181 q 430 1087 454 1111 q 371 1063 406 1063 z "},"È":{"ha":728,"x_min":104,"x_max":638,"o":"m 638 836 l 263 836 l 263 554 l 596 554 l 596 425 l 263 425 l 263 129 l 638 129 l 638 0 l 104 0 l 104 965 l 638 965 l 638 836 m 207 1307 l 514 1138 l 514 1021 l 207 1172 l 207 1307 z "},"Ē":{"ha":728,"x_min":104,"x_max":638,"o":"m 638 836 l 263 836 l 263 554 l 596 554 l 596 425 l 263 425 l 263 129 l 638 129 l 638 0 l 104 0 l 104 965 l 638 965 l 638 836 m 117 1201 l 625 1201 l 625 1083 l 117 1083 l 117 1201 z "},"Ę":{"ha":728,"x_min":104,"x_max":658,"o":"m 638 836 l 263 836 l 263 554 l 596 554 l 596 425 l 263 425 l 263 129 l 638 129 l 638 0 l 104 0 l 104 965 l 638 965 l 638 836 m 596 81 l 638 0 l 569 -35 q 508 -79 525 -57 q 490 -126 490 -101 q 511 -173 490 -156 q 567 -190 532 -190 q 658 -171 608 -190 l 658 -272 q 606 -287 635 -282 q 546 -293 576 -293 q 460 -278 503 -293 q 389 -231 417 -264 q 361 -143 361 -199 q 378 -74 361 -107 q 433 -8 394 -40 q 538 54 472 25 l 596 81 z "},"Ẽ":{"ha":728,"x_min":104,"x_max":638,"o":"m 638 836 l 263 836 l 263 554 l 596 554 l 596 425 l 263 425 l 263 129 l 638 129 l 638 0 l 104 0 l 104 965 l 638 965 l 638 836 m 454 1043 q 391 1058 417 1043 q 343 1090 365 1074 q 293 1106 321 1106 q 254 1091 271 1106 q 233 1046 238 1076 l 144 1046 q 199 1168 156 1128 q 301 1208 242 1208 q 365 1193 339 1208 q 413 1163 390 1178 q 463 1147 435 1147 q 502 1161 486 1147 q 522 1206 518 1175 l 611 1206 q 558 1083 600 1124 q 454 1043 515 1043 z "},"F":{"ha":715,"x_min":104,"x_max":672,"o":"m 104 965 l 672 965 l 672 836 l 263 836 l 263 551 l 582 551 l 582 422 l 263 422 l 263 0 l 104 0 l 104 965 z "},"G":{"ha":1078,"x_min":51,"x_max":1026,"o":"m 817 642 q 775 724 801 688 q 713 785 749 760 q 633 823 676 810 q 540 836 590 836 q 372 792 446 836 q 256 668 299 747 q 214 483 214 589 q 252 298 214 378 q 365 173 290 218 q 547 128 440 128 q 669 154 614 128 q 764 224 724 181 q 827 317 804 267 q 854 415 850 368 l 508 415 l 508 544 l 1026 544 l 1026 0 l 882 0 l 882 268 l 896 282 q 882 224 896 260 q 841 147 868 188 q 771 72 814 107 q 670 13 728 36 q 539 -10 613 -10 q 352 26 440 -10 q 197 128 264 63 q 90 285 129 194 q 51 483 51 375 q 90 682 51 592 q 196 838 128 772 q 353 940 264 904 q 544 975 443 975 q 815 902 701 975 q 975 699 928 829 l 817 642 z "},"Ğ":{"ha":1078,"x_min":51,"x_max":1026,"o":"m 817 642 q 775 724 801 688 q 713 785 749 760 q 633 823 676 810 q 540 836 590 836 q 372 792 446 836 q 256 668 299 747 q 214 483 214 589 q 252 298 214 378 q 365 173 290 218 q 547 128 440 128 q 669 154 614 128 q 764 224 724 181 q 827 317 804 267 q 854 415 850 368 l 508 415 l 508 544 l 1026 544 l 1026 0 l 882 0 l 882 268 l 896 282 q 882 224 896 260 q 841 147 868 188 q 771 72 814 107 q 670 13 728 36 q 539 -10 613 -10 q 352 26 440 -10 q 197 128 264 63 q 90 285 129 194 q 51 483 51 375 q 90 682 51 592 q 196 838 128 772 q 353 940 264 904 q 544 975 443 975 q 815 902 701 975 q 975 699 928 829 l 817 642 m 536 1031 q 383 1085 439 1031 q 328 1225 328 1139 l 328 1254 l 418 1254 q 443 1181 418 1207 q 536 1154 468 1154 q 629 1181 604 1154 q 654 1254 654 1207 l 746 1254 l 746 1224 q 690 1084 746 1138 q 536 1031 635 1031 z "},"Ģ":{"ha":1078,"x_min":51,"x_max":1026,"o":"m 446 -376 l 446 -304 q 514 -294 483 -307 q 563 -260 544 -281 q 583 -224 582 -239 q 536 -239 568 -239 q 476 -219 503 -239 q 450 -157 450 -200 q 479 -88 450 -114 q 550 -62 508 -62 q 608 -81 583 -62 q 646 -126 632 -99 q 660 -185 660 -154 q 629 -292 660 -247 q 549 -359 599 -337 q 446 -376 500 -381 m 817 642 q 775 724 801 688 q 713 785 749 760 q 633 823 676 810 q 540 836 590 836 q 372 792 446 836 q 256 668 299 747 q 214 483 214 589 q 252 298 214 378 q 365 173 290 218 q 547 128 440 128 q 669 154 614 128 q 764 224 724 181 q 827 317 804 267 q 854 415 850 368 l 508 415 l 508 544 l 1026 544 l 1026 0 l 882 0 l 882 268 l 896 282 q 882 224 896 260 q 841 147 868 188 q 771 72 814 107 q 670 13 728 36 q 539 -10 613 -10 q 352 26 440 -10 q 197 128 264 63 q 90 285 129 194 q 51 483 51 375 q 90 682 51 592 q 196 838 128 772 q 353 940 264 904 q 544 975 443 975 q 815 902 701 975 q 975 699 928 829 l 817 642 z "},"Ġ":{"ha":1078,"x_min":51,"x_max":1026,"o":"m 817 642 q 775 724 801 688 q 713 785 749 760 q 633 823 676 810 q 540 836 590 836 q 372 792 446 836 q 256 668 299 747 q 214 483 214 589 q 252 298 214 378 q 365 173 290 218 q 547 128 440 128 q 669 154 614 128 q 764 224 724 181 q 827 317 804 267 q 854 415 850 368 l 508 415 l 508 544 l 1026 544 l 1026 0 l 882 0 l 882 268 l 896 282 q 882 224 896 260 q 841 147 868 188 q 771 72 814 107 q 670 13 728 36 q 539 -10 613 -10 q 352 26 440 -10 q 197 128 264 63 q 90 285 129 194 q 51 483 51 375 q 90 682 51 592 q 196 838 128 772 q 353 940 264 904 q 544 975 443 975 q 815 902 701 975 q 975 699 928 829 l 817 642 m 536 1063 q 477 1087 501 1063 q 453 1146 453 1111 q 477 1205 453 1181 q 536 1229 501 1229 q 595 1205 571 1229 q 619 1146 619 1181 q 595 1087 619 1111 q 536 1063 571 1063 z "},"H":{"ha":979,"x_min":104,"x_max":875,"o":"m 104 965 l 263 965 l 263 0 l 104 0 l 104 965 m 717 965 l 875 965 l 875 0 l 717 0 l 717 965 m 235 551 l 754 551 l 754 422 l 235 422 l 235 551 z "},"Ħ":{"ha":1060,"x_min":56,"x_max":1004,"o":"m 144 965 l 303 965 l 303 0 l 144 0 l 144 965 m 757 965 l 915 965 l 915 0 l 757 0 l 757 965 m 275 551 l 794 551 l 794 422 l 275 422 l 275 551 m 56 868 l 1004 868 l 1004 739 l 56 739 l 56 868 z "},"I":{"ha":558,"x_min":90,"x_max":468,"o":"m 90 0 l 90 129 l 200 129 l 200 836 l 90 836 l 90 965 l 468 965 l 468 836 l 358 836 l 358 129 l 468 129 l 468 0 l 90 0 z "},"Í":{"ha":558,"x_min":90,"x_max":468,"o":"m 90 0 l 90 129 l 200 129 l 200 836 l 90 836 l 90 965 l 468 965 l 468 836 l 358 836 l 358 129 l 468 129 l 468 0 l 90 0 m 422 1307 l 422 1172 l 115 1021 l 115 1138 l 422 1307 z "},"Ĭ":{"ha":558,"x_min":71,"x_max":489,"o":"m 90 0 l 90 129 l 200 129 l 200 836 l 90 836 l 90 965 l 468 965 l 468 836 l 358 836 l 358 129 l 468 129 l 468 0 l 90 0 m 279 1031 q 126 1085 182 1031 q 71 1225 71 1139 l 71 1254 l 161 1254 q 186 1181 161 1207 q 279 1154 211 1154 q 372 1181 347 1154 q 397 1254 397 1207 l 489 1254 l 489 1224 q 433 1084 489 1138 q 279 1031 378 1031 z "},"Î":{"ha":558,"x_min":81,"x_max":478,"o":"m 90 0 l 90 129 l 200 129 l 200 836 l 90 836 l 90 965 l 468 965 l 468 836 l 358 836 l 358 129 l 468 129 l 468 0 l 90 0 m 478 1021 l 279 1140 l 81 1021 l 81 1144 l 279 1260 l 478 1144 l 478 1021 z "},"Ï":{"ha":558,"x_min":76,"x_max":482,"o":"m 90 0 l 90 129 l 200 129 l 200 836 l 90 836 l 90 965 l 468 965 l 468 836 l 358 836 l 358 129 l 468 129 l 468 0 l 90 0 m 160 1063 q 101 1087 125 1063 q 76 1146 76 1111 q 101 1205 76 1181 q 160 1229 125 1229 q 219 1205 194 1229 q 243 1146 243 1181 q 219 1087 243 1111 q 160 1063 194 1063 m 399 1063 q 340 1087 364 1063 q 315 1146 315 1111 q 340 1205 315 1181 q 399 1229 364 1229 q 458 1205 433 1229 q 482 1146 482 1181 q 458 1087 482 1111 q 399 1063 433 1063 z "},"İ":{"ha":558,"x_min":90,"x_max":468,"o":"m 90 0 l 90 129 l 200 129 l 200 836 l 90 836 l 90 965 l 468 965 l 468 836 l 358 836 l 358 129 l 468 129 l 468 0 l 90 0 m 279 1063 q 220 1087 244 1063 q 196 1146 196 1111 q 220 1205 196 1181 q 279 1229 244 1229 q 338 1205 314 1229 q 363 1146 363 1181 q 338 1087 363 1111 q 279 1063 314 1063 z "},"Ì":{"ha":558,"x_min":90,"x_max":468,"o":"m 90 0 l 90 129 l 200 129 l 200 836 l 90 836 l 90 965 l 468 965 l 468 836 l 358 836 l 358 129 l 468 129 l 468 0 l 90 0 m 115 1307 l 422 1138 l 422 1021 l 115 1172 l 115 1307 z "},"Ī":{"ha":558,"x_min":25,"x_max":533,"o":"m 90 0 l 90 129 l 200 129 l 200 836 l 90 836 l 90 965 l 468 965 l 468 836 l 358 836 l 358 129 l 468 129 l 468 0 l 90 0 m 25 1201 l 533 1201 l 533 1083 l 25 1083 l 25 1201 z "},"Į":{"ha":558,"x_min":82,"x_max":468,"o":"m 90 0 l 90 129 l 200 129 l 200 836 l 90 836 l 90 965 l 468 965 l 468 836 l 358 836 l 358 129 l 468 129 l 468 0 l 90 0 m 317 82 l 358 1 l 290 -33 q 228 -78 246 -56 q 211 -125 211 -100 q 232 -172 211 -154 q 288 -189 253 -189 q 379 -169 329 -189 l 379 -271 q 326 -286 356 -281 q 267 -292 297 -292 q 181 -277 224 -292 q 110 -230 138 -262 q 82 -142 82 -197 q 99 -72 82 -106 q 154 -6 115 -39 q 258 56 193 26 l 317 82 z "},"Ĩ":{"ha":558,"x_min":53,"x_max":519,"o":"m 90 0 l 90 129 l 200 129 l 200 836 l 90 836 l 90 965 l 468 965 l 468 836 l 358 836 l 358 129 l 468 129 l 468 0 l 90 0 m 363 1043 q 299 1058 325 1043 q 251 1090 274 1074 q 201 1106 229 1106 q 163 1091 179 1106 q 142 1046 146 1076 l 53 1046 q 107 1168 64 1128 q 210 1208 150 1208 q 273 1193 247 1208 q 321 1163 299 1178 q 371 1147 343 1147 q 410 1161 394 1147 q 431 1206 426 1175 l 519 1206 q 466 1083 508 1124 q 363 1043 424 1043 z "},"J":{"ha":783,"x_min":61,"x_max":631,"o":"m 346 -10 q 234 10 283 -10 q 149 65 185 31 q 91 144 113 100 q 61 236 69 189 l 211 283 q 260 171 225 211 q 346 131 296 131 q 416 149 389 131 q 457 198 443 167 q 471 269 471 229 l 471 965 l 631 965 l 631 269 q 594 119 631 182 q 494 24 558 57 q 346 -10 429 -10 z "},"K":{"ha":874,"x_min":104,"x_max":846,"o":"m 104 0 l 104 965 l 263 965 l 263 561 q 458 610 375 561 q 590 750 542 660 q 646 965 639 840 l 815 965 q 785 815 814 890 q 711 674 757 739 q 611 561 665 608 q 503 496 557 514 q 665 401 590 468 q 788 232 739 333 q 846 0 836 131 l 676 0 q 613 233 668 138 q 469 378 558 328 q 263 428 379 428 l 263 0 l 104 0 z "},"Ķ":{"ha":882,"x_min":104,"x_max":846,"o":"m 371 -376 l 371 -304 q 439 -294 408 -307 q 488 -260 469 -281 q 508 -224 507 -239 q 461 -239 493 -239 q 401 -219 428 -239 q 375 -157 375 -200 q 404 -88 375 -114 q 475 -62 433 -62 q 533 -81 508 -62 q 571 -126 557 -99 q 585 -185 585 -154 q 554 -292 585 -247 q 474 -359 524 -337 q 371 -376 425 -381 m 104 0 l 104 965 l 263 965 l 263 561 q 458 610 375 561 q 590 750 542 660 q 646 965 639 840 l 815 965 q 785 815 814 890 q 711 674 757 739 q 611 561 665 608 q 503 496 557 514 q 665 401 590 468 q 788 232 739 333 q 846 0 836 131 l 676 0 q 613 233 668 138 q 469 378 558 328 q 263 428 379 428 l 263 0 l 104 0 z "},"L":{"ha":617,"x_min":104,"x_max":589,"o":"m 263 965 l 263 128 l 589 128 l 589 0 l 104 0 l 104 965 l 263 965 z "},"Ĺ":{"ha":617,"x_min":22,"x_max":589,"o":"m 263 965 l 263 128 l 589 128 l 589 0 l 104 0 l 104 965 l 263 965 m 329 1307 l 329 1172 l 22 1021 l 22 1138 l 329 1307 z "},"Ľ":{"ha":617,"x_min":104,"x_max":629,"o":"m 263 965 l 263 128 l 589 128 l 589 0 l 104 0 l 104 965 l 263 965 m 415 653 l 415 725 q 483 735 453 722 q 533 769 514 749 q 553 806 551 790 q 506 790 538 790 q 446 810 472 790 q 419 872 419 829 q 449 941 419 915 q 519 967 478 967 q 577 949 553 967 q 615 903 601 931 q 629 844 629 875 q 599 737 629 782 q 519 670 568 692 q 415 653 469 649 z "},"Ļ":{"ha":617,"x_min":104,"x_max":589,"o":"m 239 -376 l 239 -304 q 307 -294 276 -307 q 356 -260 338 -281 q 376 -224 375 -239 q 329 -239 361 -239 q 269 -219 296 -239 q 243 -157 243 -200 q 272 -88 243 -114 q 343 -62 301 -62 q 401 -81 376 -62 q 439 -126 425 -99 q 453 -185 453 -154 q 422 -292 453 -247 q 342 -359 392 -337 q 239 -376 293 -381 m 263 965 l 263 128 l 589 128 l 589 0 l 104 0 l 104 965 l 263 965 z "},"Ł":{"ha":617,"x_min":13,"x_max":604,"o":"m 13 490 l 407 619 l 407 499 l 13 371 l 13 490 m 279 965 l 279 121 l 604 121 l 604 0 l 119 0 l 119 965 l 279 965 z "},"M":{"ha":1225,"x_min":104,"x_max":1121,"o":"m 104 965 l 275 965 l 642 144 l 585 144 l 951 965 l 1121 965 l 1121 0 l 963 0 l 963 811 l 1026 804 l 668 0 l 558 0 l 199 804 l 263 811 l 263 0 l 104 0 l 104 965 z "},"N":{"ha":1001,"x_min":104,"x_max":897,"o":"m 897 965 l 897 0 l 739 0 l 263 721 l 263 0 l 104 0 l 104 965 l 263 965 l 739 246 l 739 965 l 897 965 z "},"Ń":{"ha":1001,"x_min":104,"x_max":897,"o":"m 897 965 l 897 0 l 739 0 l 263 721 l 263 0 l 104 0 l 104 965 l 263 965 l 739 246 l 739 965 l 897 965 m 644 1307 l 644 1172 l 338 1021 l 338 1138 l 644 1307 z "},"Ň":{"ha":1001,"x_min":104,"x_max":897,"o":"m 897 965 l 897 0 l 739 0 l 263 721 l 263 0 l 104 0 l 104 965 l 263 965 l 739 246 l 739 965 l 897 965 m 700 1260 l 700 1136 l 501 1021 l 303 1136 l 303 1260 l 501 1140 l 700 1260 z "},"Ņ":{"ha":1001,"x_min":104,"x_max":897,"o":"m 408 -376 l 408 -304 q 476 -294 446 -307 q 526 -260 507 -281 q 546 -224 544 -239 q 499 -239 531 -239 q 439 -219 465 -239 q 413 -157 413 -200 q 442 -88 413 -114 q 513 -62 471 -62 q 570 -81 546 -62 q 608 -126 594 -99 q 622 -185 622 -154 q 592 -292 622 -247 q 512 -359 561 -337 q 408 -376 463 -381 m 897 965 l 897 0 l 739 0 l 263 721 l 263 0 l 104 0 l 104 965 l 263 965 l 739 246 l 739 965 l 897 965 z "},"Ñ":{"ha":1001,"x_min":104,"x_max":897,"o":"m 897 965 l 897 0 l 739 0 l 263 721 l 263 0 l 104 0 l 104 965 l 263 965 l 739 246 l 739 965 l 897 965 m 585 1043 q 522 1058 547 1043 q 474 1090 496 1074 q 424 1106 451 1106 q 385 1091 401 1106 q 364 1046 368 1076 l 275 1046 q 329 1168 286 1128 q 432 1208 372 1208 q 495 1193 469 1208 q 543 1163 521 1178 q 593 1147 565 1147 q 633 1161 617 1147 q 653 1206 649 1175 l 742 1206 q 688 1083 731 1124 q 585 1043 646 1043 z "},"O":{"ha":1089,"x_min":51,"x_max":1038,"o":"m 544 -10 q 353 26 443 -10 q 196 128 264 63 q 90 285 128 194 q 51 483 51 375 q 90 681 51 592 q 196 837 128 771 q 353 939 264 903 q 544 975 443 975 q 737 939 647 975 q 894 837 826 903 q 999 681 961 771 q 1038 483 1038 592 q 999 285 1038 375 q 894 128 961 194 q 737 26 826 63 q 544 -10 647 -10 m 544 128 q 715 172 640 128 q 832 295 789 215 q 875 483 875 375 q 832 671 875 592 q 715 793 789 750 q 544 836 640 836 q 374 793 449 836 q 256 671 299 750 q 214 483 214 592 q 256 295 214 375 q 374 172 299 215 q 544 128 449 128 z "},"Ó":{"ha":1089,"x_min":51,"x_max":1038,"o":"m 544 -10 q 353 26 443 -10 q 196 128 264 63 q 90 285 128 194 q 51 483 51 375 q 90 681 51 592 q 196 837 128 771 q 353 939 264 903 q 544 975 443 975 q 737 939 647 975 q 894 837 826 903 q 999 681 961 771 q 1038 483 1038 592 q 999 285 1038 375 q 894 128 961 194 q 737 26 826 63 q 544 -10 647 -10 m 544 128 q 715 172 640 128 q 832 295 789 215 q 875 483 875 375 q 832 671 875 592 q 715 793 789 750 q 544 836 640 836 q 374 793 449 836 q 256 671 299 750 q 214 483 214 592 q 256 295 214 375 q 374 172 299 215 q 544 128 449 128 m 688 1307 l 688 1172 l 381 1021 l 381 1138 l 688 1307 z "},"Ŏ":{"ha":1089,"x_min":51,"x_max":1038,"o":"m 544 -10 q 353 26 443 -10 q 196 128 264 63 q 90 285 128 194 q 51 483 51 375 q 90 681 51 592 q 196 837 128 771 q 353 939 264 903 q 544 975 443 975 q 737 939 647 975 q 894 837 826 903 q 999 681 961 771 q 1038 483 1038 592 q 999 285 1038 375 q 894 128 961 194 q 737 26 826 63 q 544 -10 647 -10 m 544 128 q 715 172 640 128 q 832 295 789 215 q 875 483 875 375 q 832 671 875 592 q 715 793 789 750 q 544 836 640 836 q 374 793 449 836 q 256 671 299 750 q 214 483 214 592 q 256 295 214 375 q 374 172 299 215 q 544 128 449 128 m 544 1031 q 392 1085 447 1031 q 336 1225 336 1139 l 336 1254 l 426 1254 q 451 1181 426 1207 q 544 1154 476 1154 q 638 1181 613 1154 q 663 1254 663 1207 l 754 1254 l 754 1224 q 699 1084 754 1138 q 544 1031 643 1031 z "},"Ô":{"ha":1089,"x_min":51,"x_max":1038,"o":"m 544 -10 q 353 26 443 -10 q 196 128 264 63 q 90 285 128 194 q 51 483 51 375 q 90 681 51 592 q 196 837 128 771 q 353 939 264 903 q 544 975 443 975 q 737 939 647 975 q 894 837 826 903 q 999 681 961 771 q 1038 483 1038 592 q 999 285 1038 375 q 894 128 961 194 q 737 26 826 63 q 544 -10 647 -10 m 544 128 q 715 172 640 128 q 832 295 789 215 q 875 483 875 375 q 832 671 875 592 q 715 793 789 750 q 544 836 640 836 q 374 793 449 836 q 256 671 299 750 q 214 483 214 592 q 256 295 214 375 q 374 172 299 215 q 544 128 449 128 m 743 1021 l 544 1140 l 346 1021 l 346 1144 l 544 1260 l 743 1144 l 743 1021 z "},"Ö":{"ha":1089,"x_min":51,"x_max":1038,"o":"m 544 -10 q 353 26 443 -10 q 196 128 264 63 q 90 285 128 194 q 51 483 51 375 q 90 681 51 592 q 196 837 128 771 q 353 939 264 903 q 544 975 443 975 q 737 939 647 975 q 894 837 826 903 q 999 681 961 771 q 1038 483 1038 592 q 999 285 1038 375 q 894 128 961 194 q 737 26 826 63 q 544 -10 647 -10 m 544 128 q 715 172 640 128 q 832 295 789 215 q 875 483 875 375 q 832 671 875 592 q 715 793 789 750 q 544 836 640 836 q 374 793 449 836 q 256 671 299 750 q 214 483 214 592 q 256 295 214 375 q 374 172 299 215 q 544 128 449 128 m 425 1063 q 366 1087 390 1063 q 342 1146 342 1111 q 366 1205 342 1181 q 425 1229 390 1229 q 484 1205 460 1229 q 508 1146 508 1181 q 484 1087 508 1111 q 425 1063 460 1063 m 664 1063 q 605 1087 629 1063 q 581 1146 581 1111 q 605 1205 581 1181 q 664 1229 629 1229 q 723 1205 699 1229 q 747 1146 747 1181 q 723 1087 747 1111 q 664 1063 699 1063 z "},"Ò":{"ha":1089,"x_min":51,"x_max":1038,"o":"m 544 -10 q 353 26 443 -10 q 196 128 264 63 q 90 285 128 194 q 51 483 51 375 q 90 681 51 592 q 196 837 128 771 q 353 939 264 903 q 544 975 443 975 q 737 939 647 975 q 894 837 826 903 q 999 681 961 771 q 1038 483 1038 592 q 999 285 1038 375 q 894 128 961 194 q 737 26 826 63 q 544 -10 647 -10 m 544 128 q 715 172 640 128 q 832 295 789 215 q 875 483 875 375 q 832 671 875 592 q 715 793 789 750 q 544 836 640 836 q 374 793 449 836 q 256 671 299 750 q 214 483 214 592 q 256 295 214 375 q 374 172 299 215 q 544 128 449 128 m 381 1307 l 688 1138 l 688 1021 l 381 1172 l 381 1307 z "},"Ő":{"ha":1089,"x_min":51,"x_max":1038,"o":"m 544 -10 q 353 26 443 -10 q 196 128 264 63 q 90 285 128 194 q 51 483 51 375 q 90 681 51 592 q 196 837 128 771 q 353 939 264 903 q 544 975 443 975 q 737 939 647 975 q 894 837 826 903 q 999 681 961 771 q 1038 483 1038 592 q 999 285 1038 375 q 894 128 961 194 q 737 26 826 63 q 544 -10 647 -10 m 544 128 q 715 172 640 128 q 832 295 789 215 q 875 483 875 375 q 832 671 875 592 q 715 793 789 750 q 544 836 640 836 q 374 793 449 836 q 256 671 299 750 q 214 483 214 592 q 256 295 214 375 q 374 172 299 215 q 544 128 449 128 m 600 1272 l 469 1036 l 367 1036 l 463 1272 l 600 1272 m 831 1272 l 692 1036 l 589 1036 l 693 1272 l 831 1272 z "},"Ō":{"ha":1089,"x_min":51,"x_max":1038,"o":"m 544 -10 q 353 26 443 -10 q 196 128 264 63 q 90 285 128 194 q 51 483 51 375 q 90 681 51 592 q 196 837 128 771 q 353 939 264 903 q 544 975 443 975 q 737 939 647 975 q 894 837 826 903 q 999 681 961 771 q 1038 483 1038 592 q 999 285 1038 375 q 894 128 961 194 q 737 26 826 63 q 544 -10 647 -10 m 544 128 q 715 172 640 128 q 832 295 789 215 q 875 483 875 375 q 832 671 875 592 q 715 793 789 750 q 544 836 640 836 q 374 793 449 836 q 256 671 299 750 q 214 483 214 592 q 256 295 214 375 q 374 172 299 215 q 544 128 449 128 m 290 1201 l 799 1201 l 799 1083 l 290 1083 l 290 1201 z "},"Ø":{"ha":1089,"x_min":36,"x_max":1053,"o":"m 926 965 l 1053 965 l 163 0 l 36 0 l 926 965 m 544 -10 q 353 26 443 -10 q 196 128 264 63 q 90 285 128 194 q 51 483 51 375 q 90 681 51 592 q 196 837 128 771 q 353 939 264 903 q 544 975 443 975 q 737 939 647 975 q 894 837 826 903 q 999 681 961 771 q 1038 483 1038 592 q 999 285 1038 375 q 894 128 961 194 q 737 26 826 63 q 544 -10 647 -10 m 544 128 q 715 172 640 128 q 832 295 789 215 q 875 483 875 375 q 832 671 875 592 q 715 793 789 750 q 544 836 640 836 q 374 793 449 836 q 256 671 299 750 q 214 483 214 592 q 256 295 214 375 q 374 172 299 215 q 544 128 449 128 z "},"Õ":{"ha":1089,"x_min":51,"x_max":1038,"o":"m 544 -10 q 353 26 443 -10 q 196 128 264 63 q 90 285 128 194 q 51 483 51 375 q 90 681 51 592 q 196 837 128 771 q 353 939 264 903 q 544 975 443 975 q 737 939 647 975 q 894 837 826 903 q 999 681 961 771 q 1038 483 1038 592 q 999 285 1038 375 q 894 128 961 194 q 737 26 826 63 q 544 -10 647 -10 m 544 128 q 715 172 640 128 q 832 295 789 215 q 875 483 875 375 q 832 671 875 592 q 715 793 789 750 q 544 836 640 836 q 374 793 449 836 q 256 671 299 750 q 214 483 214 592 q 256 295 214 375 q 374 172 299 215 q 544 128 449 128 m 628 1043 q 565 1058 590 1043 q 517 1090 539 1074 q 467 1106 494 1106 q 428 1091 444 1106 q 407 1046 411 1076 l 318 1046 q 372 1168 329 1128 q 475 1208 415 1208 q 538 1193 513 1208 q 586 1163 564 1178 q 636 1147 608 1147 q 676 1161 660 1147 q 696 1206 692 1175 l 785 1206 q 731 1083 774 1124 q 628 1043 689 1043 z "},"Œ":{"ha":1499,"x_min":51,"x_max":1408,"o":"m 1033 842 l 1033 549 l 1367 549 l 1367 426 l 1033 426 l 1033 124 l 1408 124 l 1408 0 l 875 0 l 875 154 q 728 31 815 72 q 532 -10 640 -10 q 348 26 435 -10 q 194 128 261 63 q 90 285 128 194 q 51 483 51 375 q 90 682 51 592 q 194 838 128 772 q 348 940 261 904 q 531 975 435 975 q 728 936 640 975 q 875 818 815 897 l 875 965 l 1408 965 l 1408 842 l 1033 842 m 214 483 q 256 299 214 378 q 374 177 299 221 q 544 133 449 133 q 715 177 640 133 q 832 299 789 221 q 875 483 875 378 q 832 667 875 589 q 715 788 789 744 q 544 831 640 831 q 374 788 449 831 q 256 667 299 744 q 214 483 214 589 z "},"P":{"ha":826,"x_min":104,"x_max":779,"o":"m 104 0 l 104 965 l 438 965 q 628 926 553 965 q 742 822 704 888 q 779 678 779 757 q 746 544 779 610 q 638 435 713 478 q 438 392 564 392 l 263 392 l 263 0 l 104 0 m 263 521 l 438 521 q 574 563 531 521 q 617 678 617 606 q 574 794 617 753 q 438 836 531 836 l 263 836 l 263 521 z "},"Þ":{"ha":826,"x_min":104,"x_max":779,"o":"m 104 0 l 104 965 l 261 965 l 261 765 l 438 765 q 628 726 553 765 q 742 622 704 688 q 779 478 779 557 q 746 344 779 410 q 638 235 713 278 q 438 192 564 192 l 263 192 l 263 0 l 104 0 m 263 315 l 438 315 q 574 360 531 315 q 617 478 617 406 q 574 597 617 551 q 438 642 531 642 l 263 642 l 263 315 z "},"Q":{"ha":1078,"x_min":51,"x_max":1038,"o":"m 940 -164 q 842 -147 894 -164 q 746 -90 790 -131 q 676 21 701 -50 l 804 86 q 865 5 828 29 q 956 -19 903 -19 q 988 -17 971 -19 q 1018 -12 1004 -15 l 1018 -151 q 984 -160 1004 -157 q 940 -164 964 -164 m 544 -10 q 353 26 443 -10 q 196 128 264 63 q 90 285 128 194 q 51 483 51 375 q 90 681 51 592 q 196 837 128 771 q 353 939 264 903 q 544 975 443 975 q 737 939 647 975 q 894 837 826 903 q 999 681 961 771 q 1038 483 1038 592 q 999 285 1038 375 q 894 128 961 194 q 737 26 826 63 q 544 -10 647 -10 m 544 128 q 715 172 640 128 q 832 295 789 215 q 875 483 875 375 q 832 671 875 592 q 715 793 789 750 q 544 836 640 836 q 374 793 449 836 q 256 671 299 750 q 214 483 214 592 q 256 295 214 375 q 374 172 299 215 q 544 128 449 128 z "},"R":{"ha":931,"x_min":104,"x_max":847,"o":"m 104 0 l 104 965 l 438 965 q 627 926 551 965 q 741 823 703 888 q 779 681 779 758 q 719 521 779 583 q 567 436 658 458 q 701 349 642 411 q 798 199 760 288 q 847 0 836 110 l 678 0 q 628 186 668 103 q 511 319 589 269 q 402 367 464 350 q 263 383 340 383 l 263 0 l 104 0 m 263 513 l 438 513 q 570 560 524 513 q 617 676 617 608 q 570 792 617 747 q 438 836 524 836 l 263 836 l 263 513 z "},"Ŕ":{"ha":931,"x_min":104,"x_max":847,"o":"m 104 0 l 104 965 l 438 965 q 627 926 551 965 q 741 823 703 888 q 779 681 779 758 q 719 521 779 583 q 567 436 658 458 q 701 349 642 411 q 798 199 760 288 q 847 0 836 110 l 678 0 q 628 186 668 103 q 511 319 589 269 q 402 367 464 350 q 263 383 340 383 l 263 0 l 104 0 m 263 513 l 438 513 q 570 560 524 513 q 617 676 617 608 q 570 792 617 747 q 438 836 524 836 l 263 836 l 263 513 m 275 1021 l 275 1138 l 582 1307 l 582 1172 l 275 1021 z "},"Ř":{"ha":931,"x_min":104,"x_max":847,"o":"m 104 0 l 104 965 l 438 965 q 627 926 551 965 q 741 823 703 888 q 779 681 779 758 q 719 521 779 583 q 567 436 658 458 q 701 349 642 411 q 798 199 760 288 q 847 0 836 110 l 678 0 q 628 186 668 103 q 511 319 589 269 q 402 367 464 350 q 263 383 340 383 l 263 0 l 104 0 m 263 513 l 438 513 q 570 560 524 513 q 617 676 617 608 q 570 792 617 747 q 438 836 524 836 l 263 836 l 263 513 m 439 1021 l 240 1136 l 240 1260 l 439 1140 l 638 1260 l 638 1136 l 439 1021 z "},"Ŗ":{"ha":931,"x_min":104,"x_max":847,"o":"m 347 -376 l 347 -304 q 415 -294 385 -307 q 465 -260 446 -281 q 485 -224 483 -239 q 438 -239 469 -239 q 378 -219 404 -239 q 351 -157 351 -200 q 381 -88 351 -114 q 451 -62 410 -62 q 509 -81 485 -62 q 547 -126 533 -99 q 561 -185 561 -154 q 531 -292 561 -247 q 451 -359 500 -337 q 347 -376 401 -381 m 104 0 l 104 965 l 438 965 q 627 926 551 965 q 741 823 703 888 q 779 681 779 758 q 719 521 779 583 q 567 436 658 458 q 701 349 642 411 q 798 199 760 288 q 847 0 836 110 l 678 0 q 628 186 668 103 q 511 319 589 269 q 402 367 464 350 q 263 383 340 383 l 263 0 l 104 0 m 263 513 l 438 513 q 570 560 524 513 q 617 676 617 608 q 570 792 617 747 q 438 836 524 836 l 263 836 l 263 513 z "},"S":{"ha":847,"x_min":81,"x_max":764,"o":"m 431 -10 q 259 27 335 -10 q 137 128 183 64 q 81 275 90 192 l 247 306 q 311 175 263 222 q 431 128 360 128 q 559 165 514 128 q 604 264 604 203 q 576 343 604 314 q 503 390 549 372 q 403 422 457 408 q 294 452 349 435 q 193 499 239 469 q 119 576 147 528 q 92 700 92 624 q 133 847 92 785 q 250 942 175 908 q 424 975 325 975 q 576 942 506 975 q 693 853 647 908 q 746 729 739 797 l 583 688 q 525 800 569 760 q 415 840 481 840 q 333 826 369 840 q 274 782 296 811 q 253 706 253 753 q 281 631 253 660 q 354 585 308 603 q 454 554 400 568 q 563 522 508 540 q 663 474 617 504 q 736 396 708 444 q 764 272 764 347 q 726 135 764 200 q 613 31 688 71 q 431 -10 539 -10 z "},"Ś":{"ha":847,"x_min":81,"x_max":764,"o":"m 431 -10 q 259 27 335 -10 q 137 128 183 64 q 81 275 90 192 l 247 306 q 311 175 263 222 q 431 128 360 128 q 559 165 514 128 q 604 264 604 203 q 576 343 604 314 q 503 390 549 372 q 403 422 457 408 q 294 452 349 435 q 193 499 239 469 q 119 576 147 528 q 92 700 92 624 q 133 847 92 785 q 250 942 175 908 q 424 975 325 975 q 576 942 506 975 q 693 853 647 908 q 746 729 739 797 l 583 688 q 525 800 569 760 q 415 840 481 840 q 333 826 369 840 q 274 782 296 811 q 253 706 253 753 q 281 631 253 660 q 354 585 308 603 q 454 554 400 568 q 563 522 508 540 q 663 474 617 504 q 736 396 708 444 q 764 272 764 347 q 726 135 764 200 q 613 31 688 71 q 431 -10 539 -10 m 567 1315 l 567 1181 l 260 1029 l 260 1146 l 567 1315 z "},"Š":{"ha":847,"x_min":81,"x_max":764,"o":"m 431 -10 q 259 27 335 -10 q 137 128 183 64 q 81 275 90 192 l 247 306 q 311 175 263 222 q 431 128 360 128 q 559 165 514 128 q 604 264 604 203 q 576 343 604 314 q 503 390 549 372 q 403 422 457 408 q 294 452 349 435 q 193 499 239 469 q 119 576 147 528 q 92 700 92 624 q 133 847 92 785 q 250 942 175 908 q 424 975 325 975 q 576 942 506 975 q 693 853 647 908 q 746 729 739 797 l 583 688 q 525 800 569 760 q 415 840 481 840 q 333 826 369 840 q 274 782 296 811 q 253 706 253 753 q 281 631 253 660 q 354 585 308 603 q 454 554 400 568 q 563 522 508 540 q 663 474 617 504 q 736 396 708 444 q 764 272 764 347 q 726 135 764 200 q 613 31 688 71 q 431 -10 539 -10 m 622 1268 l 622 1144 l 424 1029 l 225 1144 l 225 1268 l 424 1149 l 622 1268 z "},"Ş":{"ha":847,"x_min":81,"x_max":764,"o":"m 431 -10 q 259 27 335 -10 q 137 128 183 64 q 81 275 90 192 l 247 306 q 311 175 263 222 q 431 128 360 128 q 559 165 514 128 q 604 264 604 203 q 576 343 604 314 q 503 390 549 372 q 403 422 457 408 q 294 452 349 435 q 193 499 239 469 q 119 576 147 528 q 92 700 92 624 q 133 847 92 785 q 250 942 175 908 q 424 975 325 975 q 576 942 506 975 q 693 853 647 908 q 746 729 739 797 l 583 688 q 525 800 569 760 q 415 840 481 840 q 333 826 369 840 q 274 782 296 811 q 253 706 253 753 q 281 631 253 660 q 354 585 308 603 q 454 554 400 568 q 563 522 508 540 q 663 474 617 504 q 736 396 708 444 q 764 272 764 347 q 726 135 764 200 q 613 31 688 71 q 431 -10 539 -10 m 488 -76 q 580 -93 539 -76 q 644 -142 621 -110 q 668 -222 668 -174 q 644 -303 668 -269 q 581 -356 621 -337 q 492 -374 542 -374 l 308 -374 l 308 -274 l 460 -274 q 517 -263 496 -274 q 538 -222 538 -253 q 517 -181 538 -190 q 460 -171 496 -171 l 383 -171 l 383 0 l 488 0 l 488 -76 z "},"Ș":{"ha":847,"x_min":81,"x_max":764,"o":"m 319 -376 l 319 -304 q 388 -294 357 -307 q 437 -260 418 -281 q 457 -224 456 -239 q 410 -239 442 -239 q 350 -219 376 -239 q 324 -157 324 -200 q 353 -88 324 -114 q 424 -62 382 -62 q 481 -81 457 -62 q 519 -126 506 -99 q 533 -185 533 -154 q 503 -292 533 -247 q 423 -359 472 -337 q 319 -376 374 -381 m 431 -10 q 259 27 335 -10 q 137 128 183 64 q 81 275 90 192 l 247 306 q 311 175 263 222 q 431 128 360 128 q 559 165 514 128 q 604 264 604 203 q 576 343 604 314 q 503 390 549 372 q 403 422 457 408 q 294 452 349 435 q 193 499 239 469 q 119 576 147 528 q 92 700 92 624 q 133 847 92 785 q 250 942 175 908 q 424 975 325 975 q 576 942 506 975 q 693 853 647 908 q 746 729 739 797 l 583 688 q 525 800 569 760 q 415 840 481 840 q 333 826 369 840 q 274 782 296 811 q 253 706 253 753 q 281 631 253 660 q 354 585 308 603 q 454 554 400 568 q 563 522 508 540 q 663 474 617 504 q 736 396 708 444 q 764 272 764 347 q 726 135 764 200 q 613 31 688 71 q 431 -10 539 -10 z "},"ẞ":{"ha":971,"x_min":75,"x_max":896,"o":"m 75 781 q 111 926 75 860 q 223 1033 147 993 q 419 1074 299 1074 q 597 1039 526 1074 q 703 949 668 1004 q 739 835 739 894 q 720 743 739 782 q 673 675 701 704 q 617 624 644 646 q 570 582 589 601 q 551 542 551 563 q 563 513 551 526 q 606 483 575 499 q 697 447 638 468 q 850 356 804 413 q 896 215 896 299 q 863 97 896 149 q 767 15 829 44 q 615 -14 704 -14 q 411 52 490 -14 q 322 240 332 118 l 483 240 q 517 147 483 182 q 615 113 551 113 q 703 135 672 113 q 733 203 733 157 q 707 275 733 247 q 607 326 681 303 q 444 406 497 363 q 392 519 392 450 q 410 594 392 561 q 458 654 429 626 q 515 708 486 682 q 562 761 543 733 q 581 822 581 789 q 536 910 581 879 q 417 942 492 942 q 274 894 314 942 q 233 760 233 846 l 233 0 l 75 0 l 75 781 z "},"T":{"ha":783,"x_min":54,"x_max":728,"o":"m 54 965 l 728 965 l 728 836 l 471 836 l 471 0 l 313 0 l 313 836 l 54 836 l 54 965 z "},"Ť":{"ha":783,"x_min":54,"x_max":728,"o":"m 54 965 l 728 965 l 728 836 l 471 836 l 471 0 l 313 0 l 313 836 l 54 836 l 54 965 m 590 1260 l 590 1136 l 392 1021 l 193 1136 l 193 1260 l 392 1140 l 590 1260 z "},"Ţ":{"ha":783,"x_min":54,"x_max":728,"o":"m 54 965 l 728 965 l 728 836 l 471 836 l 471 0 l 313 0 l 313 836 l 54 836 l 54 965 m 446 -67 q 538 -83 497 -67 q 603 -132 579 -100 q 626 -212 626 -164 q 603 -294 626 -260 q 540 -346 579 -328 q 450 -364 500 -364 l 267 -364 l 267 -264 l 418 -264 q 475 -253 454 -264 q 496 -212 496 -243 q 475 -171 496 -181 q 418 -161 454 -161 l 342 -161 l 342 10 l 446 10 l 446 -67 z "},"Ț":{"ha":783,"x_min":54,"x_max":728,"o":"m 289 -376 l 289 -304 q 357 -294 326 -307 q 406 -260 388 -281 q 426 -224 425 -239 q 379 -239 411 -239 q 319 -219 346 -239 q 293 -157 293 -200 q 322 -88 293 -114 q 393 -62 351 -62 q 451 -81 426 -62 q 489 -126 475 -99 q 503 -185 503 -154 q 472 -292 503 -247 q 392 -359 442 -337 q 289 -376 343 -381 m 54 965 l 728 965 l 728 836 l 471 836 l 471 0 l 313 0 l 313 836 l 54 836 l 54 965 z "},"U":{"ha":958,"x_min":103,"x_max":857,"o":"m 103 965 l 261 965 l 261 350 q 320 183 261 238 q 479 129 379 129 q 640 183 581 129 q 699 350 699 238 l 699 965 l 857 965 l 857 353 q 804 150 857 231 q 665 30 751 69 q 478 -10 579 -10 q 291 30 376 -10 q 154 150 206 69 q 103 353 103 231 l 103 965 z "},"Ú":{"ha":958,"x_min":103,"x_max":857,"o":"m 103 965 l 261 965 l 261 350 q 320 183 261 238 q 479 129 379 129 q 640 183 581 129 q 699 350 699 238 l 699 965 l 857 965 l 857 353 q 804 150 857 231 q 665 30 751 69 q 478 -10 579 -10 q 291 30 376 -10 q 154 150 206 69 q 103 353 103 231 l 103 965 m 622 1307 l 622 1172 l 315 1021 l 315 1138 l 622 1307 z "},"Ŭ":{"ha":958,"x_min":103,"x_max":857,"o":"m 103 965 l 261 965 l 261 350 q 320 183 261 238 q 479 129 379 129 q 640 183 581 129 q 699 350 699 238 l 699 965 l 857 965 l 857 353 q 804 150 857 231 q 665 30 751 69 q 478 -10 579 -10 q 291 30 376 -10 q 154 150 206 69 q 103 353 103 231 l 103 965 m 479 1031 q 326 1085 382 1031 q 271 1225 271 1139 l 271 1254 l 361 1254 q 386 1181 361 1207 q 479 1154 411 1154 q 572 1181 547 1154 q 597 1254 597 1207 l 689 1254 l 689 1224 q 633 1084 689 1138 q 479 1031 578 1031 z "},"Û":{"ha":958,"x_min":103,"x_max":857,"o":"m 103 965 l 261 965 l 261 350 q 320 183 261 238 q 479 129 379 129 q 640 183 581 129 q 699 350 699 238 l 699 965 l 857 965 l 857 353 q 804 150 857 231 q 665 30 751 69 q 478 -10 579 -10 q 291 30 376 -10 q 154 150 206 69 q 103 353 103 231 l 103 965 m 678 1021 l 479 1140 l 281 1021 l 281 1144 l 479 1260 l 678 1144 l 678 1021 z "},"Ü":{"ha":958,"x_min":103,"x_max":857,"o":"m 103 965 l 261 965 l 261 350 q 320 183 261 238 q 479 129 379 129 q 640 183 581 129 q 699 350 699 238 l 699 965 l 857 965 l 857 353 q 804 150 857 231 q 665 30 751 69 q 478 -10 579 -10 q 291 30 376 -10 q 154 150 206 69 q 103 353 103 231 l 103 965 m 360 1063 q 301 1087 325 1063 q 276 1146 276 1111 q 301 1205 276 1181 q 360 1229 325 1229 q 419 1205 394 1229 q 443 1146 443 1181 q 419 1087 443 1111 q 360 1063 394 1063 m 599 1063 q 540 1087 564 1063 q 515 1146 515 1111 q 540 1205 515 1181 q 599 1229 564 1229 q 658 1205 633 1229 q 682 1146 682 1181 q 658 1087 682 1111 q 599 1063 633 1063 z "},"Ù":{"ha":958,"x_min":103,"x_max":857,"o":"m 103 965 l 261 965 l 261 350 q 320 183 261 238 q 479 129 379 129 q 640 183 581 129 q 699 350 699 238 l 699 965 l 857 965 l 857 353 q 804 150 857 231 q 665 30 751 69 q 478 -10 579 -10 q 291 30 376 -10 q 154 150 206 69 q 103 353 103 231 l 103 965 m 315 1307 l 622 1138 l 622 1021 l 315 1172 l 315 1307 z "},"Ű":{"ha":958,"x_min":103,"x_max":857,"o":"m 103 965 l 261 965 l 261 350 q 320 183 261 238 q 479 129 379 129 q 640 183 581 129 q 699 350 699 238 l 699 965 l 857 965 l 857 353 q 804 150 857 231 q 665 30 751 69 q 478 -10 579 -10 q 291 30 376 -10 q 154 150 206 69 q 103 353 103 231 l 103 965 m 535 1272 l 404 1036 l 301 1036 l 397 1272 l 535 1272 m 765 1272 l 626 1036 l 524 1036 l 628 1272 l 765 1272 z "},"Ū":{"ha":958,"x_min":103,"x_max":857,"o":"m 103 965 l 261 965 l 261 350 q 320 183 261 238 q 479 129 379 129 q 640 183 581 129 q 699 350 699 238 l 699 965 l 857 965 l 857 353 q 804 150 857 231 q 665 30 751 69 q 478 -10 579 -10 q 291 30 376 -10 q 154 150 206 69 q 103 353 103 231 l 103 965 m 225 1201 l 733 1201 l 733 1083 l 225 1083 l 225 1201 z "},"Ų":{"ha":958,"x_min":103,"x_max":857,"o":"m 103 965 l 261 965 l 261 350 q 320 183 261 238 q 479 129 379 129 q 640 183 581 129 q 699 350 699 238 l 699 965 l 857 965 l 857 353 q 804 150 857 231 q 665 30 751 69 q 478 -10 579 -10 q 291 30 376 -10 q 154 150 206 69 q 103 353 103 231 l 103 965 m 539 83 l 581 3 l 513 -32 q 451 -78 468 -54 q 433 -126 433 -101 q 454 -173 433 -156 q 510 -190 475 -190 q 601 -171 551 -190 l 601 -272 q 549 -287 578 -282 q 489 -293 519 -293 q 403 -278 446 -293 q 332 -229 360 -262 q 304 -140 304 -196 q 321 -71 304 -104 q 376 -5 338 -37 q 481 57 415 28 l 539 83 z "},"Ů":{"ha":958,"x_min":103,"x_max":857,"o":"m 103 965 l 261 965 l 261 350 q 320 183 261 238 q 479 129 379 129 q 640 183 581 129 q 699 350 699 238 l 699 965 l 857 965 l 857 353 q 804 150 857 231 q 665 30 751 69 q 478 -10 579 -10 q 291 30 376 -10 q 154 150 206 69 q 103 353 103 231 l 103 965 m 636 1193 q 590 1083 636 1124 q 479 1042 544 1042 q 369 1083 415 1042 q 324 1193 324 1124 q 369 1305 324 1264 q 479 1346 415 1346 q 590 1305 544 1346 q 636 1193 636 1264 m 547 1194 q 527 1246 547 1226 q 479 1265 507 1265 q 433 1246 453 1265 q 413 1194 413 1226 q 433 1144 413 1164 q 479 1124 453 1124 q 527 1144 507 1124 q 547 1194 547 1164 z "},"Ũ":{"ha":958,"x_min":103,"x_max":857,"o":"m 103 965 l 261 965 l 261 350 q 320 183 261 238 q 479 129 379 129 q 640 183 581 129 q 699 350 699 238 l 699 965 l 857 965 l 857 353 q 804 150 857 231 q 665 30 751 69 q 478 -10 579 -10 q 291 30 376 -10 q 154 150 206 69 q 103 353 103 231 l 103 965 m 563 1043 q 499 1058 525 1043 q 451 1090 474 1074 q 401 1106 429 1106 q 363 1091 379 1106 q 342 1046 346 1076 l 253 1046 q 307 1168 264 1128 q 410 1208 350 1208 q 473 1193 447 1208 q 521 1163 499 1178 q 571 1147 543 1147 q 610 1161 594 1147 q 631 1206 626 1175 l 719 1206 q 666 1083 708 1124 q 563 1043 624 1043 z "},"V":{"ha":964,"x_min":26,"x_max":936,"o":"m 769 965 l 936 965 l 574 0 l 390 0 l 26 965 l 196 965 l 482 163 l 769 965 z "},"W":{"ha":1388,"x_min":26,"x_max":1361,"o":"m 26 965 l 194 965 l 417 93 l 371 93 l 611 965 l 789 965 l 1014 90 l 967 90 l 1192 965 l 1361 965 l 1075 0 l 896 0 l 672 803 l 714 803 l 478 0 l 300 0 l 26 965 z "},"Ẃ":{"ha":1388,"x_min":26,"x_max":1361,"o":"m 26 965 l 194 965 l 417 93 l 371 93 l 611 965 l 789 965 l 1014 90 l 967 90 l 1192 965 l 1361 965 l 1075 0 l 896 0 l 672 803 l 714 803 l 478 0 l 300 0 l 26 965 m 918 1314 l 918 1179 l 611 1028 l 611 1144 l 918 1314 z "},"Ŵ":{"ha":1388,"x_min":26,"x_max":1361,"o":"m 26 965 l 194 965 l 417 93 l 371 93 l 611 965 l 789 965 l 1014 90 l 967 90 l 1192 965 l 1361 965 l 1075 0 l 896 0 l 672 803 l 714 803 l 478 0 l 300 0 l 26 965 m 886 1028 l 688 1147 l 489 1028 l 489 1151 l 688 1267 l 886 1151 l 886 1028 z "},"Ẅ":{"ha":1388,"x_min":26,"x_max":1361,"o":"m 26 965 l 194 965 l 417 93 l 371 93 l 611 965 l 789 965 l 1014 90 l 967 90 l 1192 965 l 1361 965 l 1075 0 l 896 0 l 672 803 l 714 803 l 478 0 l 300 0 l 26 965 m 568 1065 q 509 1090 533 1065 q 485 1149 485 1114 q 509 1208 485 1183 q 568 1232 533 1232 q 627 1208 603 1232 q 651 1149 651 1183 q 627 1090 651 1114 q 568 1065 603 1065 m 807 1065 q 748 1090 772 1065 q 724 1149 724 1114 q 748 1208 724 1183 q 807 1232 772 1232 q 866 1208 842 1232 q 890 1149 890 1183 q 866 1090 890 1114 q 807 1065 842 1065 z "},"Ẁ":{"ha":1388,"x_min":26,"x_max":1361,"o":"m 26 965 l 194 965 l 417 93 l 371 93 l 611 965 l 789 965 l 1014 90 l 967 90 l 1192 965 l 1361 965 l 1075 0 l 896 0 l 672 803 l 714 803 l 478 0 l 300 0 l 26 965 m 485 1307 l 792 1138 l 792 1021 l 485 1172 l 485 1307 z "},"X":{"ha":917,"x_min":69,"x_max":849,"o":"m 69 965 l 247 965 l 847 0 l 669 0 l 69 965 m 482 403 l 247 0 l 71 0 l 397 525 l 482 403 m 438 563 l 672 965 l 849 965 l 522 440 l 438 563 z "},"Y":{"ha":840,"x_min":21,"x_max":819,"o":"m 21 965 l 197 965 l 457 417 l 386 417 l 644 965 l 819 965 l 500 350 l 500 0 l 342 0 l 342 350 l 21 965 z "},"Ý":{"ha":840,"x_min":21,"x_max":819,"o":"m 21 965 l 197 965 l 457 417 l 386 417 l 644 965 l 819 965 l 500 350 l 500 0 l 342 0 l 342 350 l 21 965 m 564 1307 l 564 1172 l 257 1021 l 257 1138 l 564 1307 z "},"Ŷ":{"ha":840,"x_min":21,"x_max":819,"o":"m 21 965 l 197 965 l 457 417 l 386 417 l 644 965 l 819 965 l 500 350 l 500 0 l 342 0 l 342 350 l 21 965 m 619 1021 l 421 1140 l 222 1021 l 222 1144 l 421 1260 l 619 1144 l 619 1021 z "},"Ÿ":{"ha":840,"x_min":21,"x_max":819,"o":"m 21 965 l 197 965 l 457 417 l 386 417 l 644 965 l 819 965 l 500 350 l 500 0 l 342 0 l 342 350 l 21 965 m 301 1063 q 242 1087 267 1063 q 218 1146 218 1111 q 242 1205 218 1181 q 301 1229 267 1229 q 360 1205 336 1229 q 385 1146 385 1181 q 360 1087 385 1111 q 301 1063 336 1063 m 540 1063 q 481 1087 506 1063 q 457 1146 457 1111 q 481 1205 457 1181 q 540 1229 506 1229 q 599 1205 575 1229 q 624 1146 624 1181 q 599 1087 624 1111 q 540 1063 575 1063 z "},"Ỳ":{"ha":840,"x_min":21,"x_max":819,"o":"m 21 965 l 197 965 l 457 417 l 386 417 l 644 965 l 819 965 l 500 350 l 500 0 l 342 0 l 342 350 l 21 965 m 257 1307 l 564 1138 l 564 1021 l 257 1172 l 257 1307 z "},"Ỹ":{"ha":840,"x_min":21,"x_max":819,"o":"m 21 965 l 197 965 l 457 417 l 386 417 l 644 965 l 819 965 l 500 350 l 500 0 l 342 0 l 342 350 l 21 965 m 504 1043 q 441 1058 467 1043 q 393 1090 415 1074 q 343 1106 371 1106 q 304 1091 321 1106 q 283 1046 288 1076 l 194 1046 q 249 1168 206 1128 q 351 1208 292 1208 q 415 1193 389 1208 q 463 1163 440 1178 q 513 1147 485 1147 q 552 1161 536 1147 q 572 1206 568 1175 l 661 1206 q 608 1083 650 1124 q 504 1043 565 1043 z "},"Z":{"ha":775,"x_min":69,"x_max":706,"o":"m 706 842 l 257 138 l 706 138 l 706 0 l 69 0 l 69 124 l 517 828 l 69 828 l 69 965 l 706 965 l 706 842 z "},"Ź":{"ha":775,"x_min":69,"x_max":706,"o":"m 706 842 l 257 138 l 706 138 l 706 0 l 69 0 l 69 124 l 517 828 l 69 828 l 69 965 l 706 965 l 706 842 m 531 1307 l 531 1172 l 224 1021 l 224 1138 l 531 1307 z "},"Ž":{"ha":775,"x_min":69,"x_max":706,"o":"m 706 842 l 257 138 l 706 138 l 706 0 l 69 0 l 69 124 l 517 828 l 69 828 l 69 965 l 706 965 l 706 842 m 586 1260 l 586 1136 l 388 1021 l 189 1136 l 189 1260 l 388 1140 l 586 1260 z "},"Ż":{"ha":775,"x_min":69,"x_max":706,"o":"m 706 842 l 257 138 l 706 138 l 706 0 l 69 0 l 69 124 l 517 828 l 69 828 l 69 965 l 706 965 l 706 842 m 388 1063 q 328 1087 353 1063 q 304 1146 304 1111 q 328 1205 304 1181 q 388 1229 353 1229 q 447 1205 422 1229 q 471 1146 471 1181 q 447 1087 471 1111 q 388 1063 422 1063 z "},"a":{"ha":942,"x_min":51,"x_max":838,"o":"m 410 -10 q 228 40 310 -10 q 99 177 147 89 q 51 383 51 265 q 99 590 51 501 q 228 726 147 678 q 410 775 310 775 q 575 728 504 775 q 678 600 646 682 l 678 765 l 838 765 l 838 0 l 767 0 q 703 25 728 0 q 678 89 678 50 l 678 167 q 575 38 646 85 q 410 -10 504 -10 m 446 128 q 558 157 506 128 q 644 244 611 186 q 678 383 678 301 q 644 523 678 467 q 558 608 611 579 q 446 638 506 638 q 334 608 388 638 q 247 523 281 579 q 214 383 214 467 q 247 244 214 301 q 334 157 281 186 q 446 128 388 128 z "},"á":{"ha":942,"x_min":51,"x_max":838,"o":"m 410 -10 q 228 40 310 -10 q 99 177 147 89 q 51 383 51 265 q 99 590 51 501 q 228 726 147 678 q 410 775 310 775 q 575 728 504 775 q 678 600 646 682 l 678 765 l 838 765 l 838 0 l 767 0 q 703 25 728 0 q 678 89 678 50 l 678 167 q 575 38 646 85 q 410 -10 504 -10 m 446 128 q 558 157 506 128 q 644 244 611 186 q 678 383 678 301 q 644 523 678 467 q 558 608 611 579 q 446 638 506 638 q 334 608 388 638 q 247 523 281 579 q 214 383 214 467 q 247 244 214 301 q 334 157 281 186 q 446 128 388 128 m 614 1106 l 614 971 l 307 819 l 307 936 l 614 1106 z "},"ă":{"ha":942,"x_min":51,"x_max":838,"o":"m 410 -10 q 228 40 310 -10 q 99 177 147 89 q 51 383 51 265 q 99 590 51 501 q 228 726 147 678 q 410 775 310 775 q 575 728 504 775 q 678 600 646 682 l 678 765 l 838 765 l 838 0 l 767 0 q 703 25 728 0 q 678 89 678 50 l 678 167 q 575 38 646 85 q 410 -10 504 -10 m 446 128 q 558 157 506 128 q 644 244 611 186 q 678 383 678 301 q 644 523 678 467 q 558 608 611 579 q 446 638 506 638 q 334 608 388 638 q 247 523 281 579 q 214 383 214 467 q 247 244 214 301 q 334 157 281 186 q 446 128 388 128 m 471 829 q 318 883 374 829 q 263 1024 263 938 l 263 1053 l 353 1053 q 378 979 353 1006 q 471 953 403 953 q 564 979 539 953 q 589 1053 589 1006 l 681 1053 l 681 1022 q 625 883 681 936 q 471 829 569 829 z "},"â":{"ha":942,"x_min":51,"x_max":838,"o":"m 410 -10 q 228 40 310 -10 q 99 177 147 89 q 51 383 51 265 q 99 590 51 501 q 228 726 147 678 q 410 775 310 775 q 575 728 504 775 q 678 600 646 682 l 678 765 l 838 765 l 838 0 l 767 0 q 703 25 728 0 q 678 89 678 50 l 678 167 q 575 38 646 85 q 410 -10 504 -10 m 446 128 q 558 157 506 128 q 644 244 611 186 q 678 383 678 301 q 644 523 678 467 q 558 608 611 579 q 446 638 506 638 q 334 608 388 638 q 247 523 281 579 q 214 383 214 467 q 247 244 214 301 q 334 157 281 186 q 446 128 388 128 m 669 819 l 471 939 l 272 819 l 272 943 l 471 1058 l 669 943 l 669 819 z "},"ä":{"ha":942,"x_min":51,"x_max":838,"o":"m 410 -10 q 228 40 310 -10 q 99 177 147 89 q 51 383 51 265 q 99 590 51 501 q 228 726 147 678 q 410 775 310 775 q 575 728 504 775 q 678 600 646 682 l 678 765 l 838 765 l 838 0 l 767 0 q 703 25 728 0 q 678 89 678 50 l 678 167 q 575 38 646 85 q 410 -10 504 -10 m 446 128 q 558 157 506 128 q 644 244 611 186 q 678 383 678 301 q 644 523 678 467 q 558 608 611 579 q 446 638 506 638 q 334 608 388 638 q 247 523 281 579 q 214 383 214 467 q 247 244 214 301 q 334 157 281 186 q 446 128 388 128 m 351 861 q 292 885 317 861 q 268 944 268 910 q 292 1003 268 979 q 351 1028 317 1028 q 410 1003 386 1028 q 435 944 435 979 q 410 885 435 910 q 351 861 386 861 m 590 861 q 531 885 556 861 q 507 944 507 910 q 531 1003 507 979 q 590 1028 556 1028 q 649 1003 625 1028 q 674 944 674 979 q 649 885 674 910 q 590 861 625 861 z "},"à":{"ha":942,"x_min":51,"x_max":838,"o":"m 410 -10 q 228 40 310 -10 q 99 177 147 89 q 51 383 51 265 q 99 590 51 501 q 228 726 147 678 q 410 775 310 775 q 575 728 504 775 q 678 600 646 682 l 678 765 l 838 765 l 838 0 l 767 0 q 703 25 728 0 q 678 89 678 50 l 678 167 q 575 38 646 85 q 410 -10 504 -10 m 446 128 q 558 157 506 128 q 644 244 611 186 q 678 383 678 301 q 644 523 678 467 q 558 608 611 579 q 446 638 506 638 q 334 608 388 638 q 247 523 281 579 q 214 383 214 467 q 247 244 214 301 q 334 157 281 186 q 446 128 388 128 m 307 1106 l 614 936 l 614 819 l 307 971 l 307 1106 z "},"ā":{"ha":942,"x_min":51,"x_max":838,"o":"m 410 -10 q 228 40 310 -10 q 99 177 147 89 q 51 383 51 265 q 99 590 51 501 q 228 726 147 678 q 410 775 310 775 q 575 728 504 775 q 678 600 646 682 l 678 765 l 838 765 l 838 0 l 767 0 q 703 25 728 0 q 678 89 678 50 l 678 167 q 575 38 646 85 q 410 -10 504 -10 m 446 128 q 558 157 506 128 q 644 244 611 186 q 678 383 678 301 q 644 523 678 467 q 558 608 611 579 q 446 638 506 638 q 334 608 388 638 q 247 523 281 579 q 214 383 214 467 q 247 244 214 301 q 334 157 281 186 q 446 128 388 128 m 217 1000 l 725 1000 l 725 882 l 217 882 l 217 1000 z "},"ą":{"ha":942,"x_min":51,"x_max":858,"o":"m 410 -10 q 228 40 310 -10 q 99 177 147 89 q 51 383 51 265 q 99 590 51 501 q 228 726 147 678 q 410 775 310 775 q 575 728 504 775 q 678 600 646 682 l 678 765 l 838 765 l 838 0 l 767 0 q 703 25 728 0 q 678 89 678 50 l 678 167 q 575 38 646 85 q 410 -10 504 -10 m 746 -282 q 660 -267 703 -282 q 589 -221 617 -253 q 561 -135 561 -189 q 577 -63 561 -99 q 631 4 593 -28 q 738 60 669 36 l 796 81 l 838 0 l 769 -35 q 708 -78 725 -57 q 690 -124 690 -99 q 711 -165 690 -150 q 767 -179 732 -179 q 858 -160 808 -179 l 858 -261 q 806 -276 835 -271 q 746 -282 776 -282 m 446 128 q 558 157 506 128 q 644 244 611 186 q 678 383 678 301 q 644 523 678 467 q 558 608 611 579 q 446 638 506 638 q 334 608 388 638 q 247 523 281 579 q 214 383 214 467 q 247 244 214 301 q 334 157 281 186 q 446 128 388 128 z "},"å":{"ha":942,"x_min":51,"x_max":838,"o":"m 410 -10 q 228 40 310 -10 q 99 177 147 89 q 51 383 51 265 q 99 590 51 501 q 228 726 147 678 q 410 775 310 775 q 575 728 504 775 q 678 600 646 682 l 678 765 l 838 765 l 838 0 l 767 0 q 703 25 728 0 q 678 89 678 50 l 678 167 q 575 38 646 85 q 410 -10 504 -10 m 446 128 q 558 157 506 128 q 644 244 611 186 q 678 383 678 301 q 644 523 678 467 q 558 608 611 579 q 446 638 506 638 q 334 608 388 638 q 247 523 281 579 q 214 383 214 467 q 247 244 214 301 q 334 157 281 186 q 446 128 388 128 m 628 992 q 582 881 628 922 q 471 840 536 840 q 361 881 407 840 q 315 992 315 922 q 361 1103 315 1063 q 471 1144 407 1144 q 582 1103 536 1144 q 628 992 628 1063 m 539 993 q 519 1044 539 1025 q 471 1064 499 1064 q 424 1044 444 1064 q 404 993 404 1025 q 424 942 404 963 q 471 922 444 922 q 519 942 499 922 q 539 993 539 963 z "},"ã":{"ha":942,"x_min":51,"x_max":838,"o":"m 410 -10 q 228 40 310 -10 q 99 177 147 89 q 51 383 51 265 q 99 590 51 501 q 228 726 147 678 q 410 775 310 775 q 575 728 504 775 q 678 600 646 682 l 678 765 l 838 765 l 838 0 l 767 0 q 703 25 728 0 q 678 89 678 50 l 678 167 q 575 38 646 85 q 410 -10 504 -10 m 446 128 q 558 157 506 128 q 644 244 611 186 q 678 383 678 301 q 644 523 678 467 q 558 608 611 579 q 446 638 506 638 q 334 608 388 638 q 247 523 281 579 q 214 383 214 467 q 247 244 214 301 q 334 157 281 186 q 446 128 388 128 m 554 842 q 491 857 517 842 q 443 888 465 872 q 393 904 421 904 q 354 890 371 904 q 333 844 338 875 l 244 844 q 299 967 256 926 q 401 1007 342 1007 q 465 992 439 1007 q 513 961 490 976 q 563 946 535 946 q 602 960 586 946 q 622 1004 618 974 l 711 1004 q 658 882 700 922 q 554 842 615 842 z "},"æ":{"ha":1554,"x_min":51,"x_max":1503,"o":"m 410 -10 q 228 39 310 -10 q 99 176 147 88 q 51 382 51 264 q 99 588 51 500 q 228 726 147 676 q 410 775 310 775 q 575 728 504 775 q 678 600 646 682 l 678 765 l 838 765 l 838 0 l 767 0 q 703 25 728 0 q 678 89 678 50 l 678 167 q 575 38 646 85 q 410 -10 504 -10 m 446 128 q 558 157 506 128 q 644 244 611 186 q 678 383 678 301 q 644 523 678 467 q 558 608 611 579 q 446 638 506 638 q 334 608 388 638 q 247 522 281 579 q 214 382 214 465 q 247 243 214 300 q 334 157 281 186 q 446 128 388 128 m 1140 -10 q 972 19 1047 -10 q 842 101 896 49 q 760 224 789 154 q 732 378 732 294 q 765 541 732 468 q 853 667 797 614 q 983 747 910 719 q 1138 775 1057 775 q 1269 756 1210 775 q 1373 701 1329 736 q 1440 621 1417 667 q 1464 522 1464 575 q 1436 420 1464 463 q 1360 349 1408 378 q 1250 305 1311 321 q 1122 283 1189 289 q 990 281 1056 278 q 956 283 976 282 q 919 284 935 283 q 901 285 903 285 q 945 202 911 239 q 1031 144 979 165 q 1140 124 1082 124 q 1234 140 1188 124 q 1319 186 1281 157 q 1385 253 1358 215 l 1503 168 q 1399 67 1457 107 q 1276 9 1342 28 q 1140 -10 1211 -10 m 1004 407 q 1108 412 1056 407 q 1206 430 1161 417 q 1279 467 1251 443 q 1307 528 1307 490 q 1287 585 1307 560 q 1231 626 1267 611 q 1146 642 1194 642 q 1017 610 1074 642 q 927 525 960 578 q 892 411 894 472 q 940 408 911 410 q 1004 407 969 407 z "},"ǽ":{"ha":1557,"x_min":51,"x_max":1503,"o":"m 410 -10 q 228 39 310 -10 q 99 176 147 88 q 51 382 51 264 q 99 588 51 500 q 228 726 147 676 q 410 775 310 775 q 575 728 504 775 q 678 600 646 682 l 678 765 l 838 765 l 838 0 l 767 0 q 703 25 728 0 q 678 89 678 50 l 678 167 q 575 38 646 85 q 410 -10 504 -10 m 446 128 q 558 157 506 128 q 644 244 611 186 q 678 383 678 301 q 644 523 678 467 q 558 608 611 579 q 446 638 506 638 q 334 608 388 638 q 247 522 281 579 q 214 382 214 465 q 247 243 214 300 q 334 157 281 186 q 446 128 388 128 m 1140 -10 q 972 19 1047 -10 q 842 101 896 49 q 760 224 789 154 q 732 378 732 294 q 765 541 732 468 q 853 667 797 614 q 983 747 910 719 q 1138 775 1057 775 q 1269 756 1210 775 q 1373 701 1329 736 q 1440 621 1417 667 q 1464 522 1464 575 q 1436 420 1464 463 q 1360 349 1408 378 q 1250 305 1311 321 q 1122 283 1189 289 q 990 281 1056 278 q 956 283 976 282 q 919 284 935 283 q 901 285 903 285 q 945 202 911 239 q 1031 144 979 165 q 1140 124 1082 124 q 1234 140 1188 124 q 1319 186 1281 157 q 1385 253 1358 215 l 1503 168 q 1399 67 1457 107 q 1276 9 1342 28 q 1140 -10 1211 -10 m 1004 407 q 1108 412 1056 407 q 1206 430 1161 417 q 1279 467 1251 443 q 1307 528 1307 490 q 1287 585 1307 560 q 1231 626 1267 611 q 1146 642 1194 642 q 1017 610 1074 642 q 927 525 960 578 q 892 411 894 472 q 940 408 911 410 q 1004 407 969 407 m 988 1106 l 988 971 l 681 819 l 681 936 l 988 1106 z "},"b":{"ha":943,"x_min":104,"x_max":890,"o":"m 532 -10 q 367 38 439 -10 q 264 167 296 85 l 264 89 q 240 25 264 50 q 175 0 215 0 l 104 0 l 104 1028 l 264 1028 l 264 600 q 367 728 296 682 q 532 775 439 775 q 713 726 632 775 q 842 590 794 678 q 890 383 890 501 q 842 177 890 265 q 713 40 794 89 q 532 -10 632 -10 m 496 128 q 608 157 556 128 q 694 244 661 186 q 728 383 728 301 q 694 523 728 467 q 608 608 661 579 q 496 638 556 638 q 384 608 438 638 q 297 523 331 579 q 264 383 264 467 q 297 244 264 301 q 384 157 331 186 q 496 128 438 128 z "},"c":{"ha":833,"x_min":51,"x_max":779,"o":"m 426 -10 q 232 39 317 -10 q 99 176 147 88 q 51 383 51 265 q 99 590 51 503 q 232 726 147 678 q 426 775 317 775 q 548 761 493 775 q 645 719 603 747 q 719 647 688 690 q 771 543 750 603 l 619 494 q 544 605 593 568 q 426 642 496 642 q 315 612 363 642 q 240 524 267 582 q 214 383 214 467 q 240 243 214 301 q 315 154 267 185 q 426 124 363 124 q 558 167 507 124 q 632 286 610 211 l 779 251 q 713 119 758 179 q 598 25 668 60 q 426 -10 528 -10 z "},"ć":{"ha":833,"x_min":51,"x_max":779,"o":"m 426 -10 q 232 39 317 -10 q 99 176 147 88 q 51 383 51 265 q 99 590 51 503 q 232 726 147 678 q 426 775 317 775 q 548 761 493 775 q 645 719 603 747 q 719 647 688 690 q 771 543 750 603 l 619 494 q 544 605 593 568 q 426 642 496 642 q 315 612 363 642 q 240 524 267 582 q 214 383 214 467 q 240 243 214 301 q 315 154 267 185 q 426 124 363 124 q 558 167 507 124 q 632 286 610 211 l 779 251 q 713 119 758 179 q 598 25 668 60 q 426 -10 528 -10 m 253 819 l 253 936 l 560 1106 l 560 971 l 253 819 z "},"č":{"ha":833,"x_min":51,"x_max":779,"o":"m 426 -10 q 232 39 317 -10 q 99 176 147 88 q 51 383 51 265 q 99 590 51 503 q 232 726 147 678 q 426 775 317 775 q 548 761 493 775 q 645 719 603 747 q 719 647 688 690 q 771 543 750 603 l 619 494 q 544 605 593 568 q 426 642 496 642 q 315 612 363 642 q 240 524 267 582 q 214 383 214 467 q 240 243 214 301 q 315 154 267 185 q 426 124 363 124 q 558 167 507 124 q 632 286 610 211 l 779 251 q 713 119 758 179 q 598 25 668 60 q 426 -10 528 -10 m 417 819 l 218 935 l 218 1058 l 417 939 l 615 1058 l 615 935 l 417 819 z "},"ç":{"ha":833,"x_min":51,"x_max":779,"o":"m 426 -10 q 232 39 317 -10 q 99 176 147 88 q 51 383 51 265 q 99 590 51 503 q 232 726 147 678 q 426 775 317 775 q 548 761 493 775 q 645 719 603 747 q 719 647 688 690 q 771 543 750 603 l 619 494 q 544 605 593 568 q 426 642 496 642 q 315 612 363 642 q 240 524 267 582 q 214 383 214 467 q 240 243 214 301 q 315 154 267 185 q 426 124 363 124 q 558 167 507 124 q 632 286 610 211 l 779 251 q 713 119 758 179 q 598 25 668 60 q 426 -10 528 -10 m 294 -364 l 294 -264 l 446 -264 q 503 -253 482 -264 q 524 -212 524 -243 q 503 -171 524 -181 q 446 -161 482 -161 l 369 -161 l 369 10 l 474 10 l 474 -67 q 566 -83 525 -67 q 631 -132 607 -100 q 654 -212 654 -164 q 631 -294 654 -260 q 567 -346 607 -328 q 478 -364 528 -364 l 294 -364 z "},"ċ":{"ha":833,"x_min":51,"x_max":779,"o":"m 426 -10 q 232 39 317 -10 q 99 176 147 88 q 51 383 51 265 q 99 590 51 503 q 232 726 147 678 q 426 775 317 775 q 548 761 493 775 q 645 719 603 747 q 719 647 688 690 q 771 543 750 603 l 619 494 q 544 605 593 568 q 426 642 496 642 q 315 612 363 642 q 240 524 267 582 q 214 383 214 467 q 240 243 214 301 q 315 154 267 185 q 426 124 363 124 q 558 167 507 124 q 632 286 610 211 l 779 251 q 713 119 758 179 q 598 25 668 60 q 426 -10 528 -10 m 417 863 q 358 887 382 863 q 333 946 333 911 q 358 1005 333 981 q 417 1029 382 1029 q 476 1005 451 1029 q 500 946 500 981 q 476 887 500 911 q 417 863 451 863 z "},"d":{"ha":942,"x_min":51,"x_max":838,"o":"m 410 -10 q 228 40 310 -10 q 99 177 147 89 q 51 383 51 265 q 99 590 51 501 q 228 726 147 678 q 410 775 310 775 q 575 728 504 775 q 678 600 646 682 l 678 1028 l 838 1028 l 838 0 l 767 0 q 703 25 728 0 q 678 89 678 50 l 678 167 q 575 38 646 85 q 410 -10 504 -10 m 446 128 q 558 157 506 128 q 644 244 611 186 q 678 383 678 301 q 644 523 678 467 q 558 608 611 579 q 446 638 506 638 q 334 608 388 638 q 247 523 281 579 q 214 383 214 467 q 247 244 214 301 q 334 157 281 186 q 446 128 388 128 z "},"ď":{"ha":1090,"x_min":51,"x_max":1090,"o":"m 410 -10 q 228 40 310 -10 q 99 177 147 89 q 51 383 51 265 q 99 590 51 501 q 228 726 147 678 q 410 775 310 775 q 575 728 504 775 q 678 600 646 682 l 678 1028 l 838 1028 l 838 0 l 767 0 q 703 25 728 0 q 678 89 678 50 l 678 167 q 575 38 646 85 q 410 -10 504 -10 m 446 128 q 558 157 506 128 q 644 244 611 186 q 678 383 678 301 q 644 523 678 467 q 558 608 611 579 q 446 638 506 638 q 334 608 388 638 q 247 523 281 579 q 214 383 214 467 q 247 244 214 301 q 334 157 281 186 q 446 128 388 128 m 876 722 l 876 794 q 944 805 914 792 q 994 839 975 818 q 1014 875 1013 860 q 967 860 999 860 q 907 879 933 860 q 881 942 881 899 q 910 1010 881 985 q 981 1036 939 1036 q 1038 1018 1014 1036 q 1076 972 1063 1000 q 1090 914 1090 944 q 1060 806 1090 851 q 980 740 1029 761 q 876 722 931 718 z "},"đ":{"ha":942,"x_min":51,"x_max":914,"o":"m 404 951 l 914 951 l 914 847 l 404 847 l 404 951 m 410 -10 q 228 40 310 -10 q 99 177 147 89 q 51 383 51 265 q 99 590 51 501 q 228 726 147 678 q 410 775 310 775 q 575 728 504 775 q 678 600 646 682 l 678 1028 l 838 1028 l 838 0 l 767 0 q 703 25 728 0 q 678 89 678 50 l 678 167 q 575 38 646 85 q 410 -10 504 -10 m 446 128 q 558 157 506 128 q 644 244 611 186 q 678 383 678 301 q 644 523 678 467 q 558 608 611 579 q 446 638 506 638 q 334 608 388 638 q 247 523 281 579 q 214 383 214 467 q 247 244 214 301 q 334 157 281 186 q 446 128 388 128 z "},"ð":{"ha":883,"x_min":51,"x_max":832,"o":"m 765 1032 l 765 947 l 367 817 l 367 901 l 765 1032 m 436 121 q 549 150 496 121 q 635 238 601 179 q 669 383 669 297 q 637 528 669 471 q 551 615 604 586 q 439 644 499 644 q 329 615 381 644 q 246 528 278 586 q 214 383 214 471 q 244 238 214 297 q 326 150 275 179 q 436 121 376 121 m 426 778 q 569 749 504 778 q 669 674 635 721 l 658 674 q 596 796 636 736 q 499 913 556 856 q 374 1028 443 971 l 535 1028 q 697 854 631 947 q 797 658 763 761 q 832 440 832 554 q 780 190 832 290 q 638 38 728 89 q 436 -12 549 -12 q 240 36 326 -12 q 102 174 153 85 q 51 383 51 264 q 102 592 51 504 q 238 729 153 681 q 426 778 322 778 z "},"e":{"ha":860,"x_min":51,"x_max":822,"o":"m 460 -10 q 291 19 367 -10 q 162 101 215 49 q 80 224 108 154 q 51 378 51 294 q 84 541 51 468 q 173 667 117 614 q 303 747 229 719 q 457 775 376 775 q 589 756 529 775 q 692 701 649 736 q 760 621 736 667 q 783 522 783 575 q 740 400 783 449 q 628 324 697 351 q 475 286 558 296 q 310 281 392 276 q 275 283 296 282 q 238 284 254 283 q 221 285 222 285 q 265 202 231 239 q 350 144 299 165 q 460 124 401 124 q 553 140 507 124 q 639 186 600 157 q 704 253 678 215 l 822 168 q 719 67 776 107 q 596 9 661 28 q 460 -10 531 -10 m 324 407 q 428 412 375 407 q 526 430 481 417 q 599 467 571 443 q 626 528 626 490 q 606 585 626 560 q 550 626 586 611 q 465 642 514 642 q 336 610 393 642 q 247 525 279 578 q 211 411 214 472 q 260 408 231 410 q 324 407 289 407 z "},"é":{"ha":860,"x_min":51,"x_max":822,"o":"m 460 -10 q 291 19 367 -10 q 162 101 215 49 q 80 224 108 154 q 51 378 51 294 q 84 541 51 468 q 173 667 117 614 q 303 747 229 719 q 457 775 376 775 q 589 756 529 775 q 692 701 649 736 q 760 621 736 667 q 783 522 783 575 q 740 400 783 449 q 628 324 697 351 q 475 286 558 296 q 310 281 392 276 q 275 283 296 282 q 238 284 254 283 q 221 285 222 285 q 265 202 231 239 q 350 144 299 165 q 460 124 401 124 q 553 140 507 124 q 639 186 600 157 q 704 253 678 215 l 822 168 q 719 67 776 107 q 596 9 661 28 q 460 -10 531 -10 m 324 407 q 428 412 375 407 q 526 430 481 417 q 599 467 571 443 q 626 528 626 490 q 606 585 626 560 q 550 626 586 611 q 465 642 514 642 q 336 610 393 642 q 247 525 279 578 q 211 411 214 472 q 260 408 231 410 q 324 407 289 407 m 582 1106 l 582 971 l 275 819 l 275 936 l 582 1106 z "},"ĕ":{"ha":860,"x_min":51,"x_max":822,"o":"m 460 -10 q 291 19 367 -10 q 162 101 215 49 q 80 224 108 154 q 51 378 51 294 q 84 541 51 468 q 173 667 117 614 q 303 747 229 719 q 457 775 376 775 q 589 756 529 775 q 692 701 649 736 q 760 621 736 667 q 783 522 783 575 q 740 400 783 449 q 628 324 697 351 q 475 286 558 296 q 310 281 392 276 q 275 283 296 282 q 238 284 254 283 q 221 285 222 285 q 265 202 231 239 q 350 144 299 165 q 460 124 401 124 q 553 140 507 124 q 639 186 600 157 q 704 253 678 215 l 822 168 q 719 67 776 107 q 596 9 661 28 q 460 -10 531 -10 m 324 407 q 428 412 375 407 q 526 430 481 417 q 599 467 571 443 q 626 528 626 490 q 606 585 626 560 q 550 626 586 611 q 465 642 514 642 q 336 610 393 642 q 247 525 279 578 q 211 411 214 472 q 260 408 231 410 q 324 407 289 407 m 439 829 q 286 883 342 829 q 231 1024 231 938 l 231 1053 l 321 1053 q 346 979 321 1006 q 439 953 371 953 q 532 979 507 953 q 557 1053 557 1006 l 649 1053 l 649 1022 q 593 883 649 936 q 439 829 538 829 z "},"ě":{"ha":860,"x_min":51,"x_max":822,"o":"m 460 -10 q 291 19 367 -10 q 162 101 215 49 q 80 224 108 154 q 51 378 51 294 q 84 541 51 468 q 173 667 117 614 q 303 747 229 719 q 457 775 376 775 q 589 756 529 775 q 692 701 649 736 q 760 621 736 667 q 783 522 783 575 q 740 400 783 449 q 628 324 697 351 q 475 286 558 296 q 310 281 392 276 q 275 283 296 282 q 238 284 254 283 q 221 285 222 285 q 265 202 231 239 q 350 144 299 165 q 460 124 401 124 q 553 140 507 124 q 639 186 600 157 q 704 253 678 215 l 822 168 q 719 67 776 107 q 596 9 661 28 q 460 -10 531 -10 m 324 407 q 428 412 375 407 q 526 430 481 417 q 599 467 571 443 q 626 528 626 490 q 606 585 626 560 q 550 626 586 611 q 465 642 514 642 q 336 610 393 642 q 247 525 279 578 q 211 411 214 472 q 260 408 231 410 q 324 407 289 407 m 638 1058 l 638 935 l 439 819 l 240 935 l 240 1058 l 439 939 l 638 1058 z "},"ê":{"ha":860,"x_min":51,"x_max":822,"o":"m 460 -10 q 291 19 367 -10 q 162 101 215 49 q 80 224 108 154 q 51 378 51 294 q 84 541 51 468 q 173 667 117 614 q 303 747 229 719 q 457 775 376 775 q 589 756 529 775 q 692 701 649 736 q 760 621 736 667 q 783 522 783 575 q 740 400 783 449 q 628 324 697 351 q 475 286 558 296 q 310 281 392 276 q 275 283 296 282 q 238 284 254 283 q 221 285 222 285 q 265 202 231 239 q 350 144 299 165 q 460 124 401 124 q 553 140 507 124 q 639 186 600 157 q 704 253 678 215 l 822 168 q 719 67 776 107 q 596 9 661 28 q 460 -10 531 -10 m 324 407 q 428 412 375 407 q 526 430 481 417 q 599 467 571 443 q 626 528 626 490 q 606 585 626 560 q 550 626 586 611 q 465 642 514 642 q 336 610 393 642 q 247 525 279 578 q 211 411 214 472 q 260 408 231 410 q 324 407 289 407 m 638 819 l 439 939 l 240 819 l 240 943 l 439 1058 l 638 943 l 638 819 z "},"ë":{"ha":860,"x_min":51,"x_max":822,"o":"m 460 -10 q 291 19 367 -10 q 162 101 215 49 q 80 224 108 154 q 51 378 51 294 q 84 541 51 468 q 173 667 117 614 q 303 747 229 719 q 457 775 376 775 q 589 756 529 775 q 692 701 649 736 q 760 621 736 667 q 783 522 783 575 q 740 400 783 449 q 628 324 697 351 q 475 286 558 296 q 310 281 392 276 q 275 283 296 282 q 238 284 254 283 q 221 285 222 285 q 265 202 231 239 q 350 144 299 165 q 460 124 401 124 q 553 140 507 124 q 639 186 600 157 q 704 253 678 215 l 822 168 q 719 67 776 107 q 596 9 661 28 q 460 -10 531 -10 m 324 407 q 428 412 375 407 q 526 430 481 417 q 599 467 571 443 q 626 528 626 490 q 606 585 626 560 q 550 626 586 611 q 465 642 514 642 q 336 610 393 642 q 247 525 279 578 q 211 411 214 472 q 260 408 231 410 q 324 407 289 407 m 319 861 q 260 885 285 861 q 236 944 236 910 q 260 1003 236 979 q 319 1028 285 1028 q 378 1003 354 1028 q 403 944 403 979 q 378 885 403 910 q 319 861 354 861 m 558 861 q 499 885 524 861 q 475 944 475 910 q 499 1003 475 979 q 558 1028 524 1028 q 617 1003 593 1028 q 642 944 642 979 q 617 885 642 910 q 558 861 593 861 z "},"ė":{"ha":860,"x_min":51,"x_max":822,"o":"m 460 -10 q 291 19 367 -10 q 162 101 215 49 q 80 224 108 154 q 51 378 51 294 q 84 541 51 468 q 173 667 117 614 q 303 747 229 719 q 457 775 376 775 q 589 756 529 775 q 692 701 649 736 q 760 621 736 667 q 783 522 783 575 q 740 400 783 449 q 628 324 697 351 q 475 286 558 296 q 310 281 392 276 q 275 283 296 282 q 238 284 254 283 q 221 285 222 285 q 265 202 231 239 q 350 144 299 165 q 460 124 401 124 q 553 140 507 124 q 639 186 600 157 q 704 253 678 215 l 822 168 q 719 67 776 107 q 596 9 661 28 q 460 -10 531 -10 m 324 407 q 428 412 375 407 q 526 430 481 417 q 599 467 571 443 q 626 528 626 490 q 606 585 626 560 q 550 626 586 611 q 465 642 514 642 q 336 610 393 642 q 247 525 279 578 q 211 411 214 472 q 260 408 231 410 q 324 407 289 407 m 439 861 q 380 885 404 861 q 356 944 356 910 q 380 1003 356 979 q 439 1028 404 1028 q 498 1003 474 1028 q 522 944 522 979 q 498 885 522 910 q 439 861 474 861 z "},"è":{"ha":860,"x_min":51,"x_max":822,"o":"m 460 -10 q 291 19 367 -10 q 162 101 215 49 q 80 224 108 154 q 51 378 51 294 q 84 541 51 468 q 173 667 117 614 q 303 747 229 719 q 457 775 376 775 q 589 756 529 775 q 692 701 649 736 q 760 621 736 667 q 783 522 783 575 q 740 400 783 449 q 628 324 697 351 q 475 286 558 296 q 310 281 392 276 q 275 283 296 282 q 238 284 254 283 q 221 285 222 285 q 265 202 231 239 q 350 144 299 165 q 460 124 401 124 q 553 140 507 124 q 639 186 600 157 q 704 253 678 215 l 822 168 q 719 67 776 107 q 596 9 661 28 q 460 -10 531 -10 m 324 407 q 428 412 375 407 q 526 430 481 417 q 599 467 571 443 q 626 528 626 490 q 606 585 626 560 q 550 626 586 611 q 465 642 514 642 q 336 610 393 642 q 247 525 279 578 q 211 411 214 472 q 260 408 231 410 q 324 407 289 407 m 275 1106 l 582 936 l 582 819 l 275 971 l 275 1106 z "},"ē":{"ha":860,"x_min":51,"x_max":822,"o":"m 460 -10 q 291 19 367 -10 q 162 101 215 49 q 80 224 108 154 q 51 378 51 294 q 84 541 51 468 q 173 667 117 614 q 303 747 229 719 q 457 775 376 775 q 589 756 529 775 q 692 701 649 736 q 760 621 736 667 q 783 522 783 575 q 740 400 783 449 q 628 324 697 351 q 475 286 558 296 q 310 281 392 276 q 275 283 296 282 q 238 284 254 283 q 221 285 222 285 q 265 202 231 239 q 350 144 299 165 q 460 124 401 124 q 553 140 507 124 q 639 186 600 157 q 704 253 678 215 l 822 168 q 719 67 776 107 q 596 9 661 28 q 460 -10 531 -10 m 324 407 q 428 412 375 407 q 526 430 481 417 q 599 467 571 443 q 626 528 626 490 q 606 585 626 560 q 550 626 586 611 q 465 642 514 642 q 336 610 393 642 q 247 525 279 578 q 211 411 214 472 q 260 408 231 410 q 324 407 289 407 m 185 1000 l 693 1000 l 693 882 l 185 882 l 185 1000 z "},"ę":{"ha":894,"x_min":51,"x_max":843,"o":"m 439 -293 q 353 -278 396 -293 q 282 -231 310 -264 q 254 -143 254 -199 q 263 -92 254 -117 q 292 -42 272 -67 q 342 4 311 -18 q 188 81 253 28 q 87 211 122 135 q 51 378 51 288 q 85 542 51 468 q 176 668 118 615 q 308 749 233 721 q 463 778 382 778 q 635 743 558 778 q 757 650 713 708 q 801 521 801 592 q 763 410 801 456 q 658 335 724 364 q 510 292 592 306 q 344 278 429 278 q 319 278 340 278 q 272 278 299 278 q 222 281 246 279 q 267 199 232 235 q 355 143 303 164 q 467 122 407 122 q 564 138 514 122 q 656 182 614 153 q 725 251 699 211 l 843 167 q 694 42 781 85 q 513 -10 607 -1 l 463 -35 q 401 -79 418 -57 q 383 -126 383 -101 q 404 -173 383 -156 q 460 -190 425 -190 q 551 -171 501 -190 l 551 -272 q 499 -287 528 -282 q 439 -293 469 -293 m 315 410 q 435 416 376 410 q 540 437 493 422 q 613 477 586 451 q 640 542 640 503 q 619 597 640 574 q 559 632 597 619 q 471 644 521 644 q 340 613 399 644 q 246 528 281 581 q 208 414 211 475 q 262 411 235 413 q 315 410 289 410 z "},"ẽ":{"ha":860,"x_min":51,"x_max":822,"o":"m 460 -10 q 291 19 367 -10 q 162 101 215 49 q 80 224 108 154 q 51 378 51 294 q 84 541 51 468 q 173 667 117 614 q 303 747 229 719 q 457 775 376 775 q 589 756 529 775 q 692 701 649 736 q 760 621 736 667 q 783 522 783 575 q 740 400 783 449 q 628 324 697 351 q 475 286 558 296 q 310 281 392 276 q 275 283 296 282 q 238 284 254 283 q 221 285 222 285 q 265 202 231 239 q 350 144 299 165 q 460 124 401 124 q 553 140 507 124 q 639 186 600 157 q 704 253 678 215 l 822 168 q 719 67 776 107 q 596 9 661 28 q 460 -10 531 -10 m 324 407 q 428 412 375 407 q 526 430 481 417 q 599 467 571 443 q 626 528 626 490 q 606 585 626 560 q 550 626 586 611 q 465 642 514 642 q 336 610 393 642 q 247 525 279 578 q 211 411 214 472 q 260 408 231 410 q 324 407 289 407 m 522 842 q 459 857 485 842 q 411 888 433 872 q 361 904 389 904 q 322 890 339 904 q 301 844 306 875 l 213 844 q 267 967 224 926 q 369 1007 310 1007 q 433 992 407 1007 q 481 961 458 976 q 531 946 503 946 q 570 960 554 946 q 590 1004 586 974 l 679 1004 q 626 882 668 922 q 522 842 583 842 z "},"f":{"ha":461,"x_min":33,"x_max":425,"o":"m 124 0 l 124 636 l 33 636 l 33 765 l 124 765 l 124 819 q 141 933 124 886 q 194 1012 158 981 q 284 1058 229 1043 q 414 1072 339 1072 l 414 940 q 338 928 367 940 q 296 890 308 917 q 283 819 283 864 l 283 765 l 425 765 l 425 636 l 283 636 l 283 0 l 124 0 z "},"g":{"ha":942,"x_min":51,"x_max":838,"o":"m 458 -374 q 287 -344 365 -374 q 151 -258 208 -315 q 65 -119 94 -201 l 210 -61 q 310 -188 242 -142 q 458 -235 378 -235 q 573 -210 524 -235 q 650 -135 622 -185 q 678 -11 678 -85 l 678 167 q 575 38 646 85 q 410 -10 504 -10 q 228 40 310 -10 q 99 177 147 89 q 51 383 51 265 q 99 590 51 501 q 228 726 147 678 q 410 775 310 775 q 575 728 504 775 q 678 600 646 682 l 678 765 l 838 765 l 838 -8 q 812 -156 838 -89 q 738 -271 786 -222 q 619 -347 689 -319 q 458 -374 549 -374 m 446 128 q 558 157 506 128 q 644 244 611 186 q 678 383 678 301 q 644 523 678 467 q 558 608 611 579 q 446 638 506 638 q 334 608 388 638 q 247 523 281 579 q 214 383 214 467 q 247 244 214 301 q 334 157 281 186 q 446 128 388 128 z "},"ğ":{"ha":942,"x_min":51,"x_max":838,"o":"m 458 -374 q 287 -344 365 -374 q 151 -258 208 -315 q 65 -119 94 -201 l 210 -61 q 310 -188 242 -142 q 458 -235 378 -235 q 573 -210 524 -235 q 650 -135 622 -185 q 678 -11 678 -85 l 678 167 q 575 38 646 85 q 410 -10 504 -10 q 228 40 310 -10 q 99 177 147 89 q 51 383 51 265 q 99 590 51 501 q 228 726 147 678 q 410 775 310 775 q 575 728 504 775 q 678 600 646 682 l 678 765 l 838 765 l 838 -8 q 812 -156 838 -89 q 738 -271 786 -222 q 619 -347 689 -319 q 458 -374 549 -374 m 446 128 q 558 157 506 128 q 644 244 611 186 q 678 383 678 301 q 644 523 678 467 q 558 608 611 579 q 446 638 506 638 q 334 608 388 638 q 247 523 281 579 q 214 383 214 467 q 247 244 214 301 q 334 157 281 186 q 446 128 388 128 m 471 829 q 318 883 374 829 q 263 1024 263 938 l 263 1053 l 353 1053 q 378 979 353 1006 q 471 953 403 953 q 564 979 539 953 q 589 1053 589 1006 l 681 1053 l 681 1022 q 625 883 681 936 q 471 829 569 829 z "},"ģ":{"ha":942,"x_min":51,"x_max":838,"o":"m 558 1142 l 558 1069 q 490 1060 521 1074 q 441 1026 460 1046 q 421 989 422 1006 q 468 1004 436 1004 q 528 985 501 1004 q 554 922 554 967 q 525 853 554 879 q 454 828 496 828 q 397 846 422 828 q 358 892 372 864 q 344 950 344 919 q 375 1058 344 1014 q 455 1125 406 1103 q 558 1142 504 1147 m 458 -374 q 287 -344 365 -374 q 151 -258 208 -315 q 65 -119 94 -201 l 210 -61 q 310 -188 242 -142 q 458 -235 378 -235 q 573 -210 524 -235 q 650 -135 622 -185 q 678 -11 678 -85 l 678 167 q 575 38 646 85 q 410 -10 504 -10 q 228 40 310 -10 q 99 177 147 89 q 51 383 51 265 q 99 590 51 501 q 228 726 147 678 q 410 775 310 775 q 575 728 504 775 q 678 600 646 682 l 678 765 l 838 765 l 838 -8 q 812 -156 838 -89 q 738 -271 786 -222 q 619 -347 689 -319 q 458 -374 549 -374 m 446 128 q 558 157 506 128 q 644 244 611 186 q 678 383 678 301 q 644 523 678 467 q 558 608 611 579 q 446 638 506 638 q 334 608 388 638 q 247 523 281 579 q 214 383 214 467 q 247 244 214 301 q 334 157 281 186 q 446 128 388 128 z "},"ġ":{"ha":942,"x_min":51,"x_max":838,"o":"m 458 -374 q 287 -344 365 -374 q 151 -258 208 -315 q 65 -119 94 -201 l 210 -61 q 310 -188 242 -142 q 458 -235 378 -235 q 573 -210 524 -235 q 650 -135 622 -185 q 678 -11 678 -85 l 678 167 q 575 38 646 85 q 410 -10 504 -10 q 228 40 310 -10 q 99 177 147 89 q 51 383 51 265 q 99 590 51 501 q 228 726 147 678 q 410 775 310 775 q 575 728 504 775 q 678 600 646 682 l 678 765 l 838 765 l 838 -8 q 812 -156 838 -89 q 738 -271 786 -222 q 619 -347 689 -319 q 458 -374 549 -374 m 446 128 q 558 157 506 128 q 644 244 611 186 q 678 383 678 301 q 644 523 678 467 q 558 608 611 579 q 446 638 506 638 q 334 608 388 638 q 247 523 281 579 q 214 383 214 467 q 247 244 214 301 q 334 157 281 186 q 446 128 388 128 m 471 861 q 412 885 436 861 q 388 944 388 910 q 412 1003 388 979 q 471 1028 436 1028 q 530 1003 506 1028 q 554 944 554 979 q 530 885 554 910 q 471 861 506 861 z "},"h":{"ha":901,"x_min":104,"x_max":804,"o":"m 104 0 l 104 1028 l 263 1028 l 263 606 q 319 692 281 654 q 409 753 358 731 q 511 775 460 775 q 665 737 599 775 q 767 626 731 699 q 804 451 804 554 l 804 0 l 647 0 l 647 414 q 594 578 647 518 q 456 638 542 638 q 356 607 400 638 q 288 523 313 576 q 263 400 263 469 l 263 0 l 104 0 z "},"ħ":{"ha":901,"x_min":39,"x_max":804,"o":"m 39 847 l 39 951 l 549 951 l 549 847 l 39 847 m 104 0 l 104 1028 l 263 1028 l 263 606 q 319 692 281 654 q 409 753 358 731 q 511 775 460 775 q 665 737 599 775 q 767 626 731 699 q 804 451 804 554 l 804 0 l 647 0 l 647 414 q 594 578 647 518 q 456 638 542 638 q 356 607 400 638 q 288 523 313 576 q 263 400 263 469 l 263 0 l 104 0 z "},"i":{"ha":378,"x_min":69,"x_max":308,"o":"m 108 0 l 108 765 l 267 765 l 267 0 l 108 0 m 189 867 q 104 899 139 867 q 69 978 69 931 q 104 1058 69 1025 q 189 1090 139 1090 q 273 1058 238 1090 q 308 978 308 1025 q 273 899 308 931 q 189 867 238 867 z "},"ı":{"ha":367,"x_min":104,"x_max":263,"o":"m 104 765 l 263 765 l 263 0 l 104 0 l 104 765 z "},"í":{"ha":367,"x_min":19,"x_max":326,"o":"m 104 765 l 263 765 l 263 0 l 104 0 l 104 765 m 326 1106 l 326 971 l 19 819 l 19 936 l 326 1106 z "},"ĭ":{"ha":367,"x_min":-25,"x_max":393,"o":"m 104 765 l 263 765 l 263 0 l 104 0 l 104 765 m 183 829 q 31 883 86 829 q -25 1024 -25 938 l -25 1053 l 65 1053 q 90 979 65 1006 q 183 953 115 953 q 276 979 251 953 q 301 1053 301 1006 l 393 1053 l 393 1022 q 338 883 393 936 q 183 829 282 829 z "},"î":{"ha":367,"x_min":-15,"x_max":382,"o":"m 104 765 l 263 765 l 263 0 l 104 0 l 104 765 m 382 819 l 183 939 l -15 819 l -15 943 l 183 1058 l 382 943 l 382 819 z "},"ï":{"ha":367,"x_min":-19,"x_max":386,"o":"m 104 765 l 263 765 l 263 0 l 104 0 l 104 765 m 64 861 q 5 885 29 861 q -19 944 -19 910 q 5 1003 -19 979 q 64 1028 29 1028 q 123 1003 99 1028 q 147 944 147 979 q 123 885 147 910 q 64 861 99 861 m 303 861 q 244 885 268 861 q 219 944 219 910 q 244 1003 219 979 q 303 1028 268 1028 q 362 1003 338 1028 q 386 944 386 979 q 362 885 386 910 q 303 861 338 861 z "},"ì":{"ha":367,"x_min":19,"x_max":326,"o":"m 104 765 l 263 765 l 263 0 l 104 0 l 104 765 m 19 1106 l 326 936 l 326 819 l 19 971 l 19 1106 z "},"ī":{"ha":367,"x_min":-71,"x_max":438,"o":"m 104 765 l 263 765 l 263 0 l 104 0 l 104 765 m -71 1000 l 438 1000 l 438 882 l -71 882 l -71 1000 z "},"į":{"ha":378,"x_min":-10,"x_max":308,"o":"m 108 0 l 108 765 l 267 765 l 267 0 l 108 0 m 189 867 q 104 899 139 867 q 69 978 69 931 q 104 1058 69 1025 q 189 1090 139 1090 q 273 1058 238 1090 q 308 978 308 1025 q 273 899 308 931 q 189 867 238 867 m 225 82 l 267 1 l 199 -33 q 137 -78 154 -56 q 119 -125 119 -100 q 140 -172 119 -154 q 196 -189 161 -189 q 288 -169 238 -189 l 288 -271 q 235 -286 264 -281 q 175 -292 206 -292 q 89 -277 132 -292 q 18 -230 46 -262 q -10 -142 -10 -197 q 7 -72 -10 -106 q 63 -6 24 -39 q 167 56 101 26 l 225 82 z "},"ĩ":{"ha":367,"x_min":-43,"x_max":424,"o":"m 104 765 l 263 765 l 263 0 l 104 0 l 104 765 m 267 842 q 203 857 229 842 q 156 888 178 872 q 106 904 133 904 q 67 890 83 904 q 46 844 50 875 l -43 844 q 11 967 -32 926 q 114 1007 54 1007 q 177 992 151 1007 q 225 961 203 976 q 275 946 247 946 q 315 960 299 946 q 335 1004 331 974 l 424 1004 q 370 882 413 922 q 267 842 328 842 z "},"j":{"ha":400,"x_min":-86,"x_max":318,"o":"m 56 -374 q -18 -361 18 -374 q -86 -324 -54 -349 l -24 -203 q 28 -215 4 -215 q 92 -186 67 -215 q 118 -106 118 -157 l 118 765 l 276 765 l 276 -129 q 244 -263 276 -208 q 163 -346 213 -318 q 56 -374 113 -374 m 199 867 q 114 899 149 867 q 79 978 79 931 q 114 1058 79 1025 q 199 1090 149 1090 q 283 1058 247 1090 q 318 978 318 1025 q 283 899 318 931 q 199 867 247 867 z "},"ȷ":{"ha":358,"x_min":-86,"x_max":276,"o":"m 56 -374 q -18 -361 18 -374 q -86 -324 -54 -349 l -24 -203 q 28 -215 4 -215 q 92 -186 67 -215 q 118 -106 118 -157 l 118 765 l 276 765 l 276 -129 q 244 -263 276 -208 q 163 -346 213 -318 q 56 -374 113 -374 z "},"k":{"ha":786,"x_min":104,"x_max":776,"o":"m 104 0 l 104 1028 l 263 1028 l 263 444 q 403 497 336 457 q 522 603 471 536 q 593 765 572 671 l 760 765 q 690 598 739 674 q 577 467 642 522 q 442 385 513 413 q 549 333 494 369 q 651 244 603 296 q 733 131 699 193 q 776 0 767 68 l 610 0 q 560 122 596 67 q 477 217 525 176 q 374 284 429 258 q 263 315 318 310 l 263 0 l 104 0 z "},"ķ":{"ha":786,"x_min":104,"x_max":776,"o":"m 299 -376 l 299 -304 q 367 -294 336 -307 q 416 -260 397 -281 q 436 -224 435 -239 q 389 -239 421 -239 q 329 -219 356 -239 q 303 -157 303 -200 q 332 -88 303 -114 q 403 -62 361 -62 q 460 -81 436 -62 q 499 -126 485 -99 q 513 -185 513 -154 q 482 -292 513 -247 q 402 -359 451 -337 q 299 -376 353 -381 m 104 0 l 104 1028 l 263 1028 l 263 444 q 403 497 336 457 q 522 603 471 536 q 593 765 572 671 l 760 765 q 690 598 739 674 q 577 467 642 522 q 442 385 513 413 q 549 333 494 369 q 651 244 603 296 q 733 131 699 193 q 776 0 767 68 l 610 0 q 560 122 596 67 q 477 217 525 176 q 374 284 429 258 q 263 315 318 310 l 263 0 l 104 0 z "},"l":{"ha":414,"x_min":104,"x_max":386,"o":"m 104 175 l 104 1028 l 263 1028 l 263 189 q 281 142 263 158 q 324 125 299 125 q 353 131 340 125 l 386 14 q 290 -10 346 -10 q 203 9 246 -10 q 132 69 160 28 q 104 175 104 110 z "},"ĺ":{"ha":414,"x_min":19,"x_max":386,"o":"m 104 175 l 104 1028 l 263 1028 l 263 189 q 281 142 263 158 q 324 125 299 125 q 353 131 340 125 l 386 14 q 290 -10 346 -10 q 203 9 246 -10 q 132 69 160 28 q 104 175 104 110 m 326 1368 l 326 1233 l 19 1082 l 19 1199 l 326 1368 z "},"ľ":{"ha":500,"x_min":104,"x_max":528,"o":"m 104 175 l 104 1028 l 263 1028 l 263 189 q 281 142 263 158 q 324 125 299 125 q 353 131 340 125 l 386 14 q 290 -10 346 -10 q 203 9 246 -10 q 132 69 160 28 q 104 175 104 110 m 314 714 l 314 786 q 382 797 351 783 q 431 831 413 810 q 451 867 450 851 q 404 851 436 851 q 344 871 371 851 q 318 933 318 890 q 347 1002 318 976 q 418 1028 376 1028 q 476 1010 451 1028 q 514 964 500 992 q 528 906 528 936 q 497 798 528 843 q 417 731 467 753 q 314 714 368 710 z "},"ļ":{"ha":482,"x_min":104,"x_max":386,"o":"m 118 -376 l 118 -304 q 186 -294 156 -307 q 235 -260 217 -281 q 256 -224 254 -239 q 208 -239 240 -239 q 149 -219 175 -239 q 122 -157 122 -200 q 151 -88 122 -114 q 222 -62 181 -62 q 280 -81 256 -62 q 318 -126 304 -99 q 332 -185 332 -154 q 301 -292 332 -247 q 221 -359 269 -337 q 118 -376 172 -381 m 104 175 l 104 1028 l 263 1028 l 263 189 q 281 142 263 158 q 324 125 299 125 q 353 131 340 125 l 386 14 q 290 -10 346 -10 q 203 9 246 -10 q 132 69 160 28 q 104 175 104 110 z "},"ł":{"ha":396,"x_min":13,"x_max":385,"o":"m 272 -10 q 188 10 226 -10 q 127 68 150 29 q 104 164 104 107 l 104 1028 l 263 1028 l 263 163 q 275 137 263 147 q 307 126 288 126 q 326 129 317 126 q 353 140 336 132 l 385 14 q 340 -3 367 4 q 272 -10 313 -10 m 13 379 l 13 501 l 356 618 l 356 497 l 13 379 z "},"m":{"ha":1443,"x_min":104,"x_max":1346,"o":"m 104 0 l 104 765 l 263 765 l 263 606 q 319 692 281 654 q 406 753 357 731 q 504 775 456 775 q 686 718 613 775 q 778 567 760 661 q 833 673 794 626 q 927 747 872 719 q 1046 775 982 775 q 1263 692 1181 775 q 1346 449 1346 610 l 1346 0 l 1189 0 l 1189 411 q 1136 577 1189 517 q 997 638 1083 638 q 857 569 910 638 q 804 397 804 501 l 804 0 l 647 0 l 647 411 q 594 577 647 517 q 456 638 542 638 q 354 606 397 638 q 287 521 311 575 q 263 397 263 467 l 263 0 l 104 0 z "},"n":{"ha":901,"x_min":104,"x_max":804,"o":"m 104 0 l 104 765 l 263 765 l 263 606 q 319 692 281 654 q 409 753 358 731 q 511 775 460 775 q 665 737 599 775 q 767 626 731 699 q 804 451 804 554 l 804 0 l 647 0 l 647 414 q 594 578 647 518 q 456 638 542 638 q 356 607 400 638 q 288 523 313 576 q 263 400 263 469 l 263 0 l 104 0 z "},"ń":{"ha":901,"x_min":104,"x_max":804,"o":"m 104 0 l 104 765 l 263 765 l 263 606 q 319 692 281 654 q 409 753 358 731 q 511 775 460 775 q 665 737 599 775 q 767 626 731 699 q 804 451 804 554 l 804 0 l 647 0 l 647 414 q 594 578 647 518 q 456 638 542 638 q 356 607 400 638 q 288 523 313 576 q 263 400 263 469 l 263 0 l 104 0 m 594 1106 l 594 971 l 288 819 l 288 936 l 594 1106 z "},"ň":{"ha":901,"x_min":104,"x_max":804,"o":"m 104 0 l 104 765 l 263 765 l 263 606 q 319 692 281 654 q 409 753 358 731 q 511 775 460 775 q 665 737 599 775 q 767 626 731 699 q 804 451 804 554 l 804 0 l 647 0 l 647 414 q 594 578 647 518 q 456 638 542 638 q 356 607 400 638 q 288 523 313 576 q 263 400 263 469 l 263 0 l 104 0 m 650 1058 l 650 935 l 451 819 l 253 935 l 253 1058 l 451 939 l 650 1058 z "},"ņ":{"ha":901,"x_min":104,"x_max":804,"o":"m 342 -376 l 342 -304 q 410 -294 379 -307 q 459 -260 440 -281 q 479 -224 478 -239 q 432 -239 464 -239 q 372 -219 399 -239 q 346 -157 346 -200 q 375 -88 346 -114 q 446 -62 404 -62 q 503 -81 479 -62 q 542 -126 528 -99 q 556 -185 556 -154 q 525 -292 556 -247 q 445 -359 494 -337 q 342 -376 396 -381 m 104 0 l 104 765 l 263 765 l 263 606 q 319 692 281 654 q 409 753 358 731 q 511 775 460 775 q 665 737 599 775 q 767 626 731 699 q 804 451 804 554 l 804 0 l 647 0 l 647 414 q 594 578 647 518 q 456 638 542 638 q 356 607 400 638 q 288 523 313 576 q 263 400 263 469 l 263 0 l 104 0 z "},"ñ":{"ha":901,"x_min":104,"x_max":804,"o":"m 104 0 l 104 765 l 263 765 l 263 606 q 319 692 281 654 q 409 753 358 731 q 511 775 460 775 q 665 737 599 775 q 767 626 731 699 q 804 451 804 554 l 804 0 l 647 0 l 647 414 q 594 578 647 518 q 456 638 542 638 q 356 607 400 638 q 288 523 313 576 q 263 400 263 469 l 263 0 l 104 0 m 535 842 q 472 857 497 842 q 424 888 446 872 q 374 904 401 904 q 335 890 351 904 q 314 844 318 875 l 225 844 q 279 967 236 926 q 382 1007 322 1007 q 445 992 419 1007 q 493 961 471 976 q 543 946 515 946 q 583 960 567 946 q 603 1004 599 974 l 692 1004 q 638 882 681 922 q 535 842 596 842 z "},"o":{"ha":886,"x_min":53,"x_max":833,"o":"m 436 -10 q 241 39 328 -10 q 103 176 154 88 q 53 383 53 265 q 105 590 53 503 q 246 726 157 678 q 443 775 335 775 q 641 726 553 775 q 781 590 729 678 q 833 383 833 503 q 780 176 833 265 q 636 39 726 88 q 436 -10 546 -10 m 436 128 q 549 156 496 128 q 637 242 603 185 q 671 383 671 299 q 638 526 671 469 q 552 610 604 582 q 440 638 500 638 q 329 610 381 638 q 246 526 278 582 q 214 383 214 469 q 244 242 214 299 q 326 156 275 185 q 436 128 376 128 z "},"ó":{"ha":886,"x_min":53,"x_max":833,"o":"m 436 -10 q 241 39 328 -10 q 103 176 154 88 q 53 383 53 265 q 105 590 53 503 q 246 726 157 678 q 443 775 335 775 q 641 726 553 775 q 781 590 729 678 q 833 383 833 503 q 780 176 833 265 q 636 39 726 88 q 436 -10 546 -10 m 436 128 q 549 156 496 128 q 637 242 603 185 q 671 383 671 299 q 638 526 671 469 q 552 610 604 582 q 440 638 500 638 q 329 610 381 638 q 246 526 278 582 q 214 383 214 469 q 244 242 214 299 q 326 156 275 185 q 436 128 376 128 m 586 1115 l 586 981 l 279 829 l 279 946 l 586 1115 z "},"ŏ":{"ha":886,"x_min":53,"x_max":833,"o":"m 436 -10 q 241 39 328 -10 q 103 176 154 88 q 53 383 53 265 q 105 590 53 503 q 246 726 157 678 q 443 775 335 775 q 641 726 553 775 q 781 590 729 678 q 833 383 833 503 q 780 176 833 265 q 636 39 726 88 q 436 -10 546 -10 m 436 128 q 549 156 496 128 q 637 242 603 185 q 671 383 671 299 q 638 526 671 469 q 552 610 604 582 q 440 638 500 638 q 329 610 381 638 q 246 526 278 582 q 214 383 214 469 q 244 242 214 299 q 326 156 275 185 q 436 128 376 128 m 443 839 q 290 893 346 839 q 235 1033 235 947 l 235 1063 l 325 1063 q 350 989 325 1015 q 443 963 375 963 q 536 989 511 963 q 561 1063 561 1015 l 653 1063 l 653 1032 q 597 892 653 946 q 443 839 542 839 z "},"ô":{"ha":886,"x_min":53,"x_max":833,"o":"m 436 -10 q 241 39 328 -10 q 103 176 154 88 q 53 383 53 265 q 105 590 53 503 q 246 726 157 678 q 443 775 335 775 q 641 726 553 775 q 781 590 729 678 q 833 383 833 503 q 780 176 833 265 q 636 39 726 88 q 436 -10 546 -10 m 436 128 q 549 156 496 128 q 637 242 603 185 q 671 383 671 299 q 638 526 671 469 q 552 610 604 582 q 440 638 500 638 q 329 610 381 638 q 246 526 278 582 q 214 383 214 469 q 244 242 214 299 q 326 156 275 185 q 436 128 376 128 m 642 829 l 443 949 l 244 829 l 244 953 l 443 1068 l 642 953 l 642 829 z "},"ö":{"ha":886,"x_min":53,"x_max":833,"o":"m 436 -10 q 241 39 328 -10 q 103 176 154 88 q 53 383 53 265 q 105 590 53 503 q 246 726 157 678 q 443 775 335 775 q 641 726 553 775 q 781 590 729 678 q 833 383 833 503 q 780 176 833 265 q 636 39 726 88 q 436 -10 546 -10 m 436 128 q 549 156 496 128 q 637 242 603 185 q 671 383 671 299 q 638 526 671 469 q 552 610 604 582 q 440 638 500 638 q 329 610 381 638 q 246 526 278 582 q 214 383 214 469 q 244 242 214 299 q 326 156 275 185 q 436 128 376 128 m 324 871 q 265 895 289 871 q 240 954 240 919 q 265 1013 240 989 q 324 1038 289 1038 q 383 1013 358 1038 q 407 954 407 989 q 383 895 407 919 q 324 871 358 871 m 563 871 q 503 895 528 871 q 479 954 479 919 q 503 1013 479 989 q 563 1038 528 1038 q 622 1013 597 1038 q 646 954 646 989 q 622 895 646 919 q 563 871 597 871 z "},"ò":{"ha":886,"x_min":53,"x_max":833,"o":"m 436 -10 q 241 39 328 -10 q 103 176 154 88 q 53 383 53 265 q 105 590 53 503 q 246 726 157 678 q 443 775 335 775 q 641 726 553 775 q 781 590 729 678 q 833 383 833 503 q 780 176 833 265 q 636 39 726 88 q 436 -10 546 -10 m 436 128 q 549 156 496 128 q 637 242 603 185 q 671 383 671 299 q 638 526 671 469 q 552 610 604 582 q 440 638 500 638 q 329 610 381 638 q 246 526 278 582 q 214 383 214 469 q 244 242 214 299 q 326 156 275 185 q 436 128 376 128 m 279 1115 l 586 946 l 586 829 l 279 981 l 279 1115 z "},"ő":{"ha":886,"x_min":53,"x_max":833,"o":"m 436 -10 q 241 39 328 -10 q 103 176 154 88 q 53 383 53 265 q 105 590 53 503 q 246 726 157 678 q 443 775 335 775 q 641 726 553 775 q 781 590 729 678 q 833 383 833 503 q 780 176 833 265 q 636 39 726 88 q 436 -10 546 -10 m 436 128 q 549 156 496 128 q 637 242 603 185 q 671 383 671 299 q 638 526 671 469 q 552 610 604 582 q 440 638 500 638 q 329 610 381 638 q 246 526 278 582 q 214 383 214 469 q 244 242 214 299 q 326 156 275 185 q 436 128 376 128 m 499 1081 l 368 844 l 265 844 l 361 1081 l 499 1081 m 729 1081 l 590 844 l 488 844 l 592 1081 l 729 1081 z "},"ō":{"ha":886,"x_min":53,"x_max":833,"o":"m 436 -10 q 241 39 328 -10 q 103 176 154 88 q 53 383 53 265 q 105 590 53 503 q 246 726 157 678 q 443 775 335 775 q 641 726 553 775 q 781 590 729 678 q 833 383 833 503 q 780 176 833 265 q 636 39 726 88 q 436 -10 546 -10 m 436 128 q 549 156 496 128 q 637 242 603 185 q 671 383 671 299 q 638 526 671 469 q 552 610 604 582 q 440 638 500 638 q 329 610 381 638 q 246 526 278 582 q 214 383 214 469 q 244 242 214 299 q 326 156 275 185 q 436 128 376 128 m 189 1010 l 697 1010 l 697 892 l 189 892 l 189 1010 z "},"ø":{"ha":886,"x_min":39,"x_max":847,"o":"m 738 765 l 847 765 l 149 0 l 39 0 l 738 765 m 436 -10 q 241 39 328 -10 q 103 176 154 88 q 53 383 53 265 q 105 590 53 503 q 246 726 157 678 q 443 775 335 775 q 641 726 553 775 q 781 590 729 678 q 833 383 833 503 q 780 176 833 265 q 636 39 726 88 q 436 -10 546 -10 m 436 128 q 549 156 496 128 q 637 242 603 185 q 671 383 671 299 q 638 526 671 469 q 552 610 604 582 q 440 638 500 638 q 329 610 381 638 q 246 526 278 582 q 214 383 214 469 q 244 242 214 299 q 326 156 275 185 q 436 128 376 128 z "},"õ":{"ha":886,"x_min":53,"x_max":833,"o":"m 436 -10 q 241 39 328 -10 q 103 176 154 88 q 53 383 53 265 q 105 590 53 503 q 246 726 157 678 q 443 775 335 775 q 641 726 553 775 q 781 590 729 678 q 833 383 833 503 q 780 176 833 265 q 636 39 726 88 q 436 -10 546 -10 m 436 128 q 549 156 496 128 q 637 242 603 185 q 671 383 671 299 q 638 526 671 469 q 552 610 604 582 q 440 638 500 638 q 329 610 381 638 q 246 526 278 582 q 214 383 214 469 q 244 242 214 299 q 326 156 275 185 q 436 128 376 128 m 526 851 q 463 867 489 851 q 415 898 438 882 q 365 914 393 914 q 326 899 343 914 q 306 854 310 885 l 217 854 q 271 976 228 936 q 374 1017 314 1017 q 437 1001 411 1017 q 485 971 463 986 q 535 956 507 956 q 574 969 558 956 q 594 1014 590 983 l 683 1014 q 630 892 672 932 q 526 851 588 851 z "},"œ":{"ha":1526,"x_min":53,"x_max":1474,"o":"m 436 -10 q 241 39 328 -10 q 103 176 154 88 q 53 383 53 265 q 105 590 53 503 q 246 726 157 678 q 443 775 335 775 q 641 726 553 775 q 781 590 729 678 q 833 383 833 503 q 780 176 833 265 q 636 39 726 88 q 436 -10 546 -10 m 436 128 q 549 156 496 128 q 637 242 603 185 q 671 383 671 299 q 638 526 671 469 q 552 610 604 582 q 440 638 500 638 q 329 610 381 638 q 246 526 278 582 q 214 383 214 469 q 244 242 214 299 q 326 156 275 185 q 436 128 376 128 m 1111 -10 q 942 19 1018 -10 q 813 101 867 49 q 731 224 760 154 q 703 378 703 294 q 735 541 703 468 q 824 667 768 614 q 954 747 881 719 q 1108 775 1028 775 q 1240 756 1181 775 q 1344 701 1300 736 q 1411 621 1388 667 q 1435 522 1435 575 q 1392 400 1435 449 q 1279 324 1349 351 q 1126 286 1210 296 q 961 281 1043 276 q 926 283 947 282 q 890 284 906 283 q 872 285 874 285 q 916 202 882 239 q 1001 144 950 165 q 1111 124 1053 124 q 1205 140 1158 124 q 1290 186 1251 157 q 1356 253 1329 215 l 1474 168 q 1370 67 1428 107 q 1247 9 1313 28 q 1111 -10 1182 -10 m 975 407 q 1079 412 1026 407 q 1177 430 1132 417 q 1250 467 1222 443 q 1278 528 1278 490 q 1258 585 1278 560 q 1201 626 1238 611 q 1117 642 1165 642 q 988 610 1044 642 q 898 525 931 578 q 863 411 865 472 q 911 408 882 410 q 975 407 940 407 z "},"p":{"ha":943,"x_min":104,"x_max":890,"o":"m 532 -10 q 367 38 439 -10 q 264 167 296 85 l 264 -364 l 104 -364 l 104 765 l 264 765 l 264 600 q 367 728 296 682 q 532 775 439 775 q 713 726 632 775 q 842 590 794 678 q 890 383 890 501 q 842 177 890 265 q 713 40 794 89 q 532 -10 632 -10 m 496 128 q 608 157 556 128 q 694 244 661 186 q 728 383 728 301 q 694 523 728 467 q 608 608 661 579 q 496 638 556 638 q 384 608 438 638 q 297 523 331 579 q 264 383 264 467 q 297 244 264 301 q 384 157 331 186 q 496 128 438 128 z "},"þ":{"ha":942,"x_min":104,"x_max":889,"o":"m 104 -364 l 104 1028 l 263 1028 l 263 629 q 367 733 299 692 q 529 775 435 775 q 712 727 631 775 q 841 592 793 679 q 889 386 889 504 q 841 179 889 268 q 712 40 793 90 q 529 -10 631 -10 q 367 34 435 -10 q 263 143 300 78 l 263 -364 l 104 -364 m 494 128 q 608 158 554 128 q 694 246 661 188 q 728 386 728 304 q 694 525 728 469 q 608 609 661 581 q 494 638 554 638 q 383 608 436 638 q 296 522 329 579 q 263 383 263 465 q 296 244 263 301 q 383 157 329 186 q 494 128 436 128 z "},"q":{"ha":942,"x_min":51,"x_max":838,"o":"m 678 -364 l 678 167 q 575 38 646 85 q 410 -10 504 -10 q 228 40 310 -10 q 99 177 147 89 q 51 383 51 265 q 99 590 51 501 q 228 726 147 678 q 410 775 310 775 q 575 728 504 775 q 678 600 646 682 l 678 765 l 838 765 l 838 -364 l 678 -364 m 446 128 q 558 157 506 128 q 644 244 611 186 q 678 383 678 301 q 644 523 678 467 q 558 608 611 579 q 446 638 506 638 q 334 608 388 638 q 247 523 281 579 q 214 383 214 467 q 247 244 214 301 q 334 157 281 186 q 446 128 388 128 z "},"r":{"ha":539,"x_min":104,"x_max":497,"o":"m 104 0 l 104 765 l 263 765 l 263 0 l 104 0 m 217 386 l 263 597 q 353 727 290 679 q 497 775 417 775 l 497 611 q 476 615 486 614 q 454 615 465 615 q 354 590 397 615 q 287 513 311 564 q 263 386 263 463 l 217 386 z "},"ŕ":{"ha":539,"x_min":104,"x_max":497,"o":"m 104 0 l 104 765 l 263 765 l 263 0 l 104 0 m 217 386 l 263 597 q 353 727 290 679 q 497 775 417 775 l 497 611 q 476 615 486 614 q 454 615 465 615 q 354 590 397 615 q 287 513 311 564 q 263 386 263 463 l 217 386 m 478 1106 l 478 971 l 171 819 l 171 936 l 478 1106 z "},"ř":{"ha":539,"x_min":104,"x_max":533,"o":"m 104 0 l 104 765 l 263 765 l 263 0 l 104 0 m 217 386 l 263 597 q 353 727 290 679 q 497 775 417 775 l 497 611 q 476 615 486 614 q 454 615 465 615 q 354 590 397 615 q 287 513 311 564 q 263 386 263 463 l 217 386 m 533 1058 l 533 935 l 335 819 l 136 935 l 136 1058 l 335 939 l 533 1058 z "},"ŗ":{"ha":563,"x_min":104,"x_max":521,"o":"m 104 -376 l 104 -304 q 172 -294 142 -307 q 222 -260 203 -281 q 242 -224 240 -239 q 194 -239 226 -239 q 135 -219 161 -239 q 108 -157 108 -200 q 138 -88 108 -114 q 208 -62 167 -62 q 266 -81 242 -62 q 304 -126 290 -99 q 318 -185 318 -154 q 287 -292 318 -247 q 207 -359 256 -337 q 104 -376 158 -381 m 128 0 l 128 765 l 286 765 l 286 0 l 128 0 m 240 386 l 286 597 q 377 727 314 679 q 521 775 440 775 l 521 611 q 499 615 510 614 q 478 615 489 615 q 378 590 421 615 q 310 513 335 564 q 286 386 286 463 l 240 386 z "},"s":{"ha":729,"x_min":63,"x_max":663,"o":"m 369 -10 q 225 19 289 -10 q 119 96 161 47 q 63 201 78 144 l 214 235 q 270 153 228 183 q 367 124 313 124 q 472 149 436 124 q 507 214 507 175 q 475 272 507 251 q 392 307 443 293 q 285 336 342 321 q 177 376 228 351 q 94 444 126 401 q 63 556 63 486 q 99 667 63 617 q 201 746 135 717 q 357 775 267 775 q 494 750 435 775 q 593 680 554 725 q 646 572 632 635 l 494 533 q 446 614 481 586 q 351 642 411 642 q 255 619 288 642 q 222 557 222 596 q 254 498 222 519 q 336 462 286 476 q 442 432 386 447 q 549 392 499 417 q 631 326 599 368 q 663 215 663 283 q 627 104 663 156 q 526 22 592 53 q 369 -10 460 -10 z "},"ś":{"ha":729,"x_min":63,"x_max":663,"o":"m 369 -10 q 225 19 289 -10 q 119 96 161 47 q 63 201 78 144 l 214 235 q 270 153 228 183 q 367 124 313 124 q 472 149 436 124 q 507 214 507 175 q 475 272 507 251 q 392 307 443 293 q 285 336 342 321 q 177 376 228 351 q 94 444 126 401 q 63 556 63 486 q 99 667 63 617 q 201 746 135 717 q 357 775 267 775 q 494 750 435 775 q 593 680 554 725 q 646 572 632 635 l 494 533 q 446 614 481 586 q 351 642 411 642 q 255 619 288 642 q 222 557 222 596 q 254 498 222 519 q 336 462 286 476 q 442 432 386 447 q 549 392 499 417 q 631 326 599 368 q 663 215 663 283 q 627 104 663 156 q 526 22 592 53 q 369 -10 460 -10 m 500 1115 l 500 981 l 193 829 l 193 946 l 500 1115 z "},"š":{"ha":729,"x_min":63,"x_max":663,"o":"m 369 -10 q 225 19 289 -10 q 119 96 161 47 q 63 201 78 144 l 214 235 q 270 153 228 183 q 367 124 313 124 q 472 149 436 124 q 507 214 507 175 q 475 272 507 251 q 392 307 443 293 q 285 336 342 321 q 177 376 228 351 q 94 444 126 401 q 63 556 63 486 q 99 667 63 617 q 201 746 135 717 q 357 775 267 775 q 494 750 435 775 q 593 680 554 725 q 646 572 632 635 l 494 533 q 446 614 481 586 q 351 642 411 642 q 255 619 288 642 q 222 557 222 596 q 254 498 222 519 q 336 462 286 476 q 442 432 386 447 q 549 392 499 417 q 631 326 599 368 q 663 215 663 283 q 627 104 663 156 q 526 22 592 53 q 369 -10 460 -10 m 556 1068 l 556 944 l 357 829 l 158 944 l 158 1068 l 357 949 l 556 1068 z "},"ş":{"ha":729,"x_min":63,"x_max":663,"o":"m 369 -10 q 225 19 289 -10 q 119 96 161 47 q 63 201 78 144 l 214 235 q 270 153 228 183 q 367 124 313 124 q 472 149 436 124 q 507 214 507 175 q 475 272 507 251 q 392 307 443 293 q 285 336 342 321 q 177 376 228 351 q 94 444 126 401 q 63 556 63 486 q 99 667 63 617 q 201 746 135 717 q 357 775 267 775 q 494 750 435 775 q 593 680 554 725 q 646 572 632 635 l 494 533 q 446 614 481 586 q 351 642 411 642 q 255 619 288 642 q 222 557 222 596 q 254 498 222 519 q 336 462 286 476 q 442 432 386 447 q 549 392 499 417 q 631 326 599 368 q 663 215 663 283 q 627 104 663 156 q 526 22 592 53 q 369 -10 460 -10 m 415 -67 q 508 -83 467 -67 q 572 -132 549 -100 q 596 -212 596 -164 q 572 -294 596 -260 q 509 -346 549 -328 q 419 -364 469 -364 l 236 -364 l 236 -264 l 388 -264 q 444 -253 424 -264 q 465 -212 465 -243 q 444 -171 465 -181 q 388 -161 424 -161 l 311 -161 l 311 10 l 415 10 l 415 -67 z "},"ș":{"ha":729,"x_min":63,"x_max":663,"o":"m 278 -376 l 278 -304 q 346 -294 315 -307 q 395 -260 376 -281 q 415 -224 414 -239 q 368 -239 400 -239 q 308 -219 335 -239 q 282 -157 282 -200 q 311 -88 282 -114 q 382 -62 340 -62 q 440 -81 415 -62 q 478 -126 464 -99 q 492 -185 492 -154 q 461 -292 492 -247 q 381 -359 431 -337 q 278 -376 332 -381 m 369 -10 q 225 19 289 -10 q 119 96 161 47 q 63 201 78 144 l 214 235 q 270 153 228 183 q 367 124 313 124 q 472 149 436 124 q 507 214 507 175 q 475 272 507 251 q 392 307 443 293 q 285 336 342 321 q 177 376 228 351 q 94 444 126 401 q 63 556 63 486 q 99 667 63 617 q 201 746 135 717 q 357 775 267 775 q 494 750 435 775 q 593 680 554 725 q 646 572 632 635 l 494 533 q 446 614 481 586 q 351 642 411 642 q 255 619 288 642 q 222 557 222 596 q 254 498 222 519 q 336 462 286 476 q 442 432 386 447 q 549 392 499 417 q 631 326 599 368 q 663 215 663 283 q 627 104 663 156 q 526 22 592 53 q 369 -10 460 -10 z "},"ß":{"ha":971,"x_min":75,"x_max":896,"o":"m 75 781 q 111 926 75 860 q 223 1033 147 993 q 419 1074 299 1074 q 597 1039 526 1074 q 703 949 668 1004 q 739 835 739 894 q 720 743 739 782 q 673 675 701 704 q 617 624 644 646 q 570 582 589 601 q 551 542 551 563 q 563 513 551 526 q 606 483 575 499 q 697 447 638 468 q 850 356 804 413 q 896 215 896 299 q 863 97 896 149 q 767 15 829 44 q 615 -14 704 -14 q 411 52 490 -14 q 322 240 332 118 l 483 240 q 517 147 483 182 q 615 113 551 113 q 703 135 672 113 q 733 203 733 157 q 707 275 733 247 q 607 326 681 303 q 444 406 497 363 q 392 519 392 450 q 410 594 392 561 q 458 654 429 626 q 515 708 486 682 q 562 761 543 733 q 581 822 581 789 q 536 910 581 879 q 417 942 492 942 q 274 894 314 942 q 233 760 233 846 l 233 0 l 75 0 l 75 781 z "},"t":{"ha":574,"x_min":39,"x_max":532,"o":"m 361 -10 q 215 50 274 -10 q 157 213 157 110 l 157 636 l 39 636 l 39 765 l 503 765 l 503 636 l 317 636 l 317 203 q 337 147 317 164 q 381 131 357 131 q 418 138 401 131 q 450 160 435 144 l 532 61 q 453 7 493 24 q 361 -10 413 -10 m 96 706 l 96 765 q 141 782 125 765 q 157 828 157 799 l 157 956 l 317 956 l 317 854 q 307 816 317 835 q 280 784 297 797 q 242 765 263 771 l 96 706 z "},"ť":{"ha":574,"x_min":39,"x_max":613,"o":"m 361 -10 q 215 50 274 -10 q 157 213 157 110 l 157 636 l 39 636 l 39 765 l 503 765 l 503 636 l 317 636 l 317 203 q 337 147 317 164 q 381 131 357 131 q 418 138 401 131 q 450 160 435 144 l 532 61 q 453 7 493 24 q 361 -10 413 -10 m 96 706 l 96 765 q 141 782 125 765 q 157 828 157 799 l 157 956 l 317 956 l 317 854 q 307 816 317 835 q 280 784 297 797 q 242 765 263 771 l 96 706 m 399 858 l 399 931 q 467 941 436 928 q 516 975 497 954 q 536 1011 535 996 q 489 996 521 996 q 429 1015 456 996 q 403 1078 403 1035 q 432 1147 403 1121 q 503 1172 461 1172 q 560 1154 536 1172 q 599 1108 585 1136 q 613 1050 613 1081 q 582 942 613 988 q 502 876 551 897 q 399 858 453 854 z "},"ţ":{"ha":551,"x_min":39,"x_max":532,"o":"m 361 -11 q 215 49 274 -11 q 157 211 157 108 l 157 636 l 39 636 l 39 765 l 96 765 q 141 782 125 765 q 157 828 157 799 l 157 956 l 317 956 l 317 854 q 307 816 317 835 q 280 784 297 797 q 242 765 263 771 l 503 765 l 503 636 l 317 636 l 317 201 q 337 146 317 163 q 381 129 357 129 q 418 136 401 129 q 450 158 435 143 l 532 60 q 453 6 493 22 q 361 -11 413 -11 m 165 -364 l 165 -264 l 317 -264 q 374 -253 353 -264 q 394 -212 394 -243 q 374 -171 394 -181 q 317 -161 353 -161 l 240 -161 l 240 83 l 344 83 l 344 -67 q 437 -83 396 -67 q 501 -132 478 -100 q 525 -212 525 -164 q 501 -294 525 -260 q 438 -346 478 -328 q 349 -364 399 -364 l 165 -364 z "},"ț":{"ha":574,"x_min":39,"x_max":532,"o":"m 150 -376 l 150 -304 q 218 -294 188 -307 q 267 -260 249 -281 q 288 -224 286 -239 q 240 -239 272 -239 q 181 -219 207 -239 q 154 -157 154 -200 q 183 -88 154 -114 q 254 -62 213 -62 q 312 -81 288 -62 q 350 -126 336 -99 q 364 -185 364 -154 q 333 -292 364 -247 q 253 -359 301 -337 q 150 -376 204 -381 m 361 -10 q 215 50 274 -10 q 157 213 157 110 l 157 636 l 39 636 l 39 765 l 503 765 l 503 636 l 317 636 l 317 203 q 337 147 317 164 q 381 131 357 131 q 418 138 401 131 q 450 160 435 144 l 532 61 q 453 7 493 24 q 361 -10 413 -10 m 96 706 l 96 765 q 141 782 125 765 q 157 828 157 799 l 157 956 l 317 956 l 317 854 q 307 816 317 835 q 280 784 297 797 q 242 765 263 771 l 96 706 z "},"u":{"ha":901,"x_min":97,"x_max":797,"o":"m 639 89 l 639 765 l 797 765 l 797 0 l 728 0 q 664 25 689 0 q 639 89 639 50 m 397 -10 q 240 27 308 -10 q 135 136 172 64 q 97 315 97 208 l 97 765 l 254 765 l 254 349 q 307 185 254 243 q 446 128 360 128 q 548 158 504 128 q 615 242 592 189 q 639 363 639 294 l 667 322 q 624 135 663 208 q 526 26 586 61 q 397 -10 467 -10 z "},"ú":{"ha":901,"x_min":97,"x_max":797,"o":"m 639 89 l 639 765 l 797 765 l 797 0 l 728 0 q 664 25 689 0 q 639 89 639 50 m 397 -10 q 240 27 308 -10 q 135 136 172 64 q 97 315 97 208 l 97 765 l 254 765 l 254 349 q 307 185 254 243 q 446 128 360 128 q 548 158 504 128 q 615 242 592 189 q 639 363 639 294 l 667 322 q 624 135 663 208 q 526 26 586 61 q 397 -10 467 -10 m 589 1106 l 589 971 l 282 819 l 282 936 l 589 1106 z "},"ŭ":{"ha":901,"x_min":97,"x_max":797,"o":"m 639 89 l 639 765 l 797 765 l 797 0 l 728 0 q 664 25 689 0 q 639 89 639 50 m 397 -10 q 240 27 308 -10 q 135 136 172 64 q 97 315 97 208 l 97 765 l 254 765 l 254 349 q 307 185 254 243 q 446 128 360 128 q 548 158 504 128 q 615 242 592 189 q 639 363 639 294 l 667 322 q 624 135 663 208 q 526 26 586 61 q 397 -10 467 -10 m 446 829 q 293 883 349 829 q 238 1024 238 938 l 238 1053 l 328 1053 q 353 979 328 1006 q 446 953 378 953 q 539 979 514 953 q 564 1053 564 1006 l 656 1053 l 656 1022 q 600 883 656 936 q 446 829 544 829 z "},"û":{"ha":901,"x_min":97,"x_max":797,"o":"m 639 89 l 639 765 l 797 765 l 797 0 l 728 0 q 664 25 689 0 q 639 89 639 50 m 397 -10 q 240 27 308 -10 q 135 136 172 64 q 97 315 97 208 l 97 765 l 254 765 l 254 349 q 307 185 254 243 q 446 128 360 128 q 548 158 504 128 q 615 242 592 189 q 639 363 639 294 l 667 322 q 624 135 663 208 q 526 26 586 61 q 397 -10 467 -10 m 644 819 l 446 939 l 247 819 l 247 943 l 446 1058 l 644 943 l 644 819 z "},"ü":{"ha":901,"x_min":97,"x_max":797,"o":"m 639 89 l 639 765 l 797 765 l 797 0 l 728 0 q 664 25 689 0 q 639 89 639 50 m 397 -10 q 240 27 308 -10 q 135 136 172 64 q 97 315 97 208 l 97 765 l 254 765 l 254 349 q 307 185 254 243 q 446 128 360 128 q 548 158 504 128 q 615 242 592 189 q 639 363 639 294 l 667 322 q 624 135 663 208 q 526 26 586 61 q 397 -10 467 -10 m 326 861 q 267 885 292 861 q 243 944 243 910 q 267 1003 243 979 q 326 1028 292 1028 q 385 1003 361 1028 q 410 944 410 979 q 385 885 410 910 q 326 861 361 861 m 565 861 q 506 885 531 861 q 482 944 482 910 q 506 1003 482 979 q 565 1028 531 1028 q 624 1003 600 1028 q 649 944 649 979 q 624 885 649 910 q 565 861 600 861 z "},"ù":{"ha":901,"x_min":97,"x_max":797,"o":"m 639 89 l 639 765 l 797 765 l 797 0 l 728 0 q 664 25 689 0 q 639 89 639 50 m 397 -10 q 240 27 308 -10 q 135 136 172 64 q 97 315 97 208 l 97 765 l 254 765 l 254 349 q 307 185 254 243 q 446 128 360 128 q 548 158 504 128 q 615 242 592 189 q 639 363 639 294 l 667 322 q 624 135 663 208 q 526 26 586 61 q 397 -10 467 -10 m 282 1106 l 589 936 l 589 819 l 282 971 l 282 1106 z "},"ű":{"ha":901,"x_min":97,"x_max":797,"o":"m 639 89 l 639 765 l 797 765 l 797 0 l 728 0 q 664 25 689 0 q 639 89 639 50 m 397 -10 q 240 27 308 -10 q 135 136 172 64 q 97 315 97 208 l 97 765 l 254 765 l 254 349 q 307 185 254 243 q 446 128 360 128 q 548 158 504 128 q 615 242 592 189 q 639 363 639 294 l 667 322 q 624 135 663 208 q 526 26 586 61 q 397 -10 467 -10 m 501 1071 l 371 835 l 268 835 l 364 1071 l 501 1071 m 732 1071 l 593 835 l 490 835 l 594 1071 l 732 1071 z "},"ū":{"ha":901,"x_min":97,"x_max":797,"o":"m 639 89 l 639 765 l 797 765 l 797 0 l 728 0 q 664 25 689 0 q 639 89 639 50 m 397 -10 q 240 27 308 -10 q 135 136 172 64 q 97 315 97 208 l 97 765 l 254 765 l 254 349 q 307 185 254 243 q 446 128 360 128 q 548 158 504 128 q 615 242 592 189 q 639 363 639 294 l 667 322 q 624 135 663 208 q 526 26 586 61 q 397 -10 467 -10 m 192 1000 l 700 1000 l 700 882 l 192 882 l 192 1000 z "},"ų":{"ha":901,"x_min":97,"x_max":818,"o":"m 397 -10 q 240 27 308 -10 q 135 136 172 64 q 97 315 97 208 l 97 765 l 254 765 l 254 349 q 307 185 254 243 q 446 128 360 128 q 548 158 504 128 q 615 242 592 189 q 639 363 639 294 l 639 765 l 797 765 l 797 0 l 728 0 q 664 25 689 0 q 639 89 639 50 l 639 154 q 592 75 628 113 q 505 14 556 38 q 397 -10 454 -10 m 756 81 l 797 0 l 729 -35 q 667 -79 685 -57 q 650 -126 650 -101 q 671 -173 650 -156 q 726 -190 692 -190 q 818 -171 768 -190 l 818 -272 q 765 -287 794 -282 q 706 -293 736 -293 q 619 -278 663 -293 q 549 -231 576 -264 q 521 -143 521 -199 q 538 -74 521 -107 q 593 -8 554 -40 q 697 54 632 25 l 756 81 z "},"ů":{"ha":901,"x_min":97,"x_max":797,"o":"m 639 89 l 639 765 l 797 765 l 797 0 l 728 0 q 664 25 689 0 q 639 89 639 50 m 397 -10 q 240 27 308 -10 q 135 136 172 64 q 97 315 97 208 l 97 765 l 254 765 l 254 349 q 307 185 254 243 q 446 128 360 128 q 548 158 504 128 q 615 242 592 189 q 639 363 639 294 l 667 322 q 624 135 663 208 q 526 26 586 61 q 397 -10 467 -10 m 603 992 q 557 881 603 922 q 446 840 511 840 q 336 881 382 840 q 290 992 290 922 q 336 1103 290 1063 q 446 1144 382 1144 q 557 1103 511 1144 q 603 992 603 1063 m 514 993 q 494 1044 514 1025 q 446 1064 474 1064 q 399 1044 419 1064 q 379 993 379 1025 q 399 942 379 963 q 446 922 419 922 q 494 942 474 922 q 514 993 514 963 z "},"ũ":{"ha":901,"x_min":97,"x_max":797,"o":"m 639 89 l 639 765 l 797 765 l 797 0 l 728 0 q 664 25 689 0 q 639 89 639 50 m 397 -10 q 240 27 308 -10 q 135 136 172 64 q 97 315 97 208 l 97 765 l 254 765 l 254 349 q 307 185 254 243 q 446 128 360 128 q 548 158 504 128 q 615 242 592 189 q 639 363 639 294 l 667 322 q 624 135 663 208 q 526 26 586 61 q 397 -10 467 -10 m 529 842 q 466 857 492 842 q 418 888 440 872 q 368 904 396 904 q 329 890 346 904 q 308 844 313 875 l 219 844 q 274 967 231 926 q 376 1007 317 1007 q 440 992 414 1007 q 488 961 465 976 q 538 946 510 946 q 577 960 561 946 q 597 1004 593 974 l 686 1004 q 633 882 675 922 q 529 842 590 842 z "},"v":{"ha":800,"x_min":14,"x_max":785,"o":"m 183 765 l 400 142 l 617 765 l 785 765 l 493 0 l 304 0 l 14 765 l 183 765 z "},"w":{"ha":1146,"x_min":14,"x_max":1132,"o":"m 14 765 l 175 765 l 361 50 l 308 50 l 497 765 l 663 765 l 844 50 l 792 50 l 976 765 l 1132 765 l 894 0 l 728 0 l 543 679 l 606 679 l 419 0 l 253 0 l 14 765 z "},"ẃ":{"ha":1146,"x_min":14,"x_max":1132,"o":"m 14 765 l 175 765 l 361 50 l 308 50 l 497 765 l 663 765 l 844 50 l 792 50 l 976 765 l 1132 765 l 894 0 l 728 0 l 543 679 l 606 679 l 419 0 l 253 0 l 14 765 m 801 1106 l 801 971 l 494 819 l 494 936 l 801 1106 z "},"ŵ":{"ha":1146,"x_min":14,"x_max":1132,"o":"m 14 765 l 175 765 l 361 50 l 308 50 l 497 765 l 663 765 l 844 50 l 792 50 l 976 765 l 1132 765 l 894 0 l 728 0 l 543 679 l 606 679 l 419 0 l 253 0 l 14 765 m 772 819 l 574 939 l 375 819 l 375 943 l 574 1058 l 772 943 l 772 819 z "},"ẅ":{"ha":1146,"x_min":14,"x_max":1132,"o":"m 14 765 l 175 765 l 361 50 l 308 50 l 497 765 l 663 765 l 844 50 l 792 50 l 976 765 l 1132 765 l 894 0 l 728 0 l 543 679 l 606 679 l 419 0 l 253 0 l 14 765 m 454 861 q 395 885 419 861 q 371 944 371 910 q 395 1003 371 979 q 454 1028 419 1028 q 513 1003 489 1028 q 538 944 538 979 q 513 885 538 910 q 454 861 489 861 m 693 861 q 634 885 658 861 q 610 944 610 910 q 634 1003 610 979 q 693 1028 658 1028 q 752 1003 728 1028 q 776 944 776 979 q 752 885 776 910 q 693 861 728 861 z "},"ẁ":{"ha":1146,"x_min":14,"x_max":1132,"o":"m 14 765 l 175 765 l 361 50 l 308 50 l 497 765 l 663 765 l 844 50 l 792 50 l 976 765 l 1132 765 l 894 0 l 728 0 l 543 679 l 606 679 l 419 0 l 253 0 l 14 765 m 351 1106 l 658 936 l 658 819 l 351 971 l 351 1106 z "},"x":{"ha":693,"x_min":14,"x_max":679,"o":"m 14 765 l 193 765 l 679 0 l 500 0 l 14 765 m 367 313 l 179 0 l 14 0 l 299 435 l 367 313 m 326 454 l 514 765 l 679 765 l 396 332 l 326 454 z "},"y":{"ha":863,"x_min":42,"x_max":779,"o":"m 621 -11 l 621 765 l 779 765 l 779 -11 q 754 -158 779 -92 q 681 -272 729 -224 q 563 -347 632 -321 q 403 -374 493 -374 q 240 -344 311 -374 q 119 -255 169 -314 q 42 -110 69 -196 l 186 -58 q 267 -190 215 -142 q 400 -239 319 -239 q 560 -180 499 -239 q 621 -11 621 -121 m 654 340 q 623 167 650 233 q 554 65 596 100 q 467 18 513 31 q 379 6 421 6 q 222 42 290 6 q 117 151 154 79 q 79 331 79 224 l 79 765 l 236 765 l 236 364 q 289 201 236 258 q 428 143 342 143 q 530 174 486 143 q 597 257 574 204 q 621 378 621 310 l 654 340 z "},"ý":{"ha":863,"x_min":42,"x_max":779,"o":"m 621 -11 l 621 765 l 779 765 l 779 -11 q 754 -158 779 -92 q 681 -272 729 -224 q 563 -347 632 -321 q 403 -374 493 -374 q 240 -344 311 -374 q 119 -255 169 -314 q 42 -110 69 -196 l 186 -58 q 267 -190 215 -142 q 400 -239 319 -239 q 560 -180 499 -239 q 621 -11 621 -121 m 654 340 q 623 167 650 233 q 554 65 596 100 q 467 18 513 31 q 379 6 421 6 q 222 42 290 6 q 117 151 154 79 q 79 331 79 224 l 79 765 l 236 765 l 236 364 q 289 201 236 258 q 428 143 342 143 q 530 174 486 143 q 597 257 574 204 q 621 378 621 310 l 654 340 m 569 1106 l 569 971 l 263 819 l 263 936 l 569 1106 z "},"ŷ":{"ha":863,"x_min":42,"x_max":779,"o":"m 621 -11 l 621 765 l 779 765 l 779 -11 q 754 -158 779 -92 q 681 -272 729 -224 q 563 -347 632 -321 q 403 -374 493 -374 q 240 -344 311 -374 q 119 -255 169 -314 q 42 -110 69 -196 l 186 -58 q 267 -190 215 -142 q 400 -239 319 -239 q 560 -180 499 -239 q 621 -11 621 -121 m 654 340 q 623 167 650 233 q 554 65 596 100 q 467 18 513 31 q 379 6 421 6 q 222 42 290 6 q 117 151 154 79 q 79 331 79 224 l 79 765 l 236 765 l 236 364 q 289 201 236 258 q 428 143 342 143 q 530 174 486 143 q 597 257 574 204 q 621 378 621 310 l 654 340 m 625 819 l 426 939 l 228 819 l 228 943 l 426 1058 l 625 943 l 625 819 z "},"ÿ":{"ha":863,"x_min":42,"x_max":779,"o":"m 621 -11 l 621 765 l 779 765 l 779 -11 q 754 -158 779 -92 q 681 -272 729 -224 q 563 -347 632 -321 q 403 -374 493 -374 q 240 -344 311 -374 q 119 -255 169 -314 q 42 -110 69 -196 l 186 -58 q 267 -190 215 -142 q 400 -239 319 -239 q 560 -180 499 -239 q 621 -11 621 -121 m 654 340 q 623 167 650 233 q 554 65 596 100 q 467 18 513 31 q 379 6 421 6 q 222 42 290 6 q 117 151 154 79 q 79 331 79 224 l 79 765 l 236 765 l 236 364 q 289 201 236 258 q 428 143 342 143 q 530 174 486 143 q 597 257 574 204 q 621 378 621 310 l 654 340 m 307 861 q 248 885 272 861 q 224 944 224 910 q 248 1003 224 979 q 307 1028 272 1028 q 366 1003 342 1028 q 390 944 390 979 q 366 885 390 910 q 307 861 342 861 m 546 861 q 487 885 511 861 q 463 944 463 910 q 487 1003 463 979 q 546 1028 511 1028 q 605 1003 581 1028 q 629 944 629 979 q 605 885 629 910 q 546 861 581 861 z "},"ỳ":{"ha":863,"x_min":42,"x_max":779,"o":"m 621 -11 l 621 765 l 779 765 l 779 -11 q 754 -158 779 -92 q 681 -272 729 -224 q 563 -347 632 -321 q 403 -374 493 -374 q 240 -344 311 -374 q 119 -255 169 -314 q 42 -110 69 -196 l 186 -58 q 267 -190 215 -142 q 400 -239 319 -239 q 560 -180 499 -239 q 621 -11 621 -121 m 654 340 q 623 167 650 233 q 554 65 596 100 q 467 18 513 31 q 379 6 421 6 q 222 42 290 6 q 117 151 154 79 q 79 331 79 224 l 79 765 l 236 765 l 236 364 q 289 201 236 258 q 428 143 342 143 q 530 174 486 143 q 597 257 574 204 q 621 378 621 310 l 654 340 m 263 1106 l 569 936 l 569 819 l 263 971 l 263 1106 z "},"ỹ":{"ha":863,"x_min":42,"x_max":779,"o":"m 621 -11 l 621 765 l 779 765 l 779 -11 q 754 -158 779 -92 q 681 -272 729 -224 q 563 -347 632 -321 q 403 -374 493 -374 q 240 -344 311 -374 q 119 -255 169 -314 q 42 -110 69 -196 l 186 -58 q 267 -190 215 -142 q 400 -239 319 -239 q 560 -180 499 -239 q 621 -11 621 -121 m 654 340 q 623 167 650 233 q 554 65 596 100 q 467 18 513 31 q 379 6 421 6 q 222 42 290 6 q 117 151 154 79 q 79 331 79 224 l 79 765 l 236 765 l 236 364 q 289 201 236 258 q 428 143 342 143 q 530 174 486 143 q 597 257 574 204 q 621 378 621 310 l 654 340 m 510 842 q 447 857 472 842 q 399 888 421 872 q 349 904 376 904 q 310 890 326 904 q 289 844 293 875 l 200 844 q 254 967 211 926 q 357 1007 297 1007 q 420 992 394 1007 q 468 961 446 976 q 518 946 490 946 q 558 960 542 946 q 578 1004 574 974 l 667 1004 q 613 882 656 922 q 510 842 571 842 z "},"z":{"ha":654,"x_min":61,"x_max":592,"o":"m 592 636 l 244 129 l 592 129 l 592 0 l 61 0 l 61 129 l 410 636 l 61 636 l 61 765 l 592 765 l 592 636 z "},"ź":{"ha":654,"x_min":61,"x_max":592,"o":"m 592 636 l 244 129 l 592 129 l 592 0 l 61 0 l 61 129 l 410 636 l 61 636 l 61 765 l 592 765 l 592 636 m 471 1106 l 471 971 l 164 819 l 164 936 l 471 1106 z "},"ž":{"ha":654,"x_min":61,"x_max":592,"o":"m 592 636 l 244 129 l 592 129 l 592 0 l 61 0 l 61 129 l 410 636 l 61 636 l 61 765 l 592 765 l 592 636 m 526 1058 l 526 935 l 328 819 l 129 935 l 129 1058 l 328 939 l 526 1058 z "},"ż":{"ha":654,"x_min":61,"x_max":592,"o":"m 592 636 l 244 129 l 592 129 l 592 0 l 61 0 l 61 129 l 410 636 l 61 636 l 61 765 l 592 765 l 592 636 m 328 861 q 269 885 293 861 q 244 944 244 910 q 269 1003 244 979 q 328 1028 293 1028 q 387 1003 363 1028 q 411 944 411 979 q 387 885 411 910 q 328 861 363 861 z "},"ﬁ":{"ha":850,"x_min":67,"x_max":789,"o":"m 157 0 l 157 636 l 67 636 l 67 765 l 157 765 l 157 819 q 174 933 157 886 q 227 1012 192 981 q 317 1058 263 1043 q 447 1072 372 1072 l 447 940 q 371 928 400 940 q 329 890 342 917 q 317 819 317 864 l 317 765 l 682 765 l 682 636 l 317 636 l 317 0 l 157 0 m 589 0 l 589 765 l 747 765 l 747 0 l 589 0 m 669 867 q 585 899 619 867 q 550 978 550 931 q 585 1058 550 1025 q 669 1090 619 1090 q 753 1058 718 1090 q 789 978 789 1025 q 753 899 789 931 q 669 867 718 867 z "},"ﬂ":{"ha":874,"x_min":33,"x_max":846,"o":"m 124 0 l 124 636 l 33 636 l 33 765 l 124 765 l 124 819 q 141 933 124 886 q 194 1012 158 981 q 284 1058 229 1043 q 414 1072 339 1072 l 414 940 q 338 928 367 940 q 296 890 308 917 q 283 819 283 864 l 283 765 l 425 765 l 425 636 l 283 636 l 283 0 l 124 0 m 750 -10 q 663 9 706 -10 q 592 69 619 28 q 564 175 564 110 l 564 1028 l 722 1028 l 722 189 q 740 142 722 158 q 783 125 758 125 q 813 131 800 125 l 846 14 q 750 -10 806 -10 z "},"ª":{"ha":633,"x_min":43,"x_max":575,"o":"m 43 736 q 74 866 43 810 q 159 953 106 922 q 276 985 213 985 q 385 962 342 985 q 451 910 428 939 q 496 828 479 875 q 513 736 513 782 q 497 642 513 689 q 451 554 482 594 q 385 503 429 525 q 281 482 342 482 q 160 515 214 482 q 75 605 107 547 q 43 736 43 663 m 171 735 q 214 619 171 660 q 311 578 257 578 q 409 618 367 578 q 451 733 451 658 q 409 849 451 808 q 311 889 367 889 q 214 849 257 889 q 171 735 171 810 m 451 540 l 451 976 l 575 976 l 575 490 l 501 490 q 465 504 479 490 q 451 540 451 518 z "},"º":{"ha":617,"x_min":43,"x_max":574,"o":"m 306 482 q 171 513 231 482 q 77 601 111 544 q 43 733 43 658 q 78 867 43 811 q 174 954 114 924 q 308 985 233 985 q 444 954 385 985 q 539 867 504 924 q 574 733 574 811 q 538 601 574 658 q 442 513 503 544 q 306 482 381 482 m 306 579 q 402 618 358 579 q 446 732 446 657 q 403 849 446 810 q 307 889 360 889 q 213 849 254 889 q 171 732 171 810 q 211 618 171 657 q 306 579 251 579 z "},"π":{"ha":981,"x_min":43,"x_max":931,"o":"m 43 765 l 931 765 l 931 642 l 824 642 l 824 0 l 667 0 l 667 642 l 307 642 l 307 0 l 149 0 l 149 642 l 43 642 l 43 765 z "}," ":{"ha":361,"x_min":0,"x_max":0,"o":""}," ":{"ha":361,"x_min":0,"x_max":0,"o":""},".":{"ha":365,"x_min":67,"x_max":299,"o":"m 183 -10 q 101 22 135 -10 q 67 99 67 53 q 101 176 67 144 q 183 207 135 207 q 265 176 232 207 q 299 99 299 144 q 265 22 299 53 q 183 -10 232 -10 z "},",":{"ha":313,"x_min":14,"x_max":278,"o":"m 14 -167 l 14 -87 q 94 -77 58 -90 q 155 -40 131 -64 q 186 10 179 -17 q 158 -5 174 0 q 126 -10 142 -10 q 51 14 83 -10 q 19 90 19 38 q 56 175 19 143 q 143 207 92 207 q 213 185 183 207 q 260 128 243 163 q 278 56 278 94 q 240 -73 278 -21 q 141 -149 201 -125 q 14 -167 81 -172 z "},":":{"ha":371,"x_min":67,"x_max":299,"o":"m 183 -10 q 101 22 135 -10 q 67 99 67 53 q 101 176 67 144 q 183 207 135 207 q 265 176 232 207 q 299 99 299 144 q 265 22 299 53 q 183 -10 232 -10 m 183 574 q 101 605 135 574 q 67 682 67 636 q 101 759 67 728 q 183 790 135 790 q 265 759 232 790 q 299 682 299 728 q 265 605 299 636 q 183 574 232 574 z "},";":{"ha":403,"x_min":67,"x_max":331,"o":"m 196 574 q 113 605 147 574 q 79 682 79 636 q 113 759 79 728 q 196 790 147 790 q 278 759 244 790 q 311 682 311 728 q 278 605 311 636 q 196 574 244 574 m 67 -167 l 67 -87 q 147 -77 111 -90 q 208 -40 183 -64 q 239 10 232 -17 q 210 -5 226 0 q 179 -10 194 -10 q 104 14 136 -10 q 72 90 72 38 q 108 175 72 143 q 196 207 144 207 q 266 185 236 207 q 313 128 296 163 q 331 56 331 94 q 292 -73 331 -21 q 194 -149 254 -125 q 67 -167 133 -172 z "},"…":{"ha":917,"x_min":67,"x_max":858,"o":"m 463 -10 q 380 22 414 -10 q 346 99 346 53 q 380 176 346 144 q 463 207 414 207 q 544 176 511 207 q 578 99 578 144 q 544 22 578 53 q 463 -10 511 -10 m 743 -10 q 660 22 694 -10 q 626 99 626 53 q 660 176 626 144 q 743 207 694 207 q 825 176 792 207 q 858 99 858 144 q 825 22 858 53 q 743 -10 792 -10 m 183 -10 q 101 22 135 -10 q 67 99 67 53 q 101 176 67 144 q 183 207 135 207 q 265 176 232 207 q 299 99 299 144 q 265 22 299 53 q 183 -10 232 -10 z "},"!":{"ha":468,"x_min":118,"x_max":350,"o":"m 150 965 l 318 965 l 300 292 l 168 292 l 150 965 m 235 -10 q 152 22 186 -10 q 118 99 118 53 q 152 176 118 144 q 235 207 186 207 q 317 176 283 207 q 350 99 350 144 q 317 22 350 53 q 235 -10 283 -10 z "},"¡":{"ha":468,"x_min":118,"x_max":350,"o":"m 150 -187 l 168 486 l 300 486 l 318 -187 l 150 -187 m 235 788 q 317 756 283 788 q 350 679 350 725 q 317 602 350 633 q 235 571 283 571 q 152 602 186 571 q 118 679 118 633 q 152 756 118 725 q 235 788 186 788 z "},"?":{"ha":743,"x_min":56,"x_max":672,"o":"m 204 297 l 197 515 l 285 515 q 405 534 351 515 q 490 592 458 553 q 521 692 521 631 q 478 802 521 758 q 361 846 436 846 q 254 805 297 846 q 197 693 211 764 l 56 732 q 104 855 67 799 q 206 945 142 911 q 360 979 271 979 q 523 945 453 979 q 633 847 593 911 q 672 692 672 782 q 630 538 672 601 q 514 440 588 474 q 347 407 440 407 l 342 297 l 204 297 m 286 -10 q 203 22 238 -10 q 169 99 169 53 q 203 176 169 144 q 286 207 238 207 q 368 176 335 207 q 401 99 401 144 q 368 22 401 53 q 286 -10 335 -10 z "},"¿":{"ha":743,"x_min":71,"x_max":688,"o":"m 539 472 l 546 254 l 458 254 q 338 235 392 254 q 253 178 285 217 q 222 78 222 139 q 265 -33 222 11 q 382 -76 307 -76 q 489 -35 446 -76 q 546 76 532 6 l 688 38 q 640 -85 678 -29 q 537 -176 601 -142 q 383 -210 472 -210 q 220 -176 290 -210 q 110 -77 150 -142 q 71 78 71 -12 q 113 233 71 169 q 229 329 156 296 q 396 363 303 363 l 401 472 l 539 472 m 457 779 q 540 748 506 779 q 574 671 574 717 q 540 594 574 625 q 457 563 506 563 q 376 594 410 563 q 342 671 342 625 q 376 748 342 717 q 457 779 410 779 z "},"·":{"ha":369,"x_min":72,"x_max":304,"o":"m 189 364 q 106 395 140 364 q 72 472 72 426 q 106 549 72 518 q 189 581 140 581 q 271 549 238 581 q 304 472 304 518 q 271 395 304 426 q 189 364 238 364 z "},"•":{"ha":642,"x_min":139,"x_max":503,"o":"m 319 282 q 228 306 269 282 q 163 372 188 331 q 139 463 139 413 q 163 555 139 514 q 228 620 188 596 q 319 644 269 644 q 413 620 371 644 q 478 555 454 596 q 503 463 503 514 q 478 372 503 413 q 413 306 454 331 q 319 282 371 282 z "},"*":{"ha":700,"x_min":88,"x_max":607,"o":"m 385 825 l 544 949 l 607 838 l 417 767 l 607 696 l 543 582 l 385 707 l 414 506 l 286 506 l 313 707 l 154 579 l 88 697 l 276 768 l 88 836 l 151 950 l 314 825 l 286 1028 l 415 1028 l 385 825 z "},"#":{"ha":1211,"x_min":43,"x_max":1128,"o":"m 422 1028 l 574 1028 l 354 0 l 203 0 l 422 1028 m 846 1028 l 997 1028 l 778 0 l 626 0 l 846 1028 m 43 396 l 1046 396 l 1046 257 l 43 257 l 43 396 m 125 775 l 1128 775 l 1128 636 l 125 636 l 125 775 z "},"/":{"ha":713,"x_min":85,"x_max":617,"o":"m 461 1311 l 617 1311 l 240 -243 l 85 -243 l 461 1311 z "},"\\":{"ha":996,"x_min":228,"x_max":800,"o":"m 800 -243 l 644 -243 l 228 1311 l 383 1311 l 800 -243 z "},"-":{"ha":813,"x_min":165,"x_max":736,"o":"m 165 569 l 736 569 l 736 436 l 165 436 l 165 569 z "},"–":{"ha":983,"x_min":121,"x_max":864,"o":"m 121 569 l 864 569 l 864 436 l 121 436 l 121 569 z "},"—":{"ha":1283,"x_min":121,"x_max":1163,"o":"m 121 569 l 1163 569 l 1163 436 l 121 436 l 121 569 z "},"_":{"ha":1108,"x_min":175,"x_max":950,"o":"m 175 -56 l 950 -56 l 950 -203 l 175 -203 l 175 -56 z "},"(":{"ha":683,"x_min":172,"x_max":654,"o":"m 454 -258 q 300 -49 363 -169 q 205 213 238 71 q 172 506 172 354 q 206 803 172 657 q 308 1077 239 950 q 482 1297 376 1204 l 654 1297 q 470 1063 543 1196 q 361 787 397 931 q 325 506 325 643 q 360 231 325 368 q 464 -33 396 93 q 629 -258 532 -158 l 454 -258 z "},")":{"ha":683,"x_min":29,"x_max":511,"o":"m 229 -258 l 54 -258 q 219 -33 151 -158 q 323 231 288 93 q 358 506 358 368 q 322 787 358 643 q 213 1063 286 931 q 29 1297 140 1196 l 201 1297 q 376 1077 307 1204 q 478 803 444 950 q 511 506 511 657 q 479 213 511 354 q 384 -49 447 71 q 229 -258 321 -169 z "},"{":{"ha":717,"x_min":175,"x_max":592,"o":"m 175 460 l 175 579 q 277 619 242 586 q 313 707 313 653 q 307 827 313 760 q 295 964 301 894 q 289 1090 289 1033 q 348 1246 289 1192 q 499 1300 407 1300 l 592 1300 l 592 1163 l 531 1163 q 465 1142 488 1163 q 443 1078 443 1122 q 449 965 443 1031 q 460 831 454 900 q 465 701 465 761 q 431 585 465 633 q 321 521 397 536 l 321 518 q 431 455 397 503 q 465 338 465 407 q 460 208 465 278 q 449 74 454 139 q 443 -39 443 10 q 465 -103 443 -83 q 531 -124 488 -124 l 592 -124 l 592 -261 l 499 -261 q 348 -207 407 -261 q 289 -51 289 -153 q 295 76 289 7 q 307 212 301 144 q 313 332 313 279 q 277 419 313 386 q 175 460 242 453 z "},"}":{"ha":717,"x_min":125,"x_max":542,"o":"m 542 460 q 440 419 475 453 q 404 332 404 386 q 410 212 404 279 q 422 76 417 144 q 428 -51 428 7 q 369 -207 428 -153 q 218 -261 310 -261 l 125 -261 l 125 -124 l 186 -124 q 252 -103 231 -124 q 274 -39 274 -83 q 268 74 274 10 q 257 208 263 139 q 251 338 251 278 q 285 455 251 407 q 396 518 319 503 l 396 521 q 285 585 319 536 q 251 701 251 633 q 257 831 251 761 q 268 965 263 900 q 274 1078 274 1031 q 252 1142 274 1122 q 186 1163 231 1163 l 125 1163 l 125 1300 l 218 1300 q 369 1246 310 1300 q 428 1090 428 1192 q 422 964 428 1033 q 410 827 417 894 q 404 707 404 760 q 440 619 404 653 q 542 579 475 586 l 542 460 z "},"[":{"ha":674,"x_min":206,"x_max":494,"o":"m 206 1297 l 494 1297 l 494 1167 l 354 1167 l 354 -126 l 494 -126 l 494 -258 l 206 -258 l 206 1297 z "},"]":{"ha":672,"x_min":178,"x_max":467,"o":"m 467 1297 l 467 -258 l 178 -258 l 178 -126 l 318 -126 l 318 1167 l 178 1167 l 178 1297 l 467 1297 z "},"‚":{"ha":313,"x_min":14,"x_max":278,"o":"m 14 -167 l 14 -87 q 133 -58 92 -85 q 186 10 175 -31 q 158 -5 174 0 q 126 -10 142 -10 q 51 14 83 -10 q 19 90 19 38 q 56 175 19 143 q 143 207 92 207 q 213 185 183 207 q 260 128 243 163 q 278 56 278 94 q 242 -70 278 -21 q 147 -143 207 -119 q 14 -167 88 -167 z "},"„":{"ha":604,"x_min":14,"x_max":569,"o":"m 14 -167 l 14 -87 q 133 -58 92 -85 q 186 10 175 -31 q 158 -5 174 0 q 126 -10 142 -10 q 51 14 83 -10 q 19 90 19 38 q 56 175 19 143 q 143 207 92 207 q 213 185 183 207 q 260 128 243 163 q 278 56 278 94 q 242 -70 278 -21 q 147 -143 207 -119 q 14 -167 88 -167 m 306 -167 l 306 -87 q 425 -58 383 -85 q 478 10 467 -31 q 449 -5 465 0 q 418 -10 433 -10 q 343 14 375 -10 q 311 90 311 38 q 347 175 311 143 q 435 207 383 207 q 505 185 475 207 q 552 128 535 163 q 569 56 569 94 q 534 -70 569 -21 q 439 -143 499 -119 q 306 -167 379 -167 z "},"“":{"ha":608,"x_min":35,"x_max":564,"o":"m 285 965 l 285 890 q 175 863 217 890 q 122 797 133 836 q 183 818 147 818 q 231 807 208 818 q 267 774 253 796 q 281 721 281 753 q 247 640 281 671 q 163 610 213 610 q 96 631 125 610 q 51 685 67 651 q 35 754 35 718 q 69 874 35 828 q 161 943 104 921 q 285 965 218 965 m 564 965 l 564 890 q 454 863 496 890 q 401 797 413 836 q 463 818 426 818 q 510 807 488 818 q 546 774 532 796 q 560 721 560 753 q 526 640 560 671 q 442 610 492 610 q 376 631 404 610 q 331 685 347 651 q 314 754 314 718 q 349 874 314 828 q 440 943 383 921 q 564 965 497 965 z "},"”":{"ha":608,"x_min":44,"x_max":574,"o":"m 44 619 l 44 694 q 158 722 118 694 q 207 788 197 749 q 181 773 196 778 q 151 768 167 768 q 79 790 110 768 q 49 864 49 813 q 83 944 49 914 q 167 975 117 975 q 233 954 204 975 q 278 900 263 933 q 294 831 294 867 q 261 711 294 758 q 172 642 228 664 q 44 619 115 619 m 324 619 l 324 694 q 437 722 397 694 q 486 788 476 749 q 460 773 475 778 q 431 768 446 768 q 358 790 389 768 q 328 864 328 813 q 362 944 328 914 q 446 975 396 975 q 513 954 483 975 q 558 900 542 933 q 574 831 574 867 q 540 711 574 758 q 451 642 507 664 q 324 619 394 619 z "},"‘":{"ha":329,"x_min":35,"x_max":285,"o":"m 285 965 l 285 890 q 175 863 217 890 q 122 797 133 836 q 149 812 133 807 q 178 817 164 817 q 250 794 219 817 q 281 721 281 772 q 247 640 281 671 q 163 610 213 610 q 96 631 125 610 q 51 685 67 651 q 35 754 35 718 q 69 874 35 828 q 161 943 104 921 q 285 965 218 965 z "},"’":{"ha":329,"x_min":44,"x_max":294,"o":"m 44 619 l 44 694 q 158 722 118 694 q 207 788 197 749 q 181 773 196 778 q 151 768 167 768 q 79 790 110 768 q 49 864 49 813 q 83 944 49 914 q 167 975 117 975 q 233 954 204 975 q 278 900 263 933 q 294 831 294 867 q 261 711 294 758 q 172 642 228 664 q 44 619 115 619 z "},"«":{"ha":679,"x_min":63,"x_max":610,"o":"m 343 167 l 190 167 l 63 410 l 190 653 l 343 653 l 210 410 l 343 167 m 610 167 l 457 167 l 329 410 l 457 653 l 610 653 l 476 410 l 610 167 z "},"»":{"ha":679,"x_min":69,"x_max":617,"o":"m 336 167 l 468 410 l 336 653 l 488 653 l 617 410 l 488 167 l 336 167 m 69 167 l 201 410 l 69 653 l 221 653 l 350 410 l 221 167 l 69 167 z "},"‹":{"ha":413,"x_min":63,"x_max":343,"o":"m 343 167 l 190 167 l 63 410 l 190 653 l 343 653 l 210 410 l 343 167 z "},"›":{"ha":413,"x_min":69,"x_max":350,"o":"m 69 167 l 201 410 l 69 653 l 221 653 l 350 410 l 221 167 l 69 167 z "},"\"":{"ha":449,"x_min":47,"x_max":400,"o":"m 47 1107 l 190 1107 l 174 822 l 65 822 l 47 1107 m 257 1107 l 400 1107 l 383 822 l 275 822 l 257 1107 z "},"'":{"ha":239,"x_min":47,"x_max":190,"o":"m 47 1107 l 190 1107 l 174 822 l 65 822 l 47 1107 z "},"ƒ":{"ha":461,"x_min":-78,"x_max":443,"o":"m -78 -301 l -64 -171 l -42 -171 q 9 -151 -8 -171 q 31 -89 26 -132 l 126 819 q 217 1012 142 951 q 443 1072 293 1072 l 429 940 q 325 913 357 940 q 286 819 293 885 l 189 -89 q 151 -214 182 -167 q 71 -281 121 -261 q -47 -301 21 -301 l -78 -301 m 17 636 l 29 765 l 421 765 l 408 636 l 17 636 z "},"@":{"ha":1424,"x_min":97,"x_max":1326,"o":"m 847 164 l 847 208 l 879 157 q 766 37 842 83 q 604 -10 690 -10 q 436 56 496 -10 q 376 231 376 121 q 401 381 376 310 q 472 508 426 453 q 581 597 518 564 q 721 629 644 629 q 851 592 804 629 q 917 479 899 554 l 875 458 l 903 617 l 1040 617 l 971 219 q 972 130 963 164 q 1033 96 982 96 q 1108 128 1076 96 q 1159 210 1139 160 q 1189 318 1179 261 q 1199 425 1199 375 q 1153 624 1199 543 q 1017 746 1107 704 q 797 788 928 788 q 568 742 672 788 q 388 617 464 697 q 269 428 311 536 q 226 193 226 319 q 274 -8 226 74 q 413 -130 322 -89 q 633 -171 504 -171 q 751 -160 690 -171 q 864 -122 811 -149 l 885 -228 q 748 -269 819 -256 q 601 -282 676 -282 q 335 -225 449 -282 q 160 -64 222 -168 q 97 181 97 40 q 150 461 97 331 q 299 690 203 592 q 527 842 396 788 q 817 897 658 897 q 1092 838 978 897 q 1266 675 1206 779 q 1326 432 1326 571 q 1306 273 1326 351 q 1244 131 1285 194 q 1145 28 1204 67 q 1010 -10 1086 -10 q 881 38 921 -10 q 847 164 842 85 m 722 508 q 615 471 660 508 q 547 375 571 433 q 524 254 524 317 q 554 153 524 193 q 653 113 585 113 q 760 147 713 113 q 835 238 807 182 q 863 357 863 293 q 847 434 863 400 q 800 488 831 468 q 722 508 769 508 z "},"&":{"ha":1057,"x_min":49,"x_max":1057,"o":"m 850 0 l 325 526 q 228 649 256 596 q 201 765 201 701 q 234 879 201 829 q 327 958 267 929 q 469 988 388 988 q 610 956 554 988 q 694 870 665 924 q 726 750 724 817 l 583 718 q 545 820 583 782 q 463 858 507 858 q 388 831 415 858 q 360 765 360 804 q 382 688 360 726 q 457 596 404 649 l 1057 0 l 850 0 m 396 -18 q 214 18 292 -18 q 92 121 136 54 q 49 278 49 188 q 117 471 49 386 q 324 599 185 556 l 381 617 l 465 513 l 399 490 q 253 405 300 457 q 207 283 207 353 q 231 199 207 238 q 297 139 254 161 q 396 117 339 117 q 515 140 460 117 q 617 213 569 164 q 707 333 665 261 l 818 525 l 957 461 l 857 290 q 728 119 797 188 q 578 16 660 50 q 396 -18 497 -18 z "},"¶":{"ha":875,"x_min":49,"x_max":771,"o":"m 771 965 l 771 0 l 631 0 l 631 842 l 538 842 l 538 0 l 397 0 l 397 392 q 206 431 283 392 q 88 535 128 469 q 49 678 49 600 q 83 822 49 757 q 191 926 118 888 q 378 965 264 965 l 771 965 z "},"§":{"ha":803,"x_min":57,"x_max":746,"o":"m 403 -294 q 253 -268 319 -294 q 149 -190 188 -242 q 111 -65 111 -139 l 269 -65 q 287 -127 272 -100 q 331 -169 301 -154 q 403 -185 360 -185 q 505 -158 468 -185 q 542 -78 542 -131 q 524 -23 542 -46 q 458 24 506 0 q 324 78 411 47 q 178 144 238 108 q 88 228 118 181 q 57 339 57 275 q 86 450 57 400 q 173 535 115 500 q 317 585 231 571 l 301 525 q 201 578 246 550 q 129 647 156 607 q 103 742 103 686 q 138 857 103 804 q 240 941 174 910 q 400 972 307 972 q 550 946 485 972 q 653 868 615 919 q 692 743 692 817 l 533 743 q 516 806 531 779 q 473 847 501 832 q 400 863 444 863 q 298 835 335 863 q 261 756 261 808 q 279 701 261 724 q 345 655 297 678 q 479 600 393 632 q 625 533 565 569 q 715 451 685 497 q 746 339 746 404 q 717 230 746 279 q 631 144 689 181 q 485 88 574 108 l 501 153 q 602 100 557 129 q 674 32 647 71 q 700 -64 700 -7 q 665 -178 700 -126 q 563 -262 629 -231 q 403 -294 496 -294 m 404 194 q 536 238 489 194 q 583 339 583 281 q 533 442 583 400 q 400 483 483 483 q 267 440 315 483 q 219 339 219 397 q 269 238 219 281 q 404 194 319 194 z "},"©":{"ha":1096,"x_min":64,"x_max":1032,"o":"m 549 -12 q 296 51 406 -12 q 125 226 186 114 q 64 483 64 338 q 125 740 64 629 q 296 915 186 851 q 549 978 406 978 q 801 915 692 978 q 971 740 910 851 q 1032 483 1032 629 q 971 226 1032 338 q 801 51 910 114 q 549 -12 692 -12 m 549 51 q 769 106 676 51 q 912 257 861 160 q 963 483 963 354 q 912 710 963 614 q 769 860 861 807 q 549 914 676 914 q 328 860 421 914 q 184 710 235 807 q 133 483 133 614 q 184 257 133 354 q 328 106 235 160 q 549 51 421 51 m 549 161 q 391 201 460 161 q 283 313 322 240 q 244 482 244 385 q 283 651 244 579 q 391 763 322 724 q 549 803 460 803 q 676 783 621 803 q 769 721 731 763 q 828 614 807 679 l 706 575 q 644 665 683 635 q 549 694 606 694 q 458 669 497 694 q 398 597 419 644 q 376 482 376 550 q 398 367 376 414 q 458 294 419 319 q 549 269 497 269 q 656 305 614 269 q 715 401 697 340 l 835 372 q 782 266 818 314 q 688 190 746 218 q 549 161 631 161 z "},"®":{"ha":718,"x_min":69,"x_max":649,"o":"m 360 399 q 210 436 275 399 q 107 539 144 474 q 69 689 69 604 q 107 839 69 774 q 210 942 144 904 q 360 979 275 979 q 509 942 444 979 q 611 839 574 904 q 649 689 649 774 q 611 539 649 604 q 509 436 574 474 q 360 399 444 399 m 360 463 q 521 525 461 463 q 581 689 581 588 q 521 853 581 790 q 360 915 461 915 q 199 853 258 915 q 139 689 139 790 q 199 525 139 588 q 360 463 258 463 m 399 543 q 394 588 399 564 q 376 630 390 613 q 328 647 361 647 l 328 543 l 240 543 l 240 842 l 381 842 q 458 815 429 842 q 488 744 488 789 q 446 665 488 692 q 479 634 467 653 q 497 593 492 615 q 503 543 503 571 l 399 543 m 328 718 l 375 718 q 394 724 386 718 q 401 742 401 729 q 394 758 401 753 q 375 764 386 764 l 328 764 l 328 718 z "},"™":{"ha":1126,"x_min":33,"x_max":1042,"o":"m 33 965 l 374 965 l 374 871 l 264 871 l 264 476 l 143 476 l 143 871 l 33 871 l 33 965 m 454 965 l 615 965 l 771 564 l 725 564 l 889 965 l 1042 965 l 1042 476 l 925 476 l 925 878 l 958 886 l 788 476 l 703 476 l 538 886 l 567 878 l 567 476 l 454 476 l 454 965 z "},"°":{"ha":593,"x_min":39,"x_max":554,"o":"m 293 482 q 161 513 218 482 q 72 599 104 543 q 39 729 39 654 q 72 860 39 806 q 165 945 106 915 q 297 975 224 975 q 429 945 371 975 q 521 860 488 915 q 554 729 554 806 q 520 599 554 654 q 427 513 486 543 q 293 482 368 482 m 293 575 q 386 613 344 575 q 428 729 428 651 q 388 846 428 807 q 294 885 347 885 q 203 846 243 885 q 164 729 164 807 q 203 613 164 651 q 293 575 242 575 z "},"|":{"ha":450,"x_min":146,"x_max":304,"o":"m 304 1113 l 304 -157 l 146 -157 l 146 1113 l 304 1113 z "},"¦":{"ha":450,"x_min":146,"x_max":304,"o":"m 304 382 l 304 -157 l 146 -157 l 146 382 l 304 382 m 146 574 l 146 1113 l 304 1113 l 304 574 l 146 574 z "},"†":{"ha":811,"x_min":68,"x_max":743,"o":"m 743 765 l 743 642 l 468 656 l 485 -364 l 326 -364 l 343 656 l 68 642 l 68 765 l 343 751 l 326 1088 l 485 1088 l 468 751 l 743 765 z "},"ℓ":{"ha":414,"x_min":104,"x_max":386,"o":"m 104 175 l 104 1028 l 263 1028 l 263 189 q 281 142 263 158 q 324 125 299 125 q 353 131 340 125 l 386 14 q 290 -10 346 -10 q 203 9 246 -10 q 132 69 160 28 q 104 175 104 110 z "},"‡":{"ha":813,"x_min":69,"x_max":743,"o":"m 743 642 l 468 656 l 468 69 l 743 83 l 743 -40 l 468 -26 l 485 -364 l 326 -364 l 343 -26 l 69 -40 l 69 83 l 343 69 l 343 656 l 69 642 l 69 765 l 343 751 l 326 1088 l 485 1088 l 468 751 l 743 765 l 743 642 z "},"℮":{"ha":1051,"x_min":60,"x_max":992,"o":"m 538 -10 q 293 45 401 -10 q 122 206 185 100 q 60 461 60 311 q 114 723 60 606 q 272 909 168 840 q 525 978 376 978 q 724 940 638 978 q 871 839 811 903 q 961 694 931 775 q 992 525 992 613 l 992 439 l 269 439 l 269 203 q 386 119 322 147 q 538 90 450 90 q 724 135 642 90 q 888 260 807 179 l 951 189 q 763 43 865 96 q 538 -10 660 -10 m 269 538 l 772 538 l 772 779 q 666 853 729 828 q 525 879 603 879 q 381 851 446 879 q 269 765 315 824 l 269 538 z "},"¢":{"ha":954,"x_min":92,"x_max":781,"o":"m 457 -10 q 255 42 336 -10 q 133 177 174 93 q 92 361 92 261 q 137 547 92 463 q 261 682 182 631 q 444 733 340 733 q 593 710 529 733 q 701 637 657 686 q 771 511 746 588 l 628 468 q 556 572 601 536 q 444 607 510 607 q 339 576 385 607 q 267 490 293 544 q 242 361 242 435 q 268 235 242 289 q 343 151 294 181 q 457 121 392 121 q 544 139 510 121 q 603 191 579 157 q 640 272 626 225 l 781 239 q 719 113 760 169 q 614 24 678 57 q 457 -10 550 -10 m 411 -122 l 411 90 l 501 90 l 501 -122 l 411 -122 m 411 631 l 411 843 l 501 843 l 501 631 l 411 631 z "},"¤":{"ha":761,"x_min":83,"x_max":678,"o":"m 378 276 q 246 307 303 276 q 156 393 189 338 q 124 524 124 449 q 157 655 124 600 q 249 740 190 710 q 381 771 307 771 q 514 740 456 771 q 606 655 572 710 q 639 524 639 600 q 605 393 639 449 q 512 307 571 338 q 378 276 453 276 m 154 228 l 83 299 l 204 421 l 283 357 l 154 228 m 608 228 l 488 347 l 561 415 l 678 299 l 608 228 m 378 375 q 467 413 426 375 q 507 524 507 450 q 468 635 507 597 q 379 674 429 674 q 292 635 329 674 q 254 524 254 597 q 291 413 254 450 q 378 375 328 375 m 204 632 l 83 751 l 154 822 l 279 697 l 204 632 m 553 625 l 482 696 l 608 822 l 678 751 l 553 625 z "},"$":{"ha":914,"x_min":83,"x_max":767,"o":"m 389 -121 l 389 1089 l 479 1089 l 479 -121 l 389 -121 m 433 -10 q 262 27 338 -10 q 140 128 186 64 q 83 275 93 192 l 250 306 q 314 175 265 222 q 433 128 363 128 q 562 165 517 128 q 607 264 607 203 q 579 343 607 314 q 506 390 551 372 q 406 422 460 408 q 297 452 351 435 q 196 499 242 469 q 122 576 150 528 q 94 700 94 624 q 136 847 94 785 q 253 942 178 908 q 426 975 328 975 q 579 942 508 975 q 696 853 650 908 q 749 729 742 797 l 586 688 q 528 800 572 760 q 418 840 483 840 q 335 826 372 840 q 277 782 299 811 q 256 706 256 753 q 283 631 256 660 q 357 585 311 603 q 457 554 403 568 q 565 522 511 540 q 665 474 619 504 q 739 396 711 444 q 767 272 767 347 q 728 135 767 200 q 616 31 690 71 q 433 -10 542 -10 z "},"€":{"ha":1107,"x_min":36,"x_max":1069,"o":"m 36 544 l 36 653 l 629 653 l 629 544 l 36 544 m 36 314 l 36 422 l 629 422 l 629 314 l 36 314 m 631 975 q 815 942 731 975 q 964 843 900 908 q 1063 681 1028 778 l 931 633 q 814 783 894 729 q 633 836 733 836 q 462 792 538 836 q 342 669 386 749 q 299 483 299 590 q 342 299 299 378 q 459 176 385 219 q 629 133 533 133 q 746 156 688 133 q 852 221 804 178 q 925 326 900 264 l 1069 283 q 967 124 1033 189 q 815 24 901 58 q 629 -10 729 -10 q 437 26 526 -10 q 280 128 347 63 q 174 285 213 194 q 136 483 136 375 q 174 682 136 592 q 281 838 213 772 q 438 939 349 903 q 631 975 528 975 z "},"₺":{"ha":1181,"x_min":15,"x_max":1011,"o":"m 499 -21 q 369 -12 438 -21 q 228 14 301 -3 l 228 974 l 390 974 l 390 138 q 446 130 419 132 q 499 128 472 128 q 665 160 597 128 q 772 252 732 192 q 831 399 813 313 q 849 594 849 485 l 1011 594 q 959 251 1011 388 q 794 47 907 114 q 499 -21 681 -21 m 21 288 l 21 400 l 611 533 l 611 422 l 21 288 m 15 517 l 15 625 l 618 764 l 618 653 l 15 517 z "},"₽":{"ha":882,"x_min":36,"x_max":835,"o":"m 36 515 l 493 515 q 629 560 586 515 q 672 678 672 606 q 629 797 672 753 q 493 842 586 842 l 318 842 l 318 0 l 160 0 l 160 965 l 493 965 q 684 926 608 965 q 797 822 760 888 q 835 678 835 757 q 801 544 835 610 q 694 435 768 478 q 493 392 619 392 l 36 392 l 36 515 m 36 278 l 594 278 l 594 151 l 36 151 l 36 278 z "},"₨":{"ha":1594,"x_min":104,"x_max":1471,"o":"m 104 0 l 104 965 l 438 965 q 627 926 551 965 q 741 823 703 888 q 779 681 779 758 q 719 521 779 583 q 567 436 658 458 q 701 349 642 411 q 798 199 760 288 q 847 0 836 110 l 678 0 q 628 186 668 103 q 511 319 589 269 q 402 367 464 350 q 263 383 340 383 l 263 0 l 104 0 m 263 513 l 438 513 q 570 560 524 513 q 617 676 617 608 q 570 792 617 747 q 438 836 524 836 l 263 836 l 263 513 m 1178 -10 q 1033 19 1097 -10 q 928 96 969 47 q 871 201 886 144 l 1022 235 q 1078 153 1036 183 q 1175 124 1121 124 q 1280 149 1244 124 q 1315 214 1315 175 q 1283 272 1315 251 q 1201 307 1251 293 q 1093 336 1150 321 q 985 376 1036 351 q 903 444 935 401 q 871 556 871 486 q 907 667 871 617 q 1009 746 943 717 q 1165 775 1075 775 q 1303 750 1243 775 q 1401 680 1363 725 q 1454 572 1440 635 l 1303 533 q 1254 614 1289 586 q 1160 642 1219 642 q 1063 619 1096 642 q 1031 557 1031 596 q 1063 498 1031 519 q 1144 462 1094 476 q 1251 432 1194 447 q 1357 392 1307 417 q 1439 326 1407 368 q 1471 215 1471 283 q 1435 104 1471 156 q 1334 22 1400 53 q 1178 -10 1268 -10 z "},"₹":{"ha":864,"x_min":64,"x_max":819,"o":"m 658 890 l 658 701 q 623 505 658 579 q 503 397 588 431 q 271 363 419 363 l 271 275 q 301 158 271 206 q 414 110 331 110 q 524 153 492 110 q 556 269 556 197 l 701 269 q 625 57 700 128 q 411 -14 550 -14 q 196 65 269 -14 q 122 282 122 143 l 122 472 q 333 481 256 472 q 449 512 411 489 q 498 581 486 535 q 510 701 510 626 l 510 890 l 658 890 m 64 967 l 819 967 l 819 851 l 64 851 l 64 967 m 64 614 l 64 728 l 819 728 l 819 614 l 64 614 z "},"£":{"ha":897,"x_min":58,"x_max":775,"o":"m 121 0 l 101 100 q 187 209 158 156 q 219 315 215 263 q 206 419 222 367 l 58 419 l 58 535 l 174 535 q 153 608 163 569 q 144 701 144 647 q 187 864 144 796 q 303 969 229 932 q 468 1006 376 1006 q 622 971 554 1006 q 729 874 689 936 q 772 726 769 811 l 628 707 q 603 794 624 758 q 547 851 582 831 q 464 871 513 871 q 381 853 418 871 q 321 796 343 835 q 299 693 299 757 q 308 611 299 650 q 331 535 318 572 l 599 535 l 599 419 l 363 419 q 349 267 379 340 q 243 132 319 193 l 775 132 l 775 0 l 121 0 z "},"¥":{"ha":840,"x_min":21,"x_max":819,"o":"m 513 549 l 778 549 l 778 432 l 493 432 l 513 549 m 64 308 l 778 308 l 778 194 l 64 194 l 64 308 m 21 965 l 197 965 l 457 417 l 383 417 l 642 965 l 819 965 l 500 350 l 500 0 l 342 0 l 342 350 l 21 965 m 64 549 l 354 549 l 374 432 l 64 432 l 64 549 z "},"+":{"ha":903,"x_min":97,"x_max":806,"o":"m 525 856 l 525 147 l 378 147 l 378 856 l 525 856 m 97 568 l 806 568 l 806 435 l 97 435 l 97 568 z "},"−":{"ha":903,"x_min":165,"x_max":736,"o":"m 165 569 l 736 569 l 736 436 l 165 436 l 165 569 z "},"×":{"ha":903,"x_min":138,"x_max":765,"o":"m 244 815 l 765 293 l 664 192 l 143 714 l 244 815 m 138 296 l 658 815 l 763 711 l 242 192 l 138 296 z "},"÷":{"ha":903,"x_min":97,"x_max":806,"o":"m 97 569 l 806 569 l 806 436 l 97 436 l 97 569 m 469 104 q 387 135 421 104 q 353 213 353 167 q 387 290 353 258 q 469 321 421 321 q 551 290 518 321 q 585 213 585 258 q 551 135 585 167 q 469 104 518 104 m 469 701 q 387 733 421 701 q 353 810 353 764 q 387 887 353 856 q 469 918 421 918 q 551 887 518 918 q 585 810 585 856 q 551 733 585 764 q 469 701 518 701 z "},"=":{"ha":903,"x_min":82,"x_max":821,"o":"m 82 411 l 821 411 l 821 278 l 82 278 l 82 411 m 82 726 l 821 726 l 821 593 l 82 593 l 82 726 z "},"≠":{"ha":903,"x_min":82,"x_max":821,"o":"m 704 857 l 821 857 l 199 146 l 82 146 l 704 857 m 82 411 l 821 411 l 821 278 l 82 278 l 82 411 m 82 726 l 821 726 l 821 593 l 82 593 l 82 726 z "},">":{"ha":903,"x_min":192,"x_max":711,"o":"m 513 501 l 192 817 l 392 817 l 711 501 l 392 186 l 192 186 l 513 501 z "},"<":{"ha":903,"x_min":192,"x_max":711,"o":"m 711 186 l 511 186 l 192 501 l 511 817 l 711 817 l 390 501 l 711 186 z "},"≥":{"ha":903,"x_min":188,"x_max":715,"o":"m 188 289 l 521 568 l 521 540 l 188 817 l 394 817 l 715 553 l 394 289 l 188 289 m 706 213 l 706 93 l 193 93 l 193 213 l 706 213 z "},"≤":{"ha":903,"x_min":188,"x_max":715,"o":"m 196 213 l 708 213 l 708 93 l 196 93 l 196 213 m 715 289 l 507 289 l 188 553 l 507 817 l 715 817 l 381 540 l 381 568 l 715 289 z "},"±":{"ha":903,"x_min":99,"x_max":806,"o":"m 526 863 l 526 231 l 379 231 l 379 863 l 526 863 m 99 650 l 806 650 l 806 517 l 99 517 l 99 650 m 99 310 l 806 310 l 806 176 l 99 176 l 99 310 z "},"≈":{"ha":903,"x_min":118,"x_max":786,"o":"m 564 247 q 492 261 522 247 q 435 292 461 275 q 384 324 410 310 q 328 338 358 338 q 266 315 293 338 q 232 250 239 293 l 118 250 q 197 425 139 371 q 339 479 256 479 q 412 465 381 479 q 469 434 443 451 q 520 403 494 417 q 576 389 546 389 q 638 411 610 389 q 671 476 665 433 l 786 476 q 706 301 765 356 q 564 247 647 247 m 564 556 q 492 569 522 556 q 435 601 461 583 q 384 632 410 618 q 328 646 358 646 q 266 624 293 646 q 232 558 239 601 l 118 558 q 197 733 139 679 q 339 788 256 788 q 412 774 381 788 q 469 742 443 760 q 520 711 494 725 q 576 697 546 697 q 638 719 610 697 q 671 785 665 742 l 786 785 q 706 610 765 664 q 564 556 647 556 z "},"~":{"ha":768,"x_min":50,"x_max":718,"o":"m 496 328 q 424 342 454 328 q 367 373 393 356 q 316 404 342 390 q 260 418 290 418 q 198 396 225 418 q 164 331 171 374 l 50 331 q 129 506 71 451 q 271 560 188 560 q 344 546 313 560 q 401 515 375 532 q 452 483 426 497 q 508 469 478 469 q 569 492 542 469 q 603 557 597 514 l 718 557 q 638 382 697 436 q 496 328 579 328 z "},"¬":{"ha":903,"x_min":51,"x_max":840,"o":"m 51 604 l 840 604 l 840 289 l 682 289 l 682 481 l 51 481 l 51 604 z "},"^":{"ha":908,"x_min":50,"x_max":860,"o":"m 456 775 l 214 233 l 50 233 l 379 967 l 529 967 l 860 233 l 694 233 l 456 775 z "},"∞":{"ha":975,"x_min":38,"x_max":938,"o":"m 256 267 q 101 324 164 268 q 38 482 38 381 q 68 599 38 550 q 149 673 99 647 q 261 699 200 699 q 364 676 319 699 q 444 617 408 653 q 511 540 481 581 q 572 463 542 499 q 634 403 601 426 q 706 381 667 381 q 778 407 750 381 q 806 483 806 433 q 778 559 806 533 q 706 585 750 585 q 599 540 650 585 q 528 428 547 496 l 451 476 q 502 585 465 535 q 594 668 539 636 q 719 699 650 700 q 828 673 779 699 q 908 599 878 647 q 938 483 938 551 q 907 367 938 415 q 826 292 876 318 q 714 267 775 267 q 610 290 657 267 q 526 349 564 313 q 457 426 489 385 q 395 503 425 467 q 335 562 365 539 q 269 585 304 585 q 198 558 226 585 q 169 482 169 532 q 198 406 169 432 q 269 381 226 381 q 377 425 326 381 q 447 538 428 469 l 524 489 q 473 380 510 431 q 381 298 436 329 q 256 267 325 267 z "},"∫":{"ha":375,"x_min":-58,"x_max":442,"o":"m 175 1071 q 213 1197 183 1150 q 293 1265 243 1244 q 411 1285 343 1285 l 442 1285 l 428 1153 l 406 1153 q 356 1134 372 1153 q 333 1071 339 1115 l 208 -89 q 169 -214 200 -167 q 89 -281 139 -261 q -29 -301 39 -301 l -58 -301 l -46 -171 l -22 -171 q 27 -151 10 -171 q 49 -89 44 -132 l 175 1071 z "},"Ω":{"ha":1090,"x_min":53,"x_max":1038,"o":"m 67 0 l 67 124 l 329 124 l 294 86 q 160 183 214 122 q 80 322 107 244 q 53 485 53 399 q 91 683 53 593 q 197 840 129 774 q 353 942 264 906 q 544 978 442 978 q 737 942 647 978 q 894 840 826 906 q 999 683 961 774 q 1038 485 1038 593 q 1010 322 1038 399 q 930 183 983 244 q 794 86 876 122 l 760 124 l 1022 124 l 1022 0 l 643 0 l 643 128 q 763 199 711 151 q 846 317 815 247 q 876 475 876 388 q 833 667 876 586 q 715 790 790 747 q 544 833 640 833 q 374 790 449 833 q 256 666 299 746 q 214 475 214 586 q 244 317 214 388 q 328 199 275 247 q 447 128 381 151 l 447 0 l 67 0 z "},"∆":{"ha":967,"x_min":28,"x_max":939,"o":"m 418 967 l 549 967 l 939 122 l 939 0 l 28 0 l 28 122 l 418 967 m 483 786 l 190 122 l 776 122 l 483 786 z "},"∏":{"ha":1029,"x_min":43,"x_max":986,"o":"m 43 967 l 986 967 l 986 843 l 879 843 l 879 0 l 722 0 l 722 843 l 307 843 l 307 0 l 149 0 l 149 843 l 43 843 l 43 967 z "},"∑":{"ha":667,"x_min":56,"x_max":611,"o":"m 56 965 l 611 965 l 611 843 l 165 843 l 153 879 l 554 510 l 554 388 l 153 11 l 146 44 l 611 44 l 611 -78 l 56 -78 l 56 107 l 408 446 l 56 783 l 56 965 z "},"√":{"ha":1151,"x_min":29,"x_max":1136,"o":"m 1022 1221 l 1136 1221 l 436 -60 l 356 -60 l 172 264 l 76 207 l 29 286 l 261 424 l 450 89 l 414 107 l 1022 1221 z "},"µ":{"ha":908,"x_min":104,"x_max":804,"o":"m 804 0 l 646 0 l 646 765 l 804 765 l 804 0 m 679 213 q 624 90 664 140 q 528 15 585 40 q 401 -10 471 -10 q 319 3 358 -10 q 250 43 281 17 l 261 54 l 261 -364 l 104 -364 l 104 765 l 261 765 l 261 339 q 314 180 261 233 q 453 126 367 126 q 593 180 540 126 q 646 339 646 233 l 679 213 z "},"∂":{"ha":813,"x_min":53,"x_max":760,"o":"m 336 -12 q 194 24 258 -12 q 91 133 129 60 q 53 321 53 207 q 83 497 53 414 q 165 642 113 579 q 285 742 217 706 q 433 778 354 778 q 531 756 488 778 q 603 694 574 735 l 594 685 q 574 808 594 751 q 510 900 553 865 q 399 935 467 935 q 347 931 374 935 q 289 918 321 926 l 289 1007 q 358 1023 325 1018 q 422 1028 390 1028 q 606 970 531 1028 q 721 810 682 913 q 760 569 760 707 q 726 327 760 435 q 634 144 693 219 q 499 28 575 68 q 336 -12 422 -12 m 354 121 q 471 166 419 121 q 553 285 522 211 q 583 446 583 360 q 544 594 583 544 q 439 644 504 644 q 324 601 375 644 q 243 485 272 558 q 214 321 214 413 q 253 169 214 218 q 354 121 293 121 z "},"%":{"ha":1103,"x_min":58,"x_max":1044,"o":"m 196 0 l 750 965 l 906 965 l 351 0 l 196 0 m 269 540 q 119 597 179 540 q 58 758 58 654 q 119 918 58 861 q 269 975 179 975 q 420 918 360 975 q 481 758 481 861 q 420 597 481 654 q 269 540 360 540 m 269 636 q 333 665 310 636 q 357 760 357 694 q 333 851 357 824 q 269 879 310 879 q 206 851 229 879 q 182 760 182 824 q 206 665 182 694 q 269 636 229 636 m 835 -10 q 684 47 744 -10 q 624 208 624 104 q 684 369 624 313 q 835 425 744 425 q 985 369 925 425 q 1044 208 1044 313 q 985 47 1044 104 q 835 -10 925 -10 m 833 88 q 897 116 874 88 q 921 210 921 144 q 897 301 921 274 q 833 329 874 329 q 770 301 794 329 q 746 210 746 274 q 770 116 746 144 q 833 88 794 88 z "},"‰":{"ha":1475,"x_min":57,"x_max":1418,"o":"m 146 0 l 700 965 l 856 965 l 301 0 l 146 0 m 736 -10 q 585 47 646 -10 q 525 204 525 103 q 585 361 525 306 q 736 417 646 417 q 886 361 826 417 q 946 204 946 306 q 886 47 946 103 q 736 -10 826 -10 m 735 88 q 799 115 775 88 q 822 204 822 143 q 799 293 822 265 q 735 321 775 321 q 672 293 696 321 q 647 204 647 265 q 672 115 647 143 q 735 88 696 88 m 268 549 q 117 605 178 549 q 57 763 57 661 q 117 919 57 863 q 268 975 178 975 q 419 919 358 975 q 479 763 479 863 q 419 605 479 661 q 268 549 358 549 m 268 644 q 332 673 308 644 q 356 763 356 701 q 332 851 356 824 q 268 879 308 879 q 204 851 228 879 q 181 763 181 824 q 204 673 181 701 q 268 644 228 644 m 1207 -10 q 1057 47 1118 -10 q 996 204 996 103 q 1057 361 996 306 q 1207 417 1118 417 q 1358 361 1297 417 q 1418 204 1418 306 q 1358 47 1418 103 q 1207 -10 1297 -10 m 1207 88 q 1271 115 1247 88 q 1294 204 1294 143 q 1271 293 1294 265 q 1207 321 1247 321 q 1143 293 1167 321 q 1119 204 1119 265 q 1143 115 1119 143 q 1207 88 1167 88 z "},"◌":{"ha":833,"x_min":35,"x_max":800,"o":"m 679 510 q 636 526 653 510 q 619 568 619 542 q 636 610 619 594 q 679 626 653 626 q 722 610 706 626 q 739 568 739 594 q 722 526 739 542 q 679 510 706 510 m 157 113 q 114 128 131 113 q 97 171 97 144 q 114 213 97 197 q 157 229 131 229 q 200 213 183 229 q 217 171 217 197 q 200 128 217 144 q 157 113 183 113 m 293 7 q 250 23 267 7 q 233 65 233 39 q 250 108 233 92 q 293 124 267 124 q 336 108 319 124 q 353 65 353 92 q 336 23 353 39 q 293 7 319 7 m 94 269 q 51 285 68 269 q 35 328 35 301 q 51 370 35 354 q 94 386 68 386 q 138 370 121 386 q 154 328 154 354 q 138 285 154 301 q 94 269 121 269 m 465 -12 q 422 3 439 -12 q 406 46 406 19 q 422 88 406 72 q 465 104 439 104 q 508 88 492 104 q 525 46 525 72 q 508 3 525 19 q 465 -12 492 -12 m 115 438 q 72 453 89 438 q 56 496 56 469 q 72 538 56 522 q 115 554 89 554 q 158 538 142 554 q 175 496 175 522 q 158 453 175 469 q 115 438 142 438 m 625 51 q 582 67 599 51 q 565 110 565 83 q 582 152 565 136 q 625 168 599 168 q 668 152 651 168 q 685 110 685 136 q 668 67 685 83 q 625 51 651 51 m 221 575 q 178 591 194 575 q 161 633 161 607 q 178 676 161 660 q 221 692 194 692 q 264 676 247 692 q 281 633 281 660 q 264 591 281 607 q 221 575 247 575 m 726 185 q 683 201 700 185 q 667 243 667 217 q 683 285 667 269 q 726 301 700 301 q 769 285 753 301 q 786 243 786 269 q 769 201 786 217 q 726 185 753 185 m 383 633 q 340 649 357 633 q 324 692 324 665 q 340 734 324 718 q 383 750 357 750 q 426 734 410 750 q 443 692 443 718 q 426 649 443 665 q 383 633 410 633 m 740 351 q 697 367 714 351 q 681 410 681 383 q 697 452 681 436 q 740 468 714 468 q 783 452 767 468 q 800 410 800 436 q 783 367 800 383 q 740 351 767 351 m 551 613 q 508 628 525 613 q 492 671 492 644 q 508 713 492 697 q 551 729 525 729 q 594 713 578 729 q 611 671 611 697 q 594 628 611 644 q 551 613 578 613 z "},"◊":{"ha":774,"x_min":43,"x_max":731,"o":"m 388 831 l 731 488 l 388 143 l 43 488 l 388 831 m 388 661 l 214 488 l 388 313 l 561 488 l 388 661 z "},"̈":{"ha":0,"x_min":14,"x_max":419,"o":"m 97 861 q 38 885 63 861 q 14 944 14 910 q 38 1003 14 979 q 97 1028 63 1028 q 156 1003 132 1028 q 181 944 181 979 q 156 885 181 910 q 97 861 132 861 m 336 861 q 277 885 301 861 q 253 944 253 910 q 277 1003 253 979 q 336 1028 301 1028 q 395 1003 371 1028 q 419 944 419 979 q 395 885 419 910 q 336 861 371 861 z "},"̇":{"ha":0,"x_min":107,"x_max":274,"o":"m 107 979 q 131 1038 107 1014 q 190 1063 156 1063 q 249 1038 225 1063 q 274 979 274 1014 q 249 920 274 944 q 190 896 225 896 q 131 920 156 896 q 107 979 107 944 z "},"̀":{"ha":0,"x_min":14,"x_max":321,"o":"m 14 1106 l 321 936 l 321 819 l 14 971 l 14 1106 z "},"́":{"ha":0,"x_min":14,"x_max":321,"o":"m 321 1106 l 321 971 l 14 819 l 14 936 l 321 1106 z "},"̋":{"ha":0,"x_min":14,"x_max":478,"o":"m 247 1071 l 117 835 l 14 835 l 110 1071 l 247 1071 m 478 1071 l 339 835 l 236 835 l 340 1071 l 478 1071 z "},"̂":{"ha":0,"x_min":14,"x_max":411,"o":"m 411 819 l 213 939 l 14 819 l 14 943 l 213 1058 l 411 943 l 411 819 z "},"̌":{"ha":0,"x_min":14,"x_max":411,"o":"m 411 1058 l 411 935 l 213 819 l 14 935 l 14 1058 l 213 939 l 411 1058 z "},"̆":{"ha":0,"x_min":14,"x_max":432,"o":"m 222 829 q 69 883 125 829 q 14 1024 14 938 l 14 1053 l 104 1053 q 129 979 104 1006 q 222 953 154 953 q 315 979 290 953 q 340 1053 340 1006 l 432 1053 l 432 1022 q 376 883 432 936 q 222 829 321 829 z "},"̊":{"ha":0,"x_min":10,"x_max":322,"o":"m 322 992 q 276 881 322 922 q 165 840 231 840 q 56 881 101 840 q 10 992 10 922 q 56 1103 10 1063 q 165 1144 101 1144 q 276 1103 231 1144 q 322 992 322 1063 m 233 993 q 213 1044 233 1025 q 165 1064 193 1064 q 119 1044 139 1064 q 99 993 99 1025 q 119 942 99 963 q 165 922 139 922 q 213 942 193 922 q 233 993 233 963 z "},"̃":{"ha":0,"x_min":14,"x_max":481,"o":"m 324 842 q 260 857 286 842 q 213 888 235 872 q 163 904 190 904 q 124 890 140 904 q 103 844 107 875 l 14 844 q 68 967 25 926 q 171 1007 111 1007 q 234 992 208 1007 q 282 961 260 976 q 332 946 304 946 q 372 960 356 946 q 392 1004 388 974 l 481 1004 q 427 882 469 922 q 324 842 385 842 z "},"̄":{"ha":0,"x_min":14,"x_max":522,"o":"m 14 1000 l 522 1000 l 522 882 l 14 882 l 14 1000 z "},"̦":{"ha":0,"x_min":14,"x_max":292,"o":"m 14 -442 l 14 -335 q 81 -329 50 -336 q 133 -308 111 -322 q 167 -275 156 -294 q 150 -279 158 -278 q 132 -281 142 -281 q 53 -256 86 -281 q 19 -175 19 -231 q 57 -86 19 -119 q 150 -53 94 -53 q 224 -76 192 -53 q 274 -135 256 -99 q 292 -211 292 -171 q 251 -348 292 -294 q 148 -424 211 -401 q 14 -442 85 -447 z "},"̧":{"ha":0,"x_min":14,"x_max":374,"o":"m 193 -67 q 285 -83 244 -67 q 350 -132 326 -100 q 374 -212 374 -164 q 350 -294 374 -260 q 287 -346 326 -328 q 197 -364 247 -364 l 14 -364 l 14 -264 l 165 -264 q 222 -253 201 -264 q 243 -212 243 -243 q 222 -171 243 -181 q 165 -161 201 -161 l 89 -161 l 89 10 l 193 10 l 193 -67 z "},"̨":{"ha":0,"x_min":14,"x_max":311,"o":"m 249 81 l 290 0 l 222 -35 q 160 -79 178 -57 q 143 -126 143 -101 q 164 -173 143 -156 q 219 -190 185 -190 q 311 -171 261 -190 l 311 -272 q 258 -287 288 -282 q 199 -293 229 -293 q 113 -278 156 -293 q 42 -231 69 -264 q 14 -143 14 -199 q 31 -74 14 -107 q 86 -8 47 -40 q 190 54 125 25 l 249 81 z "},"¨":{"ha":433,"x_min":14,"x_max":419,"o":"m 97 861 q 38 885 63 861 q 14 944 14 910 q 38 1003 14 979 q 97 1028 63 1028 q 156 1003 132 1028 q 181 944 181 979 q 156 885 181 910 q 97 861 132 861 m 336 861 q 277 885 301 861 q 253 944 253 910 q 277 1003 253 979 q 336 1028 301 1028 q 395 1003 371 1028 q 419 944 419 979 q 395 885 419 910 q 336 861 371 861 z "},"˙":{"ha":194,"x_min":14,"x_max":181,"o":"m 97 861 q 38 885 63 861 q 14 944 14 910 q 38 1003 14 979 q 97 1028 63 1028 q 156 1003 132 1028 q 181 944 181 979 q 156 885 181 910 q 97 861 132 861 z "},"`":{"ha":353,"x_min":14,"x_max":321,"o":"m 14 1106 l 321 936 l 321 819 l 14 971 l 14 1106 z "},"´":{"ha":335,"x_min":14,"x_max":321,"o":"m 321 1106 l 321 971 l 14 819 l 14 936 l 321 1106 z "},"˝":{"ha":507,"x_min":14,"x_max":478,"o":"m 247 1071 l 117 835 l 14 835 l 110 1071 l 247 1071 m 478 1071 l 339 835 l 236 835 l 340 1071 l 478 1071 z "},"ˆ":{"ha":425,"x_min":14,"x_max":411,"o":"m 411 819 l 213 939 l 14 819 l 14 943 l 213 1058 l 411 943 l 411 819 z "},"ˇ":{"ha":425,"x_min":14,"x_max":411,"o":"m 411 1058 l 411 935 l 213 819 l 14 935 l 14 1058 l 213 939 l 411 1058 z "},"˘":{"ha":446,"x_min":14,"x_max":432,"o":"m 222 829 q 69 883 125 829 q 14 1024 14 938 l 14 1053 l 104 1053 q 129 979 104 1006 q 222 953 154 953 q 315 979 290 953 q 340 1053 340 1006 l 432 1053 l 432 1022 q 376 883 432 936 q 222 829 321 829 z "},"˚":{"ha":331,"x_min":10,"x_max":322,"o":"m 322 992 q 276 881 322 922 q 165 840 231 840 q 56 881 101 840 q 10 992 10 922 q 56 1103 10 1063 q 165 1144 101 1144 q 276 1103 231 1144 q 322 992 322 1063 m 233 993 q 213 1044 233 1025 q 165 1064 193 1064 q 119 1044 139 1064 q 99 993 99 1025 q 119 942 99 963 q 165 922 139 922 q 213 942 193 922 q 233 993 233 963 z "},"˜":{"ha":494,"x_min":14,"x_max":481,"o":"m 324 842 q 260 857 286 842 q 213 888 235 872 q 163 904 190 904 q 124 890 140 904 q 103 844 107 875 l 14 844 q 68 967 25 926 q 171 1007 111 1007 q 234 992 208 1007 q 282 961 260 976 q 332 946 304 946 q 372 960 356 946 q 392 1004 388 974 l 481 1004 q 427 882 469 922 q 324 842 385 842 z "},"¯":{"ha":536,"x_min":14,"x_max":522,"o":"m 14 1000 l 522 1000 l 522 882 l 14 882 l 14 1000 z "},"¸":{"ha":388,"x_min":14,"x_max":374,"o":"m 193 -67 q 285 -83 244 -67 q 350 -132 326 -100 q 374 -212 374 -164 q 350 -294 374 -260 q 287 -346 326 -328 q 197 -364 247 -364 l 14 -364 l 14 -264 l 165 -264 q 222 -253 201 -264 q 243 -212 243 -243 q 222 -171 243 -181 q 165 -161 201 -161 l 89 -161 l 89 10 l 193 10 l 193 -67 z "},"˛":{"ha":325,"x_min":14,"x_max":311,"o":"m 249 81 l 290 0 l 222 -35 q 160 -79 178 -57 q 143 -126 143 -101 q 164 -173 143 -156 q 219 -190 185 -190 q 311 -171 261 -190 l 311 -272 q 258 -287 288 -282 q 199 -293 229 -293 q 113 -278 156 -293 q 42 -231 69 -264 q 14 -143 14 -199 q 31 -74 14 -107 q 86 -8 47 -40 q 190 54 125 25 l 249 81 z "},"⁄":{"ha":815,"x_min":71,"x_max":782,"o":"m 625 965 l 782 965 l 228 0 l 71 0 l 625 965 z "},"½":{"ha":974,"x_min":47,"x_max":913,"o":"m 603 965 l 753 965 l 238 0 l 88 0 l 603 965 m 164 476 l 164 851 q 115 797 147 813 q 47 781 83 781 l 47 896 q 115 915 83 896 q 157 965 146 935 l 288 965 l 288 476 l 164 476 m 724 485 q 825 463 783 485 q 889 404 867 440 q 911 326 911 368 q 881 235 911 275 q 781 151 850 196 l 679 86 l 913 86 l 913 -14 l 539 -14 l 539 78 l 689 188 q 756 251 732 219 q 781 321 781 282 q 765 372 781 353 q 719 390 749 390 q 673 364 688 390 q 658 314 658 338 l 536 338 q 562 411 539 378 q 626 465 585 444 q 724 485 668 485 z "},"¼":{"ha":947,"x_min":47,"x_max":893,"o":"m 619 965 l 768 965 l 238 0 l 88 0 l 619 965 m 893 171 l 893 93 l 831 93 l 831 0 l 707 0 l 707 93 l 449 93 l 449 163 l 658 490 l 831 490 l 831 171 l 893 171 m 710 171 l 710 396 l 572 171 l 710 171 m 164 476 l 164 851 q 115 797 147 813 q 47 781 83 781 l 47 896 q 115 915 83 896 q 157 965 146 935 l 288 965 l 288 476 l 164 476 z "},"¾":{"ha":1031,"x_min":46,"x_max":994,"o":"m 751 965 l 900 965 l 342 0 l 193 0 l 751 965 m 994 171 l 994 93 l 932 93 l 932 0 l 808 0 l 808 93 l 550 93 l 550 163 l 760 490 l 932 490 l 932 171 l 994 171 m 811 171 l 811 396 l 674 171 l 811 171 m 224 469 q 165 476 194 469 q 108 496 135 482 q 65 534 82 510 q 46 594 49 558 l 146 622 q 172 576 151 592 q 222 561 192 561 q 274 578 254 561 q 294 624 294 594 q 274 667 294 651 q 219 683 253 683 l 168 683 l 168 764 l 215 764 q 269 778 249 764 q 290 822 290 793 q 272 866 290 850 q 219 882 253 882 q 172 869 189 882 q 147 833 154 856 l 47 875 q 90 932 65 910 q 148 965 114 954 q 229 975 182 975 q 328 956 283 975 q 398 903 372 936 q 424 829 424 869 q 399 760 424 786 q 339 722 375 733 l 339 719 q 401 679 375 707 q 428 607 428 651 q 371 509 428 549 q 224 469 314 469 z "},"¹":{"ha":332,"x_min":28,"x_max":268,"o":"m 144 476 l 144 851 q 96 797 128 813 q 28 781 64 781 l 28 896 q 95 915 64 896 q 138 965 126 935 l 268 965 l 268 476 l 144 476 z "},"²":{"ha":472,"x_min":38,"x_max":414,"o":"m 225 975 q 326 953 285 975 q 390 894 368 931 q 413 817 413 858 q 382 726 413 765 q 282 642 351 686 l 181 576 l 414 576 l 414 476 l 40 476 l 40 568 l 190 678 q 258 741 233 710 q 282 811 282 772 q 266 862 282 843 q 221 881 250 881 q 174 854 189 881 q 160 804 160 828 l 38 828 q 63 901 40 868 q 128 955 86 935 q 225 975 169 975 z "},"³":{"ha":453,"x_min":25,"x_max":407,"o":"m 203 469 q 144 476 174 469 q 88 496 114 482 q 44 534 61 510 q 25 594 28 558 l 125 622 q 151 576 131 592 q 201 561 171 561 q 253 578 233 561 q 274 624 274 594 q 253 667 274 651 q 199 683 232 683 l 147 683 l 147 764 l 194 764 q 249 778 228 764 q 269 822 269 793 q 251 866 269 850 q 199 882 232 882 q 151 869 168 882 q 126 833 133 856 l 26 875 q 69 932 44 910 q 127 965 93 954 q 208 975 161 975 q 307 956 263 975 q 377 903 351 936 q 403 829 403 869 q 378 760 403 786 q 318 722 354 733 l 318 719 q 381 679 354 707 q 407 607 407 651 q 350 509 407 549 q 203 469 293 469 z "}}}
